<?xml version="1.0" standalone="no"?>
<!DOCTYPE svg PUBLIC "-//W3C//DTD SVG 1.1//EN" "http://www.w3.org/Graphics/SVG/1.1/DTD/svg11.dtd" >
<svg xmlns="http://www.w3.org/2000/svg" xmlns:xlink="http://www.w3.org/1999/xlink" version="1.1">
<metadata>
Created by FontForge 20170731 at Fri Apr  8 14:39:13 2016
 By Aleksey,,,
Copyright (c) 2016 by Misti's Fonts. All rights reserved.
</metadata>
<defs>
<font id="TooFreakinCuteDemo" horiz-adv-x="397" >
  <font-face 
    font-family="Too Freakin Cute Demo"
    font-weight="400"
    font-stretch="normal"
    units-per-em="1000"
    panose-1="0 0 0 0 0 0 0 0 0 0"
    ascent="750"
    descent="-250"
    x-height="409"
    cap-height="760"
    bbox="-307.533 -454 1262.31 1023.67"
    underline-thickness="50"
    underline-position="-150"
    unicode-range="U+000D-20AC"
  />
<missing-glyph horiz-adv-x="287" 
 />
    <glyph glyph-name=".notdef" horiz-adv-x="287" 
 />
    <glyph glyph-name=".null" horiz-adv-x="0" 
 />
    <glyph glyph-name="nonmarkingreturn" unicode="&#xd;" horiz-adv-x="287" 
 />
    <glyph glyph-name="NULL" horiz-adv-x="0" 
 />
    <glyph glyph-name="NULL" horiz-adv-x="0" 
 />
    <glyph glyph-name="space" unicode=" " horiz-adv-x="287" 
 />
    <glyph glyph-name="exclam" unicode="!" horiz-adv-x="127" 
d="M54 757q17 0 29 -11t12 -28l14 -485q0 -17 -11 -29t-28 -12h-1q-17 0 -28.5 11t-11.5 28l-14 485q0 17 11 28.5t28 12.5zM113 46q0 -19 -13 -32t-32 -13t-32 13t-13 32t13 32t32 13t32 -13t13 -32z" />
    <glyph glyph-name="quotedbl" unicode="&#x22;" horiz-adv-x="259" 
d="M24 589q0 21 12.5 31t27.5 10t27.5 -10t12.5 -31v-176q0 -21 -12.5 -31t-27.5 -10t-27.5 10t-12.5 31v176zM154 589q0 21 12.5 31t27.5 10t27.5 -10t12.5 -31v-176q0 -21 -12.5 -31t-27.5 -10t-27.5 10t-12.5 31v176z" />
    <glyph glyph-name="numbersign" unicode="#" horiz-adv-x="513" 
d="M67 467q-21 0 -31 12.5t-10 27.5t10 27.5t31 12.5h67l14 70q4 20 18.5 27.5t29 4.5t24.5 -15.5t6 -32.5l-11 -54h99l14 70q4 20 18.5 27.5t29 4.5t24.5 -15.5t6 -32.5l-11 -54h54q21 0 31 -12.5t10 -27.5t-10 -27.5t-31 -12.5h-70l-12 -60h82q21 0 31 -12.5t10 -27.5
t-10 -27.5t-31 -12.5h-98l-16 -83q-4 -20 -18.5 -28t-29 -5t-24.5 16t-6 33l13 67h-99l-16 -83q-4 -20 -18.5 -28t-29 -5t-24.5 16t-6 33l13 67h-23q-21 0 -31 12.5t-10 27.5t10 27.5t31 12.5h39l12 60h-51zM187 407h99l12 60h-99z" />
    <glyph glyph-name="dollar" unicode="$" horiz-adv-x="665" 
d="M285 822q0 21 12 31.5t27 11t28 -9.5t13 -31l1 -69q33 2 64 -1.5t57.5 -13t46 -25.5t29.5 -39q6 -15 0 -30t-22 -22q-15 -6 -30.5 0t-21.5 22q-3 7 -16.5 14.5t-39.5 12.5q-30 5 -65 3l5 -249q48 -17 93 -34.5t83 -42.5q24 -16 41.5 -33.5t30.5 -37.5q29 -47 26 -104
q-2 -45 -21.5 -82.5t-55.5 -64.5q-31 -24 -71 -37.5t-87 -17.5q-8 -1 -14.5 -1h-14.5l1 -47q0 -21 -12 -31.5t-27 -11t-28 9.5t-13 31l-1 57q-35 7 -69 19t-63 29q-59 35 -97 85q-22 27 -35.5 58t-20.5 65q-3 17 6 30.5t26 16.5q16 4 29.5 -5.5t16.5 -25.5q7 -38 26.5 -69
t47 -55t61 -41t70.5 -26l-6 308q-31 11 -58.5 22t-51.5 25q-82 46 -88 115q-9 83 55 144q51 47 134 68zM505 283q-27 17 -60.5 31t-69.5 27l6 -289h12.5t12.5 1q14 1 40 5.5t52.5 18t46.5 37.5t22 64q2 32 -13 57t-49 48zM176 539q1 -13 11 -24.5t25.5 -21.5t36.5 -19.5
t44 -18.5l-5 206q-16 -6 -36.5 -15.5t-38 -24t-29 -35t-8.5 -47.5z" />
    <glyph glyph-name="percent" unicode="%" horiz-adv-x="445" 
d="M414 46q0 -19 -13 -32t-32 -13t-32 13t-13 32t13 32t32 13t32 -13t13 -32zM119 656q0 -19 -13 -32t-32 -13t-32 13t-13 32t13 32t32 13t32 -13t13 -32zM107 24q-9 -18 -25 -22t-29.5 3t-20 22t2.5 33l304 616q9 18 25 21.5t29.5 -3t20 -21.5t-2.5 -33z" />
    <glyph glyph-name="ampersand" unicode="&#x26;" horiz-adv-x="410" 
d="M397 81q5 -16 -2.5 -30.5t-24.5 -19.5q-2 -1 -33 -9.5t-76 -16.5v-2l14 -226q1 -17 -10 -29t-28 -13h-2q-16 0 -27.5 10.5t-12.5 26.5l-14 225h-11q-67 0 -106 24q-39 26 -45 72q-3 29 6.5 56.5t31.5 50.5q31 34 86 60q17 8 35 15q-11 8 -21 16t-21 16q-52 43 -76 80
q-25 37 -24 64.5t9 44.5q18 37 59 46q15 3 31 3l-7 177q0 17 11 28.5t28 12.5t29 -10t12 -28l8 -201q10 -5 20 -9.5t21 -10.5q16 -9 30 -17.5t24.5 -15.5t17 -11.5l6.5 -4.5q14 -11 16 -27t-8 -29q-10 -14 -26 -16.5t-30 7.5q0 1 -20 15t-49 29q-24 13 -41 19.5t-28 9
t-17.5 2.5t-9.5 -1q-4 -1 -5 -4q-4 -7 9 -29q9 -14 24.5 -29.5t35.5 -32.5q19 -15 38 -28t34 -23t25 -15.5l10 -5.5q11 -6 16 -17t3 -24q-2 -12 -10.5 -21.5t-20.5 -11.5l-9.5 -2t-24 -6.5t-33 -11t-37.5 -15.5q-14 -7 -29 -16t-26.5 -19.5t-18 -23t-4.5 -26.5q1 -10 9 -15
q4 -2 12.5 -5.5t24.5 -5t40 -1t59 6.5q42 7 72 15.5t31 8.5q16 5 30.5 -2.5t19.5 -23.5z" />
    <glyph glyph-name="quotesingle" unicode="'" horiz-adv-x="126" 
d="M22 589q0 21 12.5 31t27.5 10t27.5 -10t12.5 -31v-176q0 -21 -12.5 -31t-27.5 -10t-27.5 10t-12.5 31v176v0z" />
    <glyph glyph-name="parenleft" unicode="(" horiz-adv-x="431" 
d="M371 -254q-92 0 -165 47q-66 45 -108 122q-38 69 -54.5 159.5t-10.5 191.5q6 97 31.5 184t67.5 150q40 61 92 93q57 36 124 30q17 -2 27.5 -14t8.5 -29t-14.5 -28t-29.5 -9q-24 2 -45.5 -5t-39 -20t-32 -29.5t-24.5 -32.5q-35 -53 -57.5 -129t-28.5 -159.5t7 -166
t48 -148.5q70 -127 203 -127h1q17 0 28.5 -11.5t11.5 -28.5t-11.5 -28.5t-28.5 -11.5h-1z" />
    <glyph glyph-name="parenright" unicode=")" horiz-adv-x="431" 
d="M60 -254h-1q-17 0 -28.5 11.5t-11.5 28.5t11.5 28.5t28.5 11.5h1q133 0 203 127q35 66 48 148.5t7 166t-28.5 159.5t-57.5 129q-11 16 -25 32.5t-31.5 29.5t-39 20t-45.5 5q-17 -2 -29.5 9t-14.5 28t8.5 29t27.5 14q67 6 124 -30q52 -32 92 -93q42 -63 67.5 -150
t31.5 -184q6 -101 -10.5 -191.5t-54.5 -159.5q-42 -77 -108 -122q-73 -47 -165 -47z" />
    <glyph glyph-name="asterisk" unicode="*" horiz-adv-x="512" 
d="M234 516q15 45 40.5 66.5t52 24.5t49.5 -9.5t32.5 -36t0 -55t-46.5 -66.5q-14 -13 -40.5 -36.5t-53.5 -46t-47 -39t-21 -16.5q-2 0 -18 18.5t-36.5 44.5t-41 54t-30.5 48q-18 32 -17.5 63t12.5 54t32.5 35t44.5 7t47.5 -31t40.5 -79z" />
    <glyph glyph-name="plus" unicode="+" horiz-adv-x="330" 
d="M59 265q-21 0 -31 12.5t-10 27.5t10 27.5t31 12.5h66v66q0 21 12.5 31t27.5 10t27.5 -10t12.5 -31v-66h66q21 0 31 -12.5t10 -27.5t-10 -27.5t-31 -12.5h-66v-66q0 -21 -12.5 -31t-27.5 -10t-27.5 10t-12.5 31v66h-66v0z" />
    <glyph glyph-name="comma" unicode="," horiz-adv-x="155" 
d="M60 99q5 20 20 26.5t29.5 3t24 -16.5t4.5 -33l-43 -178q-5 -20 -20 -27t-29.5 -3t-24 17t-4.5 33l43 178v0z" />
    <glyph glyph-name="hyphen" unicode="-" horiz-adv-x="362" 
d="M75 235q-21 0 -31 12.5t-10 27.5t10 27.5t31 12.5h212q21 0 31 -12.5t10 -27.5t-10 -27.5t-31 -12.5h-212v0z" />
    <glyph glyph-name="period" unicode="." horiz-adv-x="128" 
d="M109 46q0 -19 -13 -32t-32 -13t-32 13t-13 32t13 32t32 13t32 -13t13 -32z" />
    <glyph glyph-name="slash" unicode="/" horiz-adv-x="430" 
d="M99 24q-9 -18 -25 -22t-29.5 3t-20 22t2.5 33l304 616q9 18 25 21.5t29.5 -3t20 -21.5t-2.5 -33l-304 -616v0z" />
    <glyph glyph-name="zero" unicode="0" horiz-adv-x="603" 
d="M429 728q23 -17 42.5 -40.5t36.5 -52.5q29 -53 44.5 -119t15.5 -138q0 -74 -16 -140.5t-47 -118.5q-17 -29 -38 -52.5t-46 -40.5q-56 -38 -125 -41h-11q-60 0 -108 29q-48 30 -81 83q-31 53 -45.5 122.5t-11.5 150.5q3 77 22 148.5t52 125.5q33 58 83 92q54 36 119 33
q64 -3 114 -41zM436 160q26 43 39 99t13 119q0 61 -13 118t-37 101q-8 15 -20 31t-28 29.5t-35.5 22.5t-43.5 10h-6q-22 0 -41 -8t-34.5 -20.5t-27.5 -28t-21 -30.5q-29 -48 -44.5 -110.5t-18 -127t9 -124t37.5 -102.5q47 -79 128 -74q90 5 143 95z" />
    <glyph glyph-name="one" unicode="1" horiz-adv-x="569" 
d="M515 78q17 0 29 -11t12 -28q1 -17 -10 -29t-28 -12l-450 -13h-2q-16 0 -27.5 11t-12.5 28q0 17 11 28.5t28 12.5l183 5l1 569l-156 -142q-12 -11 -28.5 -10.5t-27.5 12.5q-11 13 -10.5 29.5t13.5 27.5l223 203q18 18 43 7q11 -5 17.5 -15t5.5 -21l-1 -658l187 6v0z" />
    <glyph glyph-name="two" unicode="2" horiz-adv-x="584" 
d="M521 80q17 1 28.5 -10.5t12.5 -28.5t-10.5 -28.5t-28.5 -12.5l-450 -14h-1q-26 0 -36 23q-5 11 -3.5 22.5t9.5 20.5l12 14l12 14q94 107 165.5 191.5t114.5 152.5q42 66 54 114.5t-2 92.5q-8 26 -29.5 41.5t-50.5 17.5q-44 2 -86 -30q-53 -41 -90 -123q-7 -16 -22.5 -22
t-30.5 1t-21 22.5t1 30.5q45 102 115 155q32 24 67.5 35.5t70.5 9.5q54 -2 94.5 -33t57.5 -80q20 -62 6 -128t-66 -147q-42 -65 -105.5 -141.5t-145.5 -170.5l358 11v0z" />
    <glyph glyph-name="three" unicode="3" horiz-adv-x="590" 
d="M447 394q72 -44 99 -109q19 -49 10 -96q-4 -25 -14.5 -47.5t-27.5 -42.5q-59 -72 -172 -100q-31 -8 -63 -11t-67 -3q-72 0 -151 15q-16 3 -25.5 16.5t-6.5 30.5q4 16 17.5 25.5t29.5 5.5q70 -13 132.5 -13.5t114.5 12.5q88 22 129 72q20 25 25 52.5t-6 53.5
q-18 45 -75 75.5t-142 40.5q-13 1 -22.5 10t-12.5 22q-5 28 21 43q45 23 79 49.5t56 54.5q17 21 25.5 42t7.5 39q-1 22 -13 33.5t-24 16.5q-19 8 -47 8.5t-63.5 -10t-77.5 -35t-88 -65.5q-12 -11 -28.5 -10t-27.5 13q-11 13 -10 29.5t13 27.5q50 44 99 73.5t99 43.5
q46 14 87 13.5t75 -14.5q39 -17 61 -48q23 -31 25 -72q3 -68 -50 -135q-15 -18 -33 -35.5t-41 -34.5q44 -14 83 -36z" />
    <glyph glyph-name="four" unicode="4" horiz-adv-x="578" 
d="M499 348q17 2 29.5 -9t13.5 -28q2 -17 -9 -29t-28 -13l-18 -2v-242q0 -17 -11.5 -28.5t-28.5 -11.5t-28.5 11.5t-11.5 28.5v236l-352 -26h-3q-9 0 -18 4.5t-14 12.5q-13 18 -5 39l8.5 21t20.5 55.5t26 79t26 93t19.5 97.5t6.5 92q-1 17 10.5 28.5t28.5 12.5
q17 0 28.5 -11.5t12.5 -28.5q1 -51 -8.5 -108.5t-23 -113t-29.5 -105t-29 -83.5l295 22v382q0 17 11.5 28.5t28.5 11.5t28.5 -11.5t11.5 -28.5v-376h12v0z" />
    <glyph glyph-name="five" unicode="5" horiz-adv-x="582" 
d="M500 411q23 -29 35.5 -62.5t16.5 -68.5q4 -36 -4 -71t-25 -67q-25 -43 -66 -75t-97 -52q-84 -30 -197 -30q-50 0 -104 6q-17 2 -27.5 14.5t-8.5 29.5t14.5 27t29.5 8q145 -16 246 13.5t140 97.5q24 42 19.5 91t-36.5 91q-42 55 -110 75.5t-149 0.5q-26 -6 -46 12
q-21 21 -20 76q1 17 2.5 37.5t5.5 45.5q3 21 6 40t6 33.5t5 24t2 10.5q2 13 12 21.5t24 9.5l268 21q17 1 29 -9.5t14 -27.5t-9 -29.5t-28 -13.5l-238 -18q-2 -13 -5 -29t-5 -33q-5 -32 -7 -53t-2 -34q20 3 38.5 4.5t36.5 0.5q48 -1 95 -17q43 -14 78 -39.5t61 -60.5z" />
    <glyph glyph-name="six" unicode="6" horiz-adv-x="608" 
d="M355 432q72 -3 125.5 -42.5t73.5 -102.5q17 -56 8 -112.5t-42 -101.5q-31 -42 -76.5 -65t-97.5 -23q-133 0 -211 80q-102 102 -99 322q0 80 21 146q18 65 54 112q32 46 75.5 76.5t94.5 41.5q80 18 151 -12q75 -32 113 -107q8 -15 2.5 -30.5t-20.5 -23.5t-30.5 -2.5
t-23.5 20.5q-24 48 -71 69t-103 8q-33 -8 -65 -28.5t-58 -57t-42.5 -89.5t-17.5 -124q-2 -42 3 -80q33 48 79 80q74 49 157 46zM456 120q22 30 27.5 68t-5.5 75q-12 39 -46.5 63t-79.5 26q-25 1 -52.5 -6.5t-54.5 -25t-51 -46.5t-41 -72q-1 -4 -3 -6.5t-4 -5.5
q18 -41 46 -69q56 -56 154 -56q33 0 61.5 14t48.5 41z" />
    <glyph glyph-name="seven" unicode="7" horiz-adv-x="566" 
d="M513 352q16 -3 25.5 -16.5t5.5 -30.5q-2 -14 -13.5 -23t-25.5 -9q-5 0 -8 1l-120 23l-123 -288q-5 -11 -15 -17.5t-21 -6.5q-9 0 -16 3q-15 6 -21.5 21.5t0.5 30.5l115 273l-133 26q-17 3 -26 16.5t-6 30.5q4 17 17.5 26t29.5 5l150 -29l118 278l-393 24q-17 1 -28 13
t-10 29t13 28t29 10l450 -28q21 -2 32 -19t3 -36l-133 -314l104 -21v0z" />
    <glyph glyph-name="eight" unicode="8" horiz-adv-x="595" 
d="M546 303q17 -42 17 -86q0 -45 -18 -86t-51 -73q-37 -34 -88 -52.5t-114 -20.5h-11q-75 0 -130 27q-59 28 -89 81q-31 52 -29 117q3 62 35 117q33 56 86 87q-26 20 -44 49q-26 45 -25 101t30 104q14 23 32.5 41.5t41.5 32.5q53 29 114 28q49 -2 88 -19q38 -17 66 -46
q26 -28 40 -63.5t14 -73.5t-14 -73t-41 -61q-4 -4 -8 -7.5t-9 -7.5q30 -16 57 -41q32 -34 50 -75zM184 627q-17 -29 -18.5 -63t13.5 -60q31 -51 108 -51h11q37 1 62 12t41 27.5t23 36.5t7 39q0 22 -8.5 43.5t-25 39t-40.5 28t-56 11.5h-4q-25 0 -44 -6.5t-32.5 -16
t-22.5 -20.5t-14 -20zM290 65q53 1 90 16t60 36.5t33 48t10 51.5q0 27 -10.5 54.5t-32.5 49.5t-55.5 36t-79.5 16h-7h-3h-6q-50 -2 -89.5 -24.5t-62.5 -61.5q-23 -38 -24.5 -79.5t18.5 -74.5t58 -50.5t92 -17.5h9z" />
    <glyph glyph-name="nine" unicode="9" horiz-adv-x="607" 
d="M253 328q-72 3 -125.5 42.5t-73.5 102.5q-17 56 -8 112.5t42 101.5q31 42 76.5 65t97.5 23q133 0 211 -80q102 -102 99 -322q0 -80 -21 -146q-18 -65 -54 -112q-32 -46 -75.5 -76.5t-94.5 -41.5q-80 -18 -151 12q-75 32 -113 107q-8 15 -2.5 30.5t20.5 23.5t30.5 2.5
t23.5 -20.5q24 -48 71 -69t103 -8q33 7 65 28t58 57.5t42.5 89.5t17.5 124q2 42 -3 80q-33 -48 -79 -80q-74 -49 -157 -46zM152 640q-22 -30 -27.5 -68t5.5 -75q12 -39 46.5 -63t79.5 -26q25 -1 52.5 6.5t54.5 25t51 46.5t41 72q1 4 3 6.5t4 5.5q-18 41 -46 69
q-56 56 -154 56q-33 0 -61.5 -14t-48.5 -41z" />
    <glyph glyph-name="colon" unicode=":" horiz-adv-x="134" 
d="M112 46q0 -19 -13 -32t-32 -13t-32 13t-13 32t13 32t32 13t32 -13t13 -32zM112 396q0 -19 -13 -32t-32 -13t-32 13t-13 32t13 32t32 13t32 -13t13 -32z" />
    <glyph glyph-name="semicolon" unicode=";" horiz-adv-x="160" 
d="M150 396q0 -19 -13 -32t-32 -13t-32 13t-13 32t13 32t32 13t32 -13t13 -32zM60 99q5 20 20 26.5t29.5 3t24 -16.5t4.5 -33l-43 -178q-5 -20 -20 -27t-29.5 -3t-24 17t-4.5 33z" />
    <glyph glyph-name="less" unicode="&#x3c;" horiz-adv-x="415" 
d="M36 274q-11 5 -17 14.5t-7 20t4 20.5t17 17l287 160q18 10 33 4t22 -19t4 -29t-21 -26l-225 -125l225 -125q18 -10 21 -26t-4 -29t-22 -19t-33 4z" />
    <glyph glyph-name="equal" unicode="=" horiz-adv-x="362" 
d="M75 235q-21 0 -31 12.5t-10 27.5t10 27.5t31 12.5h212q21 0 31 -12.5t10 -27.5t-10 -27.5t-31 -12.5h-212zM75 395q-21 0 -31 12.5t-10 27.5t10 27.5t31 12.5h212q21 0 31 -12.5t10 -27.5t-10 -27.5t-31 -12.5h-212z" />
    <glyph glyph-name="greater" unicode="&#x3e;" horiz-adv-x="415" 
d="M95 116q-18 -10 -33 -4t-22 19t-4 29t21 26l225 125l-225 125q-18 10 -21 26t4 29t22 19t33 -4l287 -160q12 -7 17 -17t4 -20.5t-7 -20t-17 -14.5z" />
    <glyph glyph-name="question" unicode="?" horiz-adv-x="500" 
d="M192 160q-18 0 -29 14q-11 12 -10.5 28.5t12.5 27.5q88 79 145.5 151t82.5 132q6 15 11 32.5t6 35t-3 34t-16 30.5q-18 21 -52.5 30.5t-77.5 4.5q-49 -5 -97 -26.5t-88 -55.5q-13 -11 -29.5 -9.5t-27.5 13.5q-11 13 -9.5 29.5t14.5 27.5q25 22 53 39t58 30q60 26 118 32
q63 6 114.5 -10t83.5 -52q34 -39 39 -95q4 -54 -23 -121q-58 -140 -248 -311q-13 -11 -27 -11zM238 46q0 19 -13 32t-32 13t-32 -13t-13 -32t13 -32t32 -13t32 13t13 32z" />
    <glyph glyph-name="at" unicode="@" horiz-adv-x="758" 
d="M376 -22q-7 0 -13 0.5t-13 0.5q-54 5 -99 25q-42 18 -80 52q-46 42 -76.5 100.5t-43.5 129.5q-13 68 -7 136t29 128q39 102 117.5 157.5t182.5 55.5h1q123 0 209 -63q75 -54 111 -147q17 -45 24 -94t3 -97q-4 -44 -17 -80q-15 -41 -39 -62q-39 -38 -83 -33
q-28 3 -48.5 19t-34.5 34q-20 -26 -47 -44q-29 -20 -59 -26.5t-57 -0.5q-19 4 -41 18t-39 48q-24 53 -18 139q8 106 54 171q23 31 53 47t62 14q26 -2 48.5 -15.5t38.5 -36.5q31 -47 28 -117q-1 -17 -12.5 -28t-27.5 -11h-2q-17 1 -28 13t-10 29q2 46 -15 69q-3 6 -9.5 11
t-15.5 6q-11 1 -22.5 -7t-22.5 -22q-11 -16 -23 -46t-16 -83t5.5 -84.5t29.5 -36.5q24 -5 54 16q33 22 46 54q5 13 14.5 20.5t21.5 9.5q25 3 44 -19q3 -4 6.5 -8.5t7.5 -10.5q8 -10 20.5 -25.5t22.5 -16.5q9 0 21 12q9 8 18 31.5t12 58.5q4 39 -2 79t-20 76q-11 27 -29 55
t-47.5 51.5t-70.5 38t-98 14.5h-1q-53 0 -91.5 -16.5t-65.5 -41.5t-43 -53t-25 -51q-20 -53 -24.5 -110.5t6 -112t34.5 -102.5t60 -81q61 -55 145 -57t186 49q15 8 30.5 2.5t23.5 -19.5q8 -15 2.5 -30.5t-20.5 -23.5q-116 -58 -215 -58z" />
    <glyph glyph-name="A" unicode="A" horiz-adv-x="797" 
d="M196 18q0 -17 -11.5 -28.5t-28.5 -11.5t-28.5 11.5t-11.5 28.5v17q-1 19 -2 53t0 79l-34 -7q-2 0 -4 -0.5t-4 -0.5q-14 0 -25 9.5t-14 23.5q-4 16 5.5 29.5t25.5 17.5l54 10q1 21 3 42.5t4 43.5q27 250 126 354q63 66 153 68q82 0 143 -61q93 -94 132 -335l35 7
q17 4 30.5 -5t16.5 -26q4 -17 -5.5 -30.5t-25.5 -16.5l-41 -8q6 -54 9 -102.5t3.5 -85t0.5 -59v-24.5q-1 -17 -12 -28t-28 -11h-1q-17 0 -28.5 12t-10.5 29v21t-0.5 55.5t-3 80t-8.5 96.5l-415 -83q-2 -49 -1 -87t1 -58q1 -8 1 -12.5v-7.5zM204 326q-2 -15 -3 -30.5
t-2 -29.5l401 80q-17 107 -44.5 181.5t-65.5 112.5q-37 37 -85 37q-56 -2 -96 -43q-39 -42 -65.5 -119.5t-39.5 -188.5z" />
    <glyph glyph-name="B" unicode="B" horiz-adv-x="794" 
d="M766 244q0 -35 -19 -73q-32 -63 -101.5 -111t-163.5 -71q-71 -17 -140 -17q-17 0 -33.5 1t-32.5 3q-112 13 -199 73q-14 10 -17 26t7 30q9 14 25 17t30 -7q67 -46 157 -58.5t184 10.5q75 19 132 56.5t81 84.5q19 36 2 64q-4 6 -17 17.5t-41.5 21.5t-76 16t-120.5 1
q-18 -2 -28 1q-18 4 -26 14t-10 15q-2 6 -3 18.5t9 27.5q3 5 7.5 9.5l9.5 9.5l44 38q23 17 47.5 38.5t44.5 43.5q36 42 31 63q-5 27 -27.5 41t-44.5 21q-36 10 -83 9t-97.5 -16t-100 -44t-91.5 -73q-11 -12 -28 -12.5t-29 11.5q-12 11 -12 27.5t11 28.5q46 49 103.5 84
t123.5 54q60 18 118 20t107 -12q25 -8 45.5 -18.5t36.5 -25.5q38 -32 47 -79q6 -30 -5 -59t-31.5 -56t-47.5 -51.5t-53 -45.5q59 -1 102 -9.5t73 -22t48.5 -30t29.5 -32.5q22 -32 22 -72zM226 124q-16 0 -27.5 11t-12.5 27l-17 381q-1 17 10 29t28 13t28.5 -10t12.5 -28
l18 -381q1 -17 -10 -29t-28 -13h-2z" />
    <glyph glyph-name="C" unicode="C" horiz-adv-x="696" 
d="M645 315q16 -5 23 -20t2 -31q-24 -69 -67 -127.5t-100 -98.5q-27 -20 -55.5 -33.5t-58.5 -21.5q-20 -6 -39 -8.5t-38 -2.5q-22 0 -43 3q-103 18 -163 110q-64 98 -64 259q0 147 45 248q41 93 116 136q52 31 113 29q58 -2 106 -30q52 -30 80.5 -81t27.5 -111
q0 -17 -11.5 -28.5t-28.5 -11.5h-1q-17 0 -28 12t-11 29q0 38 -18 70t-50 52q-33 19 -70 19t-70 -19q-25 -14 -46 -39t-36 -59q-38 -87 -38 -216q0 -126 42 -201.5t118 -88.5q42 -7 87 6t88 43q47 33 82 81t55 106q6 16 20.5 23t30.5 2z" />
    <glyph glyph-name="D" unicode="D" horiz-adv-x="808" 
d="M585 688q99 -67 148 -179q24 -56 30.5 -113t-5.5 -114q-21 -106 -92 -183q-66 -71 -160 -104q-69 -23 -139 -23q-14 0 -27.5 1t-27.5 3q-104 14 -177 76q-13 11 -14.5 27t9.5 29t27 14.5t29 -9.5q28 -23 62.5 -38t73 -20.5t79 -1.5t79.5 18q79 28 131 87t69 140
q9 45 3.5 91t-24 89t-49 80t-70.5 64q-94 63 -209 54t-233 -87q-14 -10 -30.5 -6.5t-25.5 17.5t-6 30t17 25q147 97 292 102q133 3 240 -69zM267 126q-16 0 -27.5 11t-12.5 27l-15 388q0 17 11 29t28 12q17 1 28.5 -10t12.5 -28l15 -388q1 -17 -10 -28.5t-28 -12.5h-2z" />
    <glyph glyph-name="E" unicode="E" horiz-adv-x="694" 
d="M631 90q17 2 29 -9t14 -28t-9 -29t-28 -14l-508 -38h-3q-15 0 -27 10q-13 12 -13 30v238h-2q-15 0 -26.5 10t-13.5 25q-2 17 8 30t27 15l7 1l1 339q0 15 10 26.5t25 13.5l368 46q17 2 30 -7.5t15 -26.5t-8 -30t-27 -15l-333 -42v-293l351 48q17 2 30 -8t15 -27t-7.5 -30
t-26.5 -15l-363 -49v-206l465 35v0z" />
    <glyph glyph-name="F" unicode="F" horiz-adv-x="675" 
d="M626 390q17 2 29.5 -8.5t14.5 -27.5t-8.5 -29.5t-27.5 -14.5l-461 -50l-1 -248q0 -17 -11.5 -28.5t-28.5 -11.5t-28.5 11.5t-11.5 28.5l1 239h-9q-1 -1 -4 -1q-15 0 -26.5 10t-13.5 26q-2 17 8.5 29.5t27.5 14.5l17 2l1 338q0 16 10.5 27t25.5 13l461 47q16 2 28.5 -8.5
t14.5 -27.5t-8 -29.5t-27 -14.5l-425 -43l-1 -293l453 49v0z" />
    <glyph glyph-name="G" unicode="G" horiz-adv-x="788" 
d="M696 258q-26 -69 -71 -126t-105 -97q-59 -38 -121 -54q-39 -9 -77 -9q-12 0 -24.5 1t-24.5 3q-51 9 -93.5 37.5t-72.5 73.5q-65 97 -65 256q0 147 46 246q43 92 119 136q57 32 122 31.5t122 -33.5q51 -29 78 -76q32 -51 30 -113q0 -17 -11.5 -28t-28.5 -11t-28.5 11.5
t-10.5 28.5q0 38 -18 68.5t-52 50.5q-38 23 -81.5 23t-81.5 -22q-61 -35 -93 -115t-32 -197q0 -136 51 -212q43 -64 114 -76q45 -8 93.5 4.5t95.5 42.5q38 26 70 61.5t55 77.5l-178 -30q-3 -1 -7 -1q-14 0 -25.5 9.5t-14.5 23.5q-2 17 7 30.5t26 16.5l316 54q17 3 30.5 -6.5
t15.5 -26.5q3 -16 -6.5 -29.5t-25.5 -16.5z" />
    <glyph glyph-name="H" unicode="H" horiz-adv-x="808" 
d="M724 412q16 3 29.5 -6t17.5 -25q3 -17 -6 -30.5t-26 -16.5l-66 -13l8 -308q0 -17 -11 -29t-28 -12h-1q-17 0 -28.5 11t-11.5 28l-7 294l-396 -77l6 -215q0 -17 -11 -29t-28 -12h-1q-17 0 -28.5 11t-11.5 28l-5 201l-30 -5q-3 -1 -8 -1q-14 0 -25 9t-14 23q-3 17 6 30.5
t26 16.5l43 9l-11 422q-1 17 10.5 28.5t28.5 12.5q17 0 28.5 -11t12.5 -28l10 -409l395 77l-8 330q0 17 11 28.5t28 12.5q17 0 29 -11t12 -28l8 -316l53 10v0z" />
    <glyph glyph-name="I" unicode="I" horiz-adv-x="442" 
d="M226 656q14 43 39 63.5t51 23.5t48 -9t30.5 -34.5t-0.5 -53t-45 -64.5q-12 -13 -37.5 -35.5t-51.5 -44.5t-45.5 -38t-20.5 -16q-2 0 -17 18t-35 43t-39.5 52.5t-29.5 45.5q-17 31 -17 61t11.5 52t31 33.5t42.5 6.5t45.5 -29.5t39.5 -74.5zM201 396q-17 -1 -28 -12.5
t-11 -28.5l14 -344q0 -17 11.5 -28t28.5 -11h1q17 0 28 12t11 29l-14 344q0 17 -12 28t-29 11z" />
    <glyph glyph-name="J" unicode="J" horiz-adv-x="636" 
d="M545 546q13 -60 25.5 -125t17.5 -128q9 -155 -54 -234q-67 -85 -210 -87h-8q-70 0 -120 17t-79 36q-42 26 -69 59.5t-35 70.5q-11 46 9 84q19 40 67 63q15 8 30.5 2t22.5 -21q8 -15 2 -30.5t-21 -22.5q-41 -19 -32 -57q4 -19 21 -40t45.5 -39t68.5 -30t90 -12h7
q104 1 148 57q26 33 33.5 82t3 105.5t-16.5 116.5t-24 116q-13 56 -22 103t-10 84q0 17 11.5 29t28.5 12t28.5 -11.5t11.5 -28.5q1 -31 10 -75.5t20 -95.5z" />
    <glyph glyph-name="K" unicode="K" horiz-adv-x="803" 
d="M756 84q14 -9 17 -25t-7 -30q-12 -18 -33 -18q-12 0 -22 7l-518 353l12 -358q0 -17 -11 -28.5t-28 -12.5h-1q-17 0 -28.5 11t-11.5 28l-11 330l-9 -6q-10 -7 -22 -7q-21 0 -34 19q-8 14 -4.5 30t17.5 25l49 32l-9 282q0 17 11 28.5t28 12.5t29 -10.5t12 -28.5l8 -234
l419 267q14 8 30.5 4.5t24.5 -17.5q9 -14 5.5 -30t-17.5 -25l-401 -255l505 -344v0z" />
    <glyph glyph-name="L" unicode="L" horiz-adv-x="687" 
d="M642 93q17 2 29 -9t14 -28t-9 -29t-28 -14l-550 -41h-3q-16 0 -27 11q-13 11 -13 29l2 705q0 17 11.5 28.5t28.5 11.5t28.5 -11.5t11.5 -28.5l-2 -662l507 38v0z" />
    <glyph glyph-name="M" unicode="M" horiz-adv-x="836" 
d="M768 595q3 -45 5.5 -105.5t4.5 -136.5q2 -64 3 -125t1.5 -108.5t0.5 -77v-30.5q0 -17 -11.5 -28.5t-28.5 -11.5t-28.5 11.5t-11.5 28.5v27.5t-0.5 72t-1.5 102t-2 118.5q-3 139 -9 229q-12 -37 -27.5 -76t-36.5 -74q-38 -61 -83 -93q-57 -41 -125 -40q-81 2 -140 43
q-51 36 -87 99q-15 26 -26.5 54.5t-19.5 56.5q-2 -41 -4 -90t-3 -106q-2 -60 -3 -117t-1.5 -101t-0.5 -71v-28q0 -17 -11.5 -28.5t-28.5 -11.5t-28.5 11.5t-11.5 28.5v31.5t0.5 79.5t1.5 111t3 127q2 77 5 137.5t7 104.5q2 28 4.5 48.5t5.5 35.5q2 10 4 17t4 13
q8 20 20 26.5t20 7.5q13 1 24.5 -5t19.5 -18q7 -10 11 -24q4 -11 7 -25.5t7 -31.5q9 -42 23 -94.5t41 -99.5q56 -100 158 -101h2q48 0 82.5 30t59 73.5t41 93.5t28.5 91q5 19 9.5 34.5t9.5 27.5q2 5 5.5 13t9.5 15.5t14.5 13.5t20.5 7q19 2 34 -12q9 -8 14 -22t10 -40
q5 -34 9 -88z" />
    <glyph glyph-name="N" unicode="N" horiz-adv-x="832" 
d="M742 726q0 -2 5 -22t11 -54.5t12 -79.5t10 -96q4 -61 3 -115t-8 -101q-18 -123 -74 -194q-35 -45 -83 -67q-50 -25 -116 -25q-102 0 -181 76q-31 31 -58 73.5t-50 97.5q-25 61 -42 126t-29 126q-2 -31 -2.5 -66t-2.5 -73q-2 -61 -2.5 -118.5t-1 -102t-0.5 -72v-27.5
q0 -17 -11.5 -28.5t-28.5 -11.5t-28.5 11.5t-11.5 28.5v31.5t0.5 80t1.5 112.5t3 128q5 156 12 244q2 28 4.5 49t5.5 36q3 20 7 30q8 20 20 26.5t20 7.5q3 0 9 -0.5t13 -3.5t14 -9.5t12 -18.5q4 -10 9 -29q3 -16 6.5 -37t7.5 -47q6 -36 14 -80.5t18.5 -92t24.5 -96t32 -93.5
q82 -198 215 -198q87 0 136 61q39 51 55 140.5t7 214.5q-3 49 -9 92t-12 75.5t-10.5 52l-4.5 19.5q-4 17 4.5 30.5t24.5 18.5q17 4 31 -4.5t18 -25.5z" />
    <glyph glyph-name="O" unicode="O" horiz-adv-x="788" 
d="M632 645q57 -35 88 -102q34 -73 31 -169q-2 -83 -28.5 -154t-76.5 -127q-45 -50 -102.5 -80.5t-121.5 -38.5q-11 -1 -21 -1.5t-20 -0.5q-33 0 -63 6q-54 11 -97 39q-48 30 -81 77t-50 108q-23 81 -18.5 153.5t26.5 134.5t57.5 111.5t76.5 84.5q49 41 97 60q28 10 52.5 11
t44.5 -8q15 -7 21 -22.5t-1 -30.5t-22.5 -21t-30.5 1q-2 1 -11 0.5t-25 -5.5q-17 -7 -35.5 -18.5t-36.5 -27.5q-34 -29 -63.5 -70t-48 -92.5t-22 -112t15.5 -127.5q15 -53 42 -88t60.5 -54.5t70.5 -25.5t72 -1q45 6 90.5 28.5t82.5 63t60.5 97.5t25.5 132q2 73 -18.5 125
t-61.5 76q-28 17 -60 17.5t-60 -15.5q-8 -5 -17 -12.5t-17.5 -19.5t-14 -28.5t-5.5 -38.5q0 -17 -11.5 -28.5t-28.5 -11.5t-28.5 11.5t-11.5 28.5q0 56 26 102q26 41 69 67q47 26 100.5 25t99.5 -28z" />
    <glyph glyph-name="P" unicode="P" horiz-adv-x="738" 
d="M562 742q64 -20 105 -67q36 -42 41 -103t-23 -128q-23 -53 -62 -100.5t-92 -83.5q-29 -20 -61 -36t-66 -28q-72 -23 -148 -29l7 -153q1 -17 -10.5 -29t-28.5 -13h-1q-17 0 -28 11t-12 27l-21 450q-1 17 10 28.5t28 12.5t29 -10t13 -28l10 -216q75 6 135 28.5t104.5 55
t74.5 70.5t45 74q19 45 17.5 84.5t-21.5 62.5q-27 31 -71.5 45t-98.5 9q-38 -4 -82.5 -18.5t-89 -41.5t-86.5 -68.5t-76 -99.5q-8 -14 -24.5 -18t-30.5 4q-14 9 -18 25t4 30q35 59 81 107t101 83q51 32 105 51.5t109 24.5q35 4 68.5 0.5t63.5 -13.5z" />
    <glyph glyph-name="Q" unicode="Q" horiz-adv-x="788" 
d="M345 217q-11 17 -6.5 32.5t17.5 23.5t29 6t27 -19l107 -168q31 18 58 45t47.5 62.5t32.5 79t14 96.5q2 73 -18.5 125t-61.5 76q-28 17 -60 17.5t-60 -15.5q-8 -5 -17 -12.5t-17.5 -19.5t-14 -28.5t-5.5 -38.5q0 -17 -11.5 -28.5t-28.5 -11.5t-28.5 11.5t-11.5 28.5
q0 56 26 102q26 41 69 67q47 26 100.5 25t99.5 -28q57 -35 88 -102q34 -73 31 -169q-2 -83 -28.5 -154t-76.5 -127q-37 -41 -83 -69l101 -158q11 -18 6.5 -33.5t-17.5 -23.5t-29 -6t-27 20l-107 167q-17 -5 -34 -9.5t-34 -6.5q-11 -1 -21 -1.5t-20 -0.5q-33 0 -63 6
q-54 11 -97 39q-48 30 -81 77t-50 108q-23 81 -18.5 153.5t26.5 134.5t57.5 111.5t76.5 84.5q49 41 97 60q28 10 52.5 11t44.5 -8q15 -7 21 -22.5t-1 -30.5t-22.5 -21t-30.5 1q-2 1 -11 0.5t-25 -5.5q-17 -7 -35.5 -18.5t-36.5 -27.5q-34 -29 -63.5 -70t-48 -92.5t-22 -112
t15.5 -127.5q15 -53 42 -88t60.5 -54.5t70.5 -25.5t72 -1q16 1 33 6l-100 157v0z" />
    <glyph glyph-name="R" unicode="R" horiz-adv-x="744" 
d="M572 224q28 -18 52 -38t42 -42q45 -51 45 -99q0 -17 -11.5 -28.5t-28.5 -11.5t-28.5 11.5t-11.5 28.5q0 15 -24.5 46.5t-76.5 63.5q-43 26 -83.5 37.5t-69.5 5.5q-6 -2 -9 -4q-5 -1 -15 -5q-26 -8 -53.5 -14t-56.5 -8l6 -153q1 -17 -10 -29t-28 -13h-2q-16 0 -27.5 11
t-12.5 27l-18 450q-1 17 10 29t28 12q17 1 29 -10t13 -28l9 -216q45 4 86 18q11 5 28 10q37 15 68 35.5t55 44.5t42 50.5t29 52.5q23 49 23.5 94t-20.5 72q-23 29 -60 42.5t-85 9.5q-34 -3 -73.5 -17t-79.5 -41t-78 -68.5t-69 -99.5q-8 -15 -24 -20t-30 3q-15 8 -20 24t3 31
q32 59 74 107.5t93 84.5q47 32 97 51.5t100 24.5q67 5 123 -16.5t92 -66.5q37 -46 37 -116q0 -32 -7.5 -65.5t-22.5 -66.5q-43 -97 -129 -163q40 -13 80 -38z" />
    <glyph glyph-name="S" unicode="S" horiz-adv-x="692" 
d="M560 350q24 -16 41.5 -33.5t30.5 -37.5q29 -47 26 -104q-2 -45 -21.5 -82.5t-55.5 -64.5q-31 -24 -71 -37.5t-87 -17.5q-8 -1 -14.5 -1h-14.5q-56 0 -110.5 14.5t-101.5 41.5q-59 35 -97 85q-22 27 -35.5 58t-20.5 65q-3 17 6 30.5t26 16.5q16 4 29.5 -5.5t16.5 -25.5
q10 -51 41.5 -90t74.5 -64.5t94 -37t100 -7.5q14 1 40 5.5t52.5 18t46.5 37.5t22 64q2 32 -13 57t-49 48q-35 23 -80 40t-92 33q-42 14 -79 28t-69 32q-82 46 -88 115q-9 83 55 144q52 48 136 69q40 10 83.5 12t81.5 -5.5t67.5 -26t42.5 -48.5q6 -15 0 -30t-22 -22
q-15 -6 -30.5 0t-21.5 22q-3 7 -16.5 14.5t-39.5 12.5q-28 5 -60.5 3.5t-64.5 -9.5q-12 -3 -35.5 -11.5t-46 -24t-38 -38t-12.5 -54.5q2 -17 18.5 -32t42 -27.5t57.5 -24.5t65 -23q51 -17 100 -36t90 -46z" />
    <glyph glyph-name="T" unicode="T" horiz-adv-x="757" 
d="M744 721q2 -17 -8.5 -29.5t-26.5 -14.5l-316 -34l-13 -632q-1 -17 -12 -28t-28 -11h-1q-17 0 -28 12t-11 29l13 621l-254 -27q-2 0 -2.5 -0.5t-2.5 -0.5q-15 0 -26.5 10.5t-13.5 25.5q-2 17 8.5 29.5t27.5 14.5l270 30q5 8 14.5 13.5t20.5 5.5q16 0 29 -13l316 35
q17 2 29.5 -8.5t14.5 -27.5z" />
    <glyph glyph-name="U" unicode="U" horiz-adv-x="841" 
d="M740 757q15 -2 25.5 -13t10.5 -26l11 -705q1 -17 -10.5 -29t-28.5 -12h-1q-16 0 -27.5 11t-12.5 28l-7 443q-9 -26 -19.5 -52.5t-22.5 -53.5q-70 -161 -152 -252q-108 -124 -235 -124q-56 0 -99 21q-42 22 -67 60q-85 123 -19 417q11 52 24.5 99t24.5 82t19 56.5t9 23.5
q6 16 21 22.5t31 0.5t22.5 -21t0.5 -31l-7.5 -20.5t-19 -54.5t-24.5 -79.5t-24 -95.5q-13 -59 -19 -110t-7 -94q0 -101 34 -150q31 -46 100 -46q53 0 99.5 30t86 77.5t71.5 105.5t57 114q28 64 49 126t35 110.5t21 78.5t7 31q3 15 15.5 24.5t27.5 7.5z" />
    <glyph glyph-name="V" unicode="V" horiz-adv-x="767" 
d="M697 756q17 -2 27.5 -14.5t8.5 -29.5q0 -3 -3.5 -34.5t-12 -81.5t-21.5 -113.5t-33 -130.5q-25 -80 -54 -143.5t-63 -110.5q-44 -59 -93 -90q-57 -36 -123 -36q-87 0 -151 67q-52 57 -83.5 159.5t-41.5 251.5q-4 54 -4.5 102t0 84.5t2 58.5t1.5 24q2 17 14 27.5t29 9.5
q17 -2 28 -14t9 -29q0 -1 -1.5 -22t-2 -56.5t0 -82t4.5 -97.5q9 -133 35.5 -224.5t68.5 -136.5q39 -42 92 -42q49 0 89 30t71.5 76.5t55 104t40.5 112.5q19 64 32 125.5t20.5 110t11 78.5l3.5 30q2 17 14.5 27.5t29.5 9.5z" />
    <glyph glyph-name="W" unicode="W" horiz-adv-x="1152" 
d="M1097 753q15 -8 20.5 -23.5t-2.5 -30.5l-349 -704q-7 -13 -20 -19t-27 -2t-22.5 16t-6.5 26l1 16.5t2 44t1.5 63.5t-1.5 75q-5 98 -22 166t-45 99q-21 22 -47 22q-24 0 -45.5 -21t-35.5 -43q-40 -61 -75 -173q-15 -48 -26 -94.5t-18.5 -83t-11 -59l-3.5 -22.5
q-2 -14 -11.5 -23t-23.5 -11h-4q-13 0 -23 7.5t-15 19.5l-246 705q-5 16 2 30.5t23 20.5q16 5 31 -2t20 -23l197 -565q7 29 15 60.5t18 63.5q19 60 40 108.5t44 83.5q65 101 148 101q62 0 106 -48q45 -49 67 -145q16 -72 21 -172q1 -6 1 -12.5v-12.5l269 543q8 14 23.5 20
t30.5 -2z" />
    <glyph glyph-name="X" unicode="X" horiz-adv-x="824" 
d="M757 748q14 -11 15.5 -27t-9.5 -29l-284 -349l279 -304q11 -12 10.5 -29t-13.5 -28q-10 -10 -27 -10t-29 13l-271 295l-239 -293q-12 -15 -31 -15q-15 0 -25 9q-14 11 -15.5 27t9.5 29l246 303l-320 350q-11 12 -10.5 28.5t12.5 27.5t29 10.5t28 -12.5l312 -341l277 339
q11 13 27 15t29 -9z" />
    <glyph glyph-name="Y" unicode="Y" horiz-adv-x="722" 
d="M700 747q13 -11 14 -27t-10 -29l-600 -705q-12 -14 -30 -14q-14 0 -26 9q-13 11 -14.5 27.5t9.5 29.5l283 332l-235 281q-11 13 -9.5 29.5t14.5 27.5t29.5 9.5t27.5 -14.5l226 -271l264 311q11 13 27.5 14t29.5 -10z" />
    <glyph glyph-name="Z" unicode="Z" horiz-adv-x="705" 
d="M615 88q16 4 30 -4t19 -25q5 -16 -3.5 -30t-24.5 -19q-2 0 -23 -5.5t-54.5 -11.5t-77 -12t-91.5 -8q-10 -1 -19 -1h-18q-92 0 -158 21q-109 35 -143 122q-25 59 -13 126q10 57 48 117q61 96 188 196q45 35 88.5 65t81.5 53l-294 5q-17 0 -28.5 11.5t-11.5 28.5
q1 17 12.5 28.5t28.5 11.5l443 -7q14 0 24.5 -8.5t13.5 -22.5t-3 -26.5t-18 -18.5q-1 0 -27 -14t-67 -38t-92 -57.5t-102 -73.5q-44 -35 -87 -76.5t-74 -86.5t-43 -91.5t6 -91.5q13 -32 41 -51t64 -28.5t76.5 -12t77.5 -0.5q44 1 85.5 7t73.5 12t51.5 11z" />
    <glyph glyph-name="bracketleft" unicode="[" horiz-adv-x="463" 
d="M229 -256q-103 0 -140 43q-5 6 -11 16.5t-11 29t-10 48t-8 73.5q-5 54 -6 120.5t1 138.5t6 139.5t12 123.5q6 45 12 75t12 49.5t11 31t10 17.5q20 32 78 50q37 12 93 18q22 3 43 4t37 1.5t25.5 0.5h10.5q17 0 28.5 -12t11.5 -29q-1 -17 -12.5 -28t-28.5 -11h-9t-24 -0.5
t-34 -1.5t-40 -3q-36 -4 -58.5 -10t-34.5 -11t-16 -9l-4 -4q-1 -2 -4 -8.5t-7.5 -21.5t-10 -40.5t-10.5 -65.5q-7 -53 -11 -118t-6 -134t-1 -133t5 -116q3 -39 6.5 -63.5t7 -38.5t6 -20t3.5 -7t6.5 -4t19.5 -6t38 -4t63 2q24 2 45.5 5t38 6t27 5l10.5 2q16 4 30 -5t17 -26
q4 -16 -5 -30t-25 -17q-1 0 -12 -2.5t-29 -5.5t-41 -6.5t-48 -5.5q-16 -1 -30 -1.5t-27 -0.5z" />
    <glyph glyph-name="backslash" unicode="\" horiz-adv-x="430" 
d="M27 640q-9 18 -2.5 33t20 21.5t29.5 3t25 -21.5l304 -616q9 -18 2.5 -33t-20 -22t-29.5 -3t-25 22z" />
    <glyph glyph-name="bracketright" unicode="]" horiz-adv-x="463" 
d="M234 -256q-13 0 -27 0.5t-30 1.5q-25 2 -48 5.5t-41 6.5t-29 5.5t-12 2.5q-16 3 -25 17t-5 30q3 17 17 26t30 5l10.5 -2t27 -5t38 -6t45.5 -5q39 -3 63 -2t38 4t19.5 6t6.5 4t3.5 7t6 20t7 38.5t6.5 63.5q4 52 5 116t-1 133t-6 134t-11 118q-5 40 -10.5 65.5t-10 40.5
t-7.5 21.5t-4 8.5l-4 4t-16 9t-34.5 11t-58.5 10q-21 2 -40 3t-34 1.5t-24 0.5h-9q-17 0 -28.5 11t-12.5 28q0 17 11.5 29t28.5 12h10.5t25.5 -0.5t36.5 -1.5t43.5 -4q55 -6 93 -18q58 -18 78 -50q4 -6 9.5 -17.5t11.5 -31t12 -49.5t12 -75q8 -56 12 -123.5t6 -139.5
t1 -138.5t-6 -120.5q-3 -44 -8 -73.5t-10 -48t-11 -29t-11 -16.5q-37 -43 -140 -43z" />
    <glyph glyph-name="asciicircum" unicode="^" horiz-adv-x="460" 
d="M193 665q5 11 14.5 17t20 7t20.5 -4t17 -17l160 -287q10 -18 4 -33t-19 -22t-29 -4t-26 21l-125 225l-125 -225q-10 -18 -26 -21t-29 4t-19 22t4 33z" />
    <glyph glyph-name="underscore" unicode="_" horiz-adv-x="551" 
d="M97 -201q-21 0 -31 12.5t-10 27.5t10 27.5t31 12.5h357q21 0 31 -12.5t10 -27.5t-10 -27.5t-31 -12.5h-357v0z" />
    <glyph glyph-name="grave" unicode="`" horiz-adv-x="232" 
d="M45 606q-16 13 -16.5 29.5t9 28t25.5 14.5t32 -10l92 -70q16 -13 16.5 -29.5t-9 -28t-25.5 -14.5t-32 10l-92 70v0z" />
    <glyph glyph-name="a" unicode="a" horiz-adv-x="426" 
d="M400 73q4 -17 -5 -30.5t-26 -17.5q-16 -3 -29.5 5.5t-17.5 25.5l-17 81l-31 -38q-22 -26 -43.5 -45t-41.5 -31t-36.5 -16.5t-31.5 -4.5q-14 0 -26 3.5t-21 8.5q-42 22 -51 74q-6 40 7 89q12 42 36.5 83.5t57.5 74.5q36 36 76 56q48 22 95 21q17 -1 28 -13t10 -29t-13 -28
t-29 -10q-27 2 -55.5 -12t-54.5 -41q-26 -26 -45.5 -59t-28.5 -65q-8 -26 -6.5 -46t11.5 -25q2 -1 10.5 -2t26.5 10q30 17 64 59q16 19 30 38t24 34.5t16 25.5l6 10q13 23 41 20q12 -2 21 -10.5t12 -21.5z" />
    <glyph glyph-name="b" unicode="b" horiz-adv-x="469" 
d="M358 393q46 -13 66.5 -35.5t27.5 -42.5q24 -66 -14 -132q-40 -66 -131 -116q-41 -23 -87 -38.5t-92 -23.5v-12q1 -17 -10.5 -29t-28.5 -12h-1q-17 0 -28 11t-12 28l-17 725q0 17 11 28.5t28 12.5q17 0 29 -11t12 -28l8 -330q22 5 52.5 9t65.5 6q36 2 66.5 -0.5t54.5 -9.5
zM369 224q20 34 8 63q-1 4 -8 13t-32 16q-35 10 -95 7q-38 -2 -70.5 -7t-50.5 -10l5 -220q75 14 143 51q35 20 60.5 42t39.5 45z" />
    <glyph glyph-name="c" unicode="c" 
d="M355 204q15 -7 20.5 -22.5t-2.5 -30.5q-20 -41 -46.5 -71.5t-58.5 -50.5q-46 -28 -95 -28q-17 0 -33 3q-51 12 -84 54q-32 45 -34 105q-1 46 15 90t48 80q28 33 62 53t67 24q39 5 66.5 -15t35.5 -58q3 -17 -6 -30.5t-25 -16.5q-17 -4 -30.5 5t-16.5 26q-2 6 -4 8.5
t-11 1.5q-14 -2 -36 -14.5t-42 -35.5q-6 -7 -13.5 -18t-14.5 -26t-11 -33t-4 -39q1 -33 15.5 -55t39.5 -27q32 -8 72.5 16t71.5 87q8 15 23.5 20.5t30.5 -2.5z" />
    <glyph glyph-name="d" unicode="d" horiz-adv-x="469" 
d="M381 757q17 0 29 -11t12 -28l16 -725q1 -17 -10.5 -29t-28.5 -12h-1q-16 0 -27.5 11t-12.5 28l-2 109l-29 -24q-41 -32 -84.5 -51t-81.5 -24q-6 -1 -11.5 -1h-10.5q-32 0 -55 10q-40 17 -61 56q-32 63 4 135q18 36 52 70t76.5 62.5t91.5 48t97 27.5q2 1 5 1l-7 306
q0 17 11 28.5t28 12.5zM278 139q29 22 49 46t26 44l-2 100q-38 -7 -77 -23t-73.5 -38.5t-61.5 -49t-40 -53.5q-14 -27 -10.5 -41.5t5.5 -19.5q1 -3 4.5 -7.5t10 -8.5t17 -6.5t26.5 -0.5q28 3 61 18.5t65 39.5z" />
    <glyph glyph-name="e" unicode="e" 
d="M354 204q15 -7 21 -22.5t-2 -30.5q-42 -83 -106 -122q-23 -14 -47 -21t-47 -7q-17 0 -33 3q-51 12 -84 54q-32 45 -34 105q-1 46 15 90t47 80q29 33 63 53t67 24q39 5 66.5 -15t35.5 -58q9 -48 -21 -83q-40 -45 -137 -54q-30 -3 -54 -3q-1 -8 -1.5 -15.5t-0.5 -16.5
q1 -33 15.5 -55t39.5 -27q32 -8 72.5 16t71.5 87q8 15 23.5 20.5t29.5 -2.5zM145 281l-2 -2q6 0 8 1q47 5 64 14t20 12q2 2 3 5t-1 10q-1 5 -2.5 7.5t-7.5 2.5h-4q-15 -2 -36.5 -14.5t-41.5 -35.5z" />
    <glyph glyph-name="f" unicode="f" horiz-adv-x="459" 
d="M403 286q17 2 30 -7.5t16 -26.5q2 -17 -7.5 -30t-26.5 -15l-258 -40q3 -66 7 -108t4 -43q2 -17 -8.5 -29.5t-27.5 -14.5h-4q-15 0 -26.5 10t-13.5 26q0 3 -3.5 43.5t-7.5 103.5l-12 -2q-2 -1 -6 -1q-14 0 -25.5 9.5t-14.5 24.5q-2 17 7.5 30t26.5 16l22 3q-1 23 -1 47v49
q3 149 24 243q31 135 101 168q38 19 67.5 15t47.5 -15q41 -25 66 -82q20 -44 32 -101q5 -25 8.5 -47.5t5.5 -39.5t3 -28t1 -12q1 -17 -10 -28.5t-28 -13.5q-17 -1 -29 10t-13 28l-0.5 10t-2.5 26t-5 36.5t-8 42.5q-8 36 -17 60t-17.5 38.5t-15.5 21.5t-11 10q-4 2 -12.5 4
t-26.5 -7q-5 -3 -12 -9t-15 -19t-16 -34t-15 -52q-10 -44 -15 -100.5t-7 -125.5v-83l249 39v0z" />
    <glyph glyph-name="g" unicode="g" horiz-adv-x="399" 
d="M357 245q0 -2 3 -20.5t6.5 -49t6 -71t2.5 -85.5q0 -252 -97 -344q-37 -34 -81 -44q-11 -2 -22.5 -3.5t-23.5 -1.5q-14 0 -28.5 2t-30.5 5q-16 4 -25 18t-5 30q4 17 18 25.5t30 4.5q72 -16 113 22q38 37 56 117q8 35 12 77.5t4 91.5q0 29 -1.5 56t-3.5 51q-5 -7 -10.5 -14
t-11.5 -14q-44 -52 -85 -76q-39 -23 -68 -21t-47 12q-42 23 -51 74q-6 40 7 89q12 43 36.5 84t57.5 74q36 38 76 57q49 23 95 20q17 -1 28 -13t10 -29q-2 -17 -13.5 -28t-28.5 -10q-55 3 -111 -53q-25 -26 -44.5 -58.5t-28.5 -65.5q-8 -26 -6.5 -45.5t11.5 -24.5
q2 -2 10.5 -3t26.5 10q14 8 30.5 23.5t33.5 35.5q16 19 30 38t24 34.5t16 25.5l6 10q6 11 17.5 16.5t23.5 3.5q28 -5 33 -33z" />
    <glyph glyph-name="h" unicode="h" horiz-adv-x="471" 
d="M385 366q53 -47 70 -134q17 -91 -12 -203q-5 -16 -18.5 -24.5t-30.5 -4.5q-16 5 -24.5 19t-4.5 30q13 47 15.5 89.5t-4.5 78.5q-11 59 -44 89q-33 29 -75 12q-21 -9 -42.5 -31t-40 -59.5t-32.5 -92t-19 -126.5q-2 -16 -13 -26.5t-27 -10.5h-1q-16 0 -27.5 11.5
t-11.5 27.5l-12 705q0 17 11.5 28.5t28.5 12.5q17 0 28.5 -11t11.5 -28l7 -427q46 76 109 101q43 17 83 10q42 -8 75 -36z" />
    <glyph glyph-name="i" unicode="i" horiz-adv-x="177" 
d="M119 333q-1 17 -13 28.5t-29 10.5t-28 -13t-10 -29l12 -293q1 -16 12.5 -27t27.5 -11h2q17 1 28 13t10 29zM88 544q11 33 33 41t37.5 -1t18 -30.5t-25.5 -47.5q-6 -6 -19 -17.5t-26.5 -23t-23.5 -19.5l-10 -8q-1 0 -8.5 9t-18 22t-20.5 27t-15 23q-13 24 -7.5 45.5
t20.5 29.5t33.5 -1.5t31.5 -48.5z" />
    <glyph glyph-name="j" unicode="j" horiz-adv-x="209" 
d="M145 178q-11 57 -19 108.5t-10 86.5q0 17 -12 28t-29 11q-17 -1 -28 -12.5t-11 -28.5q2 -41 10.5 -93t19.5 -115q13 -70 25.5 -146t15.5 -146q3 -74 -7 -125.5t-34 -80.5q-33 -39 -101 -39q-37 0 -68 11.5t-55.5 30t-41 42t-23.5 48.5q-2 8 -3.5 19t0 22.5t7.5 22.5
t19 19q14 8 17.5 24.5t-4.5 30.5q-9 14 -25 17.5t-30 -5.5q-45 -27 -59 -78q-14 -42 2 -94q22 -77 91 -131q37 -29 81 -44t92 -15q106 0 162 68q39 46 52 119q6 30 8 65t0 77q-4 74 -16.5 152.5t-25.5 150.5zM84 576q11 33 33 41t37.5 -1t18 -30.5t-25.5 -47.5
q-6 -6 -19 -17.5t-26.5 -23t-23.5 -19.5l-10 -8q-1 0 -8.5 9t-18 22t-20.5 27t-15 23q-13 24 -7.5 45.5t20.5 29.5t33.5 -1.5t31.5 -48.5z" />
    <glyph glyph-name="k" unicode="k" horiz-adv-x="517" 
d="M492 71q14 -11 16 -27t-8 -29q-12 -16 -32 -16q-13 0 -24 8l-290 222l4 -216q1 -17 -10.5 -29t-28.5 -12h-1q-17 0 -28 11t-12 28l-4 208q-2 -1 -6 -1q-9 0 -18 4.5t-15 12.5q-9 14 -6.5 30t16.5 26l27 19l-7 406q-1 17 10.5 28.5t28.5 12.5q17 0 28.5 -11t12.5 -28
l6 -351l231 164q14 10 30 7.5t25 -16.5q10 -14 7.5 -30t-16.5 -26l-234 -167l298 -228v0z" />
    <glyph glyph-name="l" unicode="l" horiz-adv-x="144" 
d="M64 757q17 0 29 -11t12 -28l14 -705q0 -17 -11 -29t-28 -12h-1q-17 0 -28.5 11t-11.5 28l-14 705q0 17 11 28.5t28 12.5z" />
    <glyph glyph-name="m" unicode="m" horiz-adv-x="742" 
d="M661 338q23 -45 37 -124q5 -32 8 -61.5t4.5 -53.5t2 -39t0.5 -16q0 -17 -11.5 -28.5t-28.5 -11.5t-28.5 11.5t-11.5 28.5l-0.5 14t-2 36t-4 50.5t-7.5 57.5q-11 65 -29 100q-5 8 -12.5 18.5t-16.5 10.5q-21 0 -48.5 -29.5t-55.5 -82.5q-12 -24 -22 -46.5t-17 -40.5
t-11 -29l-4 -11q-4 -13 -14.5 -20.5t-23.5 -7.5q-4 0 -5 1q-15 2 -24.5 12.5t-10.5 24.5l-0.5 9.5t-2.5 24.5t-5 34t-8 39q-10 38 -23.5 60.5t-27.5 22.5q-10 -4 -22 -18q-11 -12 -26 -37t-35 -70q-11 -26 -20.5 -50.5t-16.5 -44t-10.5 -31.5l-3.5 -12q-4 -13 -14.5 -20.5
t-23.5 -7.5h-5q-15 2 -24.5 13t-10.5 25l-13 330q-1 17 10 29t28 13t29 -10.5t13 -28.5l5 -137q68 137 140 137q19 0 43.5 -10t47.5 -43q10 -14 17.5 -32t14.5 -41l5 10q35 64 69 101q51 54 106 54q22 0 49.5 -14t50.5 -59z" />
    <glyph glyph-name="n" unicode="n" horiz-adv-x="439" 
d="M346 351q48 -45 62 -130q6 -43 1 -92t-21 -100q-10 -28 -38 -28q-8 0 -12 2q-16 5 -24 19.5t-3 30.5q28 88 17 156q-8 56 -37 84q-24 23 -54 12q-18 -7 -35 -25.5t-31 -45.5q-18 -37 -30 -87t-17 -110q-2 -16 -13.5 -26.5t-27.5 -9.5q-16 0 -27.5 11t-11.5 27l-13 330
q-1 17 10.5 29t28.5 13t28.5 -10.5t12.5 -28.5l3 -77q39 64 94 85q36 14 74 6q35 -8 64 -35z" />
    <glyph glyph-name="o" unicode="o" horiz-adv-x="404" 
d="M329 369q23 -26 37 -66q15 -44 13 -104q-2 -81 -53 -137q-48 -51 -115 -60q-6 -1 -11.5 -1h-11.5q-45 0 -84 22q-52 32 -70 95q-21 71 3 138q12 35 30.5 58t33.5 36q27 24 53 34q36 14 63 2l1 -1q5 14 18.5 21t28.5 4q5 -1 23.5 -9.5t40.5 -31.5zM299 202q2 48 -8.5 74.5
t-21.5 38.5q-5 5 -8.5 8t-6.5 5q-4 3 -7 4l-9 3v-2q-7 -14 -21 -20.5t-28 -1.5q-7 -1 -23.5 -11.5t-33.5 -32.5q-14 -20 -24 -52t2 -75q6 -19 16 -31t22 -18.5t26 -8.5t27 0q18 2 35 10.5t31 23.5t22.5 36.5t9.5 49.5zM200 209q9 27 27 34t31 -0.5t15 -25.5t-21 -39
q-6 -5 -16.5 -14.5t-21.5 -18.5t-19.5 -16l-8.5 -7q-1 0 -7.5 7.5t-14.5 18t-16.5 22t-12.5 19.5q-11 20 -6 37.5t17 24.5t27.5 -1.5t26.5 -40.5z" />
    <glyph glyph-name="p" unicode="p" horiz-adv-x="464" 
d="M286 410q46 4 84.5 -11.5t63.5 -47.5q26 -34 26 -85q0 -47 -21 -92q-15 -34 -39 -63t-55 -52q-72 -52 -164 -58h-2q-16 0 -27.5 10.5t-12.5 26.5q-2 17 9 29t28 14q38 2 69 14t54.5 30t40.5 39.5t26 42.5q14 29 15 55t-10 40q-17 22 -40 26t-38 2q-20 -2 -43.5 -10
t-47 -24.5t-46 -42t-41.5 -60.5l13 -525q1 -17 -10.5 -29t-28.5 -12h-1q-16 0 -27.5 11t-12.5 28l-18 705q0 17 11 28.5t28 12.5q17 0 29 -11t12 -28l2 -50q20 20 41 35q64 46 133 52z" />
    <glyph glyph-name="q" unicode="q" horiz-adv-x="403" 
d="M315 -54q15 7 30.5 1t22.5 -21t1 -30.5t-22 -22.5q-24 -10 -47 -10q-15 0 -27 3.5t-21 8.5q-45 26 -67 98q-3 8 -4.5 14.5t-3.5 13.5q-43 0 -81 22q-52 32 -70 95q-21 71 3 138q12 35 30.5 57.5t33.5 36.5q27 24 53 34q34 13 63 2l1 -1q5 14 18.5 21t28.5 4
q5 -2 23.5 -10t40.5 -31q23 -26 37 -66q15 -44 13 -104q-2 -81 -53 -137q-14 -14 -29.5 -25.5t-33.5 -19.5l6 -21q9 -28 18 -38.5t13 -12.5q2 -2 7 -3t16 4zM103 140q11 -38 37.5 -50t52.5 -8q18 2 35 10.5t31 23.5t22.5 36t9.5 49q2 49 -8.5 75.5t-21.5 38.5q-5 5 -8.5 8
t-6.5 5q-4 3 -7 4q-2 0 -4.5 1t-4.5 2v-2q-7 -14 -21 -20.5t-28 -1.5q-7 -2 -23.5 -12t-33.5 -33q-14 -20 -24 -51.5t3 -74.5z" />
    <glyph glyph-name="r" unicode="r" horiz-adv-x="418" 
d="M360 339q42 -48 52 -124q2 -16 -8 -29t-27 -15q-2 -1 -5 -1q-15 0 -26.5 10t-13.5 25q-6 46 -26.5 75t-47.5 29h-1q-39 -2 -73 -56q-17 -26 -34.5 -76.5t-25.5 -138.5q-1 -16 -12.5 -26.5t-26.5 -10.5h-1q-16 0 -27.5 11t-11.5 27l-13 330q-1 17 10 29t28 13t29 -10.5
t13 -28.5l3 -78q0 1 1 2q28 45 64 68t75 25q29 0 56.5 -12.5t48.5 -37.5z" />
    <glyph glyph-name="s" unicode="s" horiz-adv-x="400" 
d="M319 219q19 -12 30.5 -25t17.5 -26t8 -26t1 -23q-2 -55 -51 -87q-37 -23 -91 -29q-9 -1 -18.5 -1.5t-19.5 -0.5q-22 0 -43.5 2.5t-41.5 7.5q-76 20 -88 66q-5 16 3.5 30t24.5 19q15 5 28.5 -2.5t19.5 -21.5q5 -4 20 -9.5t43 -9.5t54.5 -2t46.5 10q12 4 19 9t10 9.5t3.5 8
t0.5 5.5q1 10 -6 18t-20.5 15t-31.5 13.5t-40 13.5q-21 7 -39.5 14t-35.5 16q-49 25 -54 70q-5 42 23 74t81 46q45 12 87 6q57 -9 74 -48q7 -15 0.5 -30.5t-21.5 -22.5q-14 -6 -28.5 -1t-22.5 19q-3 2 -12.5 4t-23.5 1q-16 -1 -31.5 -5t-27.5 -10q-14 -8 -16.5 -14.5
t-2.5 -9.5q2 -1 5.5 -4.5t14.5 -8.5t25 -10t30 -10q25 -8 50 -17t46 -23z" />
    <glyph glyph-name="t" unicode="t" horiz-adv-x="440" 
d="M389 495q17 2 30 -7.5t16 -26.5q2 -17 -7.5 -30t-26.5 -15l-138 -21l11 -382q0 -17 -11.5 -29t-28.5 -12t-28.5 11t-11.5 28l-11 372l-132 -19q-2 0 -3 -0.5t-3 -0.5q-15 0 -26.5 10t-13.5 25q-2 16 7.5 29.5t26.5 15.5l143 21l-2 252q0 17 11 28.5t28 12.5q17 0 29 -11
t12 -28l2 -242l127 19v0z" />
    <glyph glyph-name="u" unicode="u" horiz-adv-x="438" 
d="M409 69q2 -17 -8.5 -29.5t-27.5 -14.5t-29.5 9t-14.5 28l-12 128v-2q-37 -78 -72 -122q-53 -65 -111 -65h-3q-47 2 -74 38q-40 56 -22 189q7 46 15 79.5t9 35.5q5 16 19 24t30 3t24.5 -19t3.5 -30q-1 -1 -8.5 -32t-13.5 -73q-5 -35 -5 -58.5t2 -38.5t5.5 -22.5t5.5 -9.5
q3 -6 11 -6q10 -1 23 8.5t27 26.5q29 36 61 105q14 29 24 58t18 52q9 26 16 50q4 14 16 22.5t26 7.5q14 -2 24.5 -12t12.5 -24z" />
    <glyph glyph-name="v" unicode="v" 
d="M175 2q-3 0 -6 -0.5t-7 -0.5q-34 0 -61 24q-52 46 -71 185q-3 24 -4.5 46t-2.5 38.5t-1 26.5v11q0 17 11.5 28.5t28.5 11.5t28.5 -11.5t11.5 -28.5q0 -16 1 -34q1 -16 2.5 -36t4.5 -42q5 -38 11.5 -63t13 -40t11.5 -22.5t8 -9.5q6 -5 11 -3q17 2 42 34.5t51 108.5
q10 29 17 56.5t12 48.5t7.5 34.5l2.5 13.5q3 17 16 26.5t30 6.5t26.5 -16.5t6.5 -29.5q0 -2 -3 -16t-8 -37t-13 -52.5t-19 -60.5q-26 -76 -56 -121q-46 -69 -102 -76z" />
    <glyph glyph-name="w" unicode="w" horiz-adv-x="625" 
d="M581 406q15 -8 20 -23.5t-3 -30.5l-175 -330q-7 -12 -19.5 -17.5t-26.5 -2.5q-14 4 -22 15t-7 25q0 7 -1 19t-4 26t-8 27.5t-14 22.5q-10 11 -28 11q-17 0 -29.5 -14.5t-20.5 -33t-12.5 -37t-5.5 -27.5q-2 -14 -11.5 -23.5t-22.5 -11.5h-6q-26 0 -37 24l-122 291
q-7 16 -1 31t22 22q15 6 30.5 0t21.5 -22l82 -193q13 23 30 40q36 34 82 34q51 0 86 -35q14 -15 25 -36l123 233q8 14 24 19t30 -3z" />
    <glyph glyph-name="x" unicode="x" horiz-adv-x="431" 
d="M383 403q13 -11 15 -27t-9 -29l-127 -158l122 -118q12 -12 12 -28.5t-11 -28.5q-12 -12 -29 -12q-15 0 -28 11l-116 113l-88 -109q-12 -15 -31 -15q-15 0 -25 9q-13 11 -15 27t9 29l93 115l-125 121q-12 12 -12 28.5t11 28.5q12 12 28.5 12t28.5 -11l119 -116l122 152
q11 13 27 15t29 -9z" />
    <glyph glyph-name="y" unicode="y" horiz-adv-x="461" 
d="M430 408q15 -8 20.5 -23.5t-2.5 -30.5l-350 -705q-11 -22 -36 -22q-10 0 -17 4q-15 8 -20.5 23.5t2.5 30.5l168 340l-1 2l-140 287q-7 15 -1.5 30.5t20.5 23.5q15 7 30.5 1.5t22.5 -20.5l114 -234l137 275q7 14 22.5 19.5t30.5 -1.5z" />
    <glyph glyph-name="z" unicode="z" horiz-adv-x="415" 
d="M335 98q17 4 30.5 -4.5t18.5 -24.5q4 -16 -4.5 -30t-24.5 -19q-1 0 -11.5 -2.5t-28 -5.5t-40 -6t-47.5 -4h-19q-50 0 -84 10q-39 12 -58 32t-27 37q-10 23 -9.5 57t29.5 78q31 47 99 97l24 18l-75 1q-17 0 -28.5 11.5t-11.5 28.5q1 17 12.5 28.5t28.5 11.5l221 -3
q14 -1 25 -9.5t14 -22.5t-3.5 -26.5t-19.5 -18.5q-22 -11 -46 -24q-20 -11 -45 -26.5t-50 -33.5q-55 -42 -79 -77q-9 -13 -12 -22.5t-3.5 -17t1 -12t2.5 -6.5q7 -17 35.5 -25t74.5 -6q21 1 41 3.5t36 5.5q18 4 34 7z" />
    <glyph glyph-name="braceleft" unicode="{" horiz-adv-x="312" 
d="M160 -256q-46 0 -74 16q-35 20 -44 57q-9 36 4 75t32 81q7 16 14.5 33.5t12.5 33.5t6.5 29.5t-2.5 22.5l-14 10q-9 7 -18.5 14t-17.5 15q-5 5 -16.5 19.5t-10.5 37.5q1 24 13.5 42t26.5 33q10 12 18 22t11.5 21t1.5 24t-11 30q-40 74 -38 148q2 68 35 123
q26 44 64.5 68.5t79.5 23.5q17 0 28 -11.5t11 -28.5t-12 -28.5t-29 -11.5q-19 0 -39.5 -14.5t-34.5 -38.5q-6 -10 -13 -27.5t-9.5 -42.5t3 -55.5t24.5 -65.5q34 -62 16 -118q-8 -23 -21 -40t-25 -31q-5 -5 -10 -10.5t-8 -10.5q5 -5 13.5 -11t13.5 -11q11 -8 20 -15t15 -16
q25 -40 10 -103q-6 -23 -15 -46t-20 -46q-6 -14 -12.5 -29t-11.5 -29.5t-7.5 -26.5t-0.5 -20q2 -4 6 -6q3 -2 18 -5.5t49 1.5q11 2 19.5 3.5t15.5 3.5q8 2 15 4q16 5 30.5 -2.5t19.5 -23.5t-2.5 -30.5t-23.5 -19.5q-1 -1 -18.5 -5.5t-43.5 -8.5q-24 -3 -44 -3z" />
    <glyph glyph-name="bar" unicode="|" horiz-adv-x="634" 
d="M329 3q-46 0 -91 12.5t-85 38.5q-62 38 -93.5 96.5t-27.5 126.5q2 17 13.5 28t28.5 9q17 -1 28 -13t10 -29q-2 -31 6 -55.5t21 -43t28.5 -31.5t28.5 -21q30 -19 64 -28.5t69 -9.5q57 0 102 25q47 26 70.5 74t23.5 116q0 17 11.5 28.5t28.5 11.5t28.5 -11.5t11.5 -28.5
q0 -94 -37 -161q-34 -64 -98 -99t-141 -35zM473 485q0 -19 -13 -32t-32 -13t-32 13t-13 32t13 32t32 13t32 -13t13 -32zM233 485q0 -19 -13 -32t-32 -13t-32 13t-13 32t13 32t32 13t32 -13t13 -32z" />
    <glyph glyph-name="braceright" unicode="}" horiz-adv-x="311" 
d="M152 -256q-20 0 -44 3q-26 4 -43.5 8.5t-18.5 5.5q-16 5 -23.5 19.5t-2.5 30.5t19.5 23.5t30.5 2.5q6 -2 14 -4q7 -2 16 -3.5t20 -3.5q34 -5 49 -1.5t18 5.5q4 2 6 6q2 8 -0.5 20t-7.5 26.5t-11.5 29.5t-12.5 29q-11 23 -20 46t-15 46q-15 63 10 103q6 9 15 16t20 15
q5 5 13.5 11t13.5 11q-3 5 -8 10.5t-10 10.5q-12 14 -25 31t-21 40q-18 56 16 118q19 35 24.5 65.5t3 55.5t-9.5 42.5t-13 27.5q-14 24 -34.5 38.5t-39.5 14.5q-17 0 -29 11.5t-12 28.5t11 28.5t28 11.5q41 1 79.5 -23.5t64.5 -68.5q33 -55 35 -123q2 -74 -38 -148
q-9 -17 -11 -30t1.5 -24t11 -21t18.5 -22q14 -15 26.5 -33t13.5 -42q1 -23 -10.5 -37.5t-16.5 -19.5q-8 -8 -17.5 -15t-18.5 -14l-14 -10q-4 -9 -2.5 -22.5t6.5 -29.5t12.5 -33.5t14.5 -33.5q19 -42 32 -81t4 -75q-9 -37 -44 -57q-28 -16 -74 -16z" />
    <glyph glyph-name="asciitilde" unicode="~" horiz-adv-x="641" 
d="M476 133q-37 0 -80 16q-30 11 -56.5 35.5t-53.5 48t-56 38t-62 5.5q-18 -5 -30 -15.5t-19.5 -24t-11.5 -29t-6 -30.5q-2 -17 -15 -26.5t-30 -7.5t-26.5 15t-7.5 29q7 67 42 111q33 42 83 56q27 7 55.5 5t57.5 -13q25 -11 44.5 -27.5t37.5 -34.5t37.5 -34t45.5 -26
q21 -8 41 -10t35 3q41 14 41 83q0 17 11.5 28.5t28.5 11.5t28.5 -11.5t11.5 -28.5q0 -62 -25 -103q-25 -40 -70 -56q-26 -8 -51 -8z" />
    <glyph glyph-name="exclamdown" unicode="&#xa1;" horiz-adv-x="126" 
d="M72 -256q-17 0 -29 11t-12 28l-14 485q0 17 11 29t28 12h1q17 0 28.5 -11t11.5 -28l14 -485q0 -17 -11 -28.5t-28 -12.5zM13 455q0 19 13 32t32 13t32 -13t13 -32t-13 -32t-32 -13t-32 13t-13 32z" />
    <glyph glyph-name="sterling" unicode="&#xa3;" horiz-adv-x="625" 
d="M602 33q0 -17 -11 -29t-28 -12l-387 -14h-1q-16 0 -27 11q-13 13 -13 29l-0.5 20.5t-0.5 54v78v92.5q-32 -2 -50 -3.5t-19 -1.5h-3q-16 0 -27.5 10.5t-12.5 26.5q-2 17 8.5 29t27.5 14q1 0 21.5 1.5t55.5 4.5q4 199 20 267q7 29 17 52.5t24 40.5q29 37 68 50
q78 27 189 -27q38 -19 63.5 -36.5t26.5 -19.5q13 -10 15 -26.5t-8 -29.5q-11 -13 -27 -15t-29 8q-1 1 -23 16.5t-55 31.5q-79 38 -125 23q-42 -15 -58 -86q-4 -16 -6.5 -41t-5 -57t-4 -69t-2.5 -76q40 3 84 6t88.5 6t86 5t76.5 3q17 1 29 -10t13 -28q0 -17 -11 -29t-28 -13
q-35 -1 -77.5 -3.5t-87.5 -5t-89.5 -5.5t-84.5 -6q-1 -60 -0.5 -114t0.5 -96l346 11q17 1 29 -10t13 -28z" />
    <glyph glyph-name="dieresis" unicode="&#xa8;" horiz-adv-x="275" 
d="M102 589q0 -19 -13 -32t-32 -13t-32 13t-13 32t13 32t32 13t32 -13t13 -32zM262 589q0 -19 -13 -32t-32 -13t-32 13t-13 32t13 32t32 13t32 -13t13 -32z" />
    <glyph glyph-name="macron" unicode="&#xaf;" horiz-adv-x="345" 
d="M64 563q-21 0 -31 12.5t-10 27.5t10 27.5t31 12.5h217q21 0 31 -12.5t10 -27.5t-10 -27.5t-31 -12.5h-217v0z" />
    <glyph glyph-name="acute" unicode="&#xb4;" horiz-adv-x="232" 
d="M95 536q-16 -13 -32 -10t-25.5 14.5t-9 28t16.5 29.5l92 70q16 13 32 10t25.5 -14.5t9 -28t-16.5 -29.5z" />
    <glyph glyph-name="cedilla" unicode="&#xb8;" horiz-adv-x="257" 
d="M89 -262q-20 0 -41 3q-17 3 -26.5 16t-7.5 30q3 17 16 26.5t30 6.5q41 -6 69 5q20 6 28 21q11 17 1 30q-16 20 -62 9q-21 -5 -38 10q-7 8 -10 17.5t0 20.5l27 116q4 16 17.5 25t30.5 5q16 -4 24.5 -18t4.5 -30l-14 -63q6 0 12 -1t11 -3q39 -9 61 -40q19 -26 20 -58
t-16 -61q-23 -38 -69 -55q-30 -12 -68 -12z" />
    <glyph glyph-name="questiondown" unicode="&#xbf;" horiz-adv-x="500" 
d="M308 339q18 0 29 -14q11 -12 10.5 -28.5t-12.5 -27.5q-88 -79 -145.5 -151t-82.5 -132q-6 -15 -11 -32.5t-6 -35t3 -34.5t16 -30q18 -21 52.5 -30.5t77.5 -4.5q49 5 97 26.5t88 55.5q13 11 29.5 9.5t27.5 -13.5q11 -13 9.5 -29.5t-14.5 -27.5q-25 -22 -53 -39t-58 -30
q-60 -26 -118 -32q-63 -6 -114.5 10t-83.5 52q-34 39 -39 95q-4 54 23 121q58 140 248 311q13 11 27 11zM262 453q0 19 13 32t32 13t32 -13t13 -32t-13 -32t-32 -13t-32 13t-13 32z" />
    <glyph glyph-name="Agrave" unicode="&#xc0;" horiz-adv-x="797" 
d="M196 18q0 -17 -11.5 -28.5t-28.5 -11.5t-28.5 11.5t-11.5 28.5v17q-1 19 -2 53t0 79l-34 -7q-2 0 -4 -0.5t-4 -0.5q-14 0 -25 9.5t-14 23.5q-4 16 5.5 29.5t25.5 17.5l54 10q1 21 3 42.5t4 43.5q27 250 126 354q63 66 153 68q82 0 143 -61q93 -94 132 -335l35 7
q17 4 30.5 -5t16.5 -26q4 -17 -5.5 -30.5t-25.5 -16.5l-41 -8q6 -54 9 -102.5t3.5 -85t0.5 -59v-24.5q-1 -17 -12 -28t-28 -11h-1q-17 0 -28.5 12t-10.5 29v21t-0.5 55.5t-3 80t-8.5 96.5l-415 -83q-2 -49 -1 -87t1 -58q1 -8 1 -12.5v-7.5zM204 326q-2 -15 -3 -30.5
t-2 -29.5l401 80q-17 107 -44.5 181.5t-65.5 112.5q-37 37 -85 37q-56 -2 -96 -43q-39 -42 -65.5 -119.5t-39.5 -188.5zM297 906q-16 13 -16.5 29.5t9 28t25.5 14.5t32 -10l92 -70q16 -13 16.5 -29.5t-9 -28t-25.5 -14.5t-32 10z" />
    <glyph glyph-name="Aacute" unicode="&#xc1;" horiz-adv-x="797" 
d="M196 18q0 -17 -11.5 -28.5t-28.5 -11.5t-28.5 11.5t-11.5 28.5v17q-1 19 -2 53t0 79l-34 -7q-2 0 -4 -0.5t-4 -0.5q-14 0 -25 9.5t-14 23.5q-4 16 5.5 29.5t25.5 17.5l54 10q1 21 3 42.5t4 43.5q27 250 126 354q63 66 153 68q82 0 143 -61q93 -94 132 -335l35 7
q17 4 30.5 -5t16.5 -26q4 -17 -5.5 -30.5t-25.5 -16.5l-41 -8q6 -54 9 -102.5t3.5 -85t0.5 -59v-24.5q-1 -17 -12 -28t-28 -11h-1q-17 0 -28.5 12t-10.5 29v21t-0.5 55.5t-3 80t-8.5 96.5l-415 -83q-2 -49 -1 -87t1 -58q1 -8 1 -12.5v-7.5zM204 326q-2 -15 -3 -30.5
t-2 -29.5l401 80q-17 107 -44.5 181.5t-65.5 112.5q-37 37 -85 37q-56 -2 -96 -43q-39 -42 -65.5 -119.5t-39.5 -188.5zM407 836q-16 -13 -32 -10t-25.5 14.5t-9 28t16.5 29.5l92 70q16 13 32 10t25.5 -14.5t9 -28t-16.5 -29.5z" />
    <glyph glyph-name="Acircumflex" unicode="&#xc2;" horiz-adv-x="797" 
d="M196 18q0 -17 -11.5 -28.5t-28.5 -11.5t-28.5 11.5t-11.5 28.5v17q-1 19 -2 53t0 79l-34 -7q-2 0 -4 -0.5t-4 -0.5q-14 0 -25 9.5t-14 23.5q-4 16 5.5 29.5t25.5 17.5l54 10q1 21 3 42.5t4 43.5q27 250 126 354q63 66 153 68q82 0 143 -61q93 -94 132 -335l35 7
q17 4 30.5 -5t16.5 -26q4 -17 -5.5 -30.5t-25.5 -16.5l-41 -8q6 -54 9 -102.5t3.5 -85t0.5 -59v-24.5q-1 -17 -12 -28t-28 -11h-1q-17 0 -28.5 12t-10.5 29v21t-0.5 55.5t-3 80t-8.5 96.5l-415 -83q-2 -49 -1 -87t1 -58q1 -8 1 -12.5v-7.5zM204 326q-2 -15 -3 -30.5
t-2 -29.5l401 80q-17 107 -44.5 181.5t-65.5 112.5q-37 37 -85 37q-56 -2 -96 -43q-39 -42 -65.5 -119.5t-39.5 -188.5zM368 971q9 8 15.5 11t14.5 3q6 0 13 -3t17 -11l73 -65q14 -15 12 -31.5t-12.5 -27t-27 -11.5t-30.5 14l-45 40l-45 -40q-14 -15 -30.5 -14t-27 11.5
t-12.5 27t12 31.5z" />
    <glyph glyph-name="Atilde" unicode="&#xc3;" horiz-adv-x="797" 
d="M196 18v7.5t-1 12.5q0 20 -1 58t1 87l415 83q6 -51 8.5 -96.5t3 -80t0.5 -55.5v-21q-1 -17 10.5 -29t28.5 -12h1q17 0 28 11t12 28v24.5t-0.5 59t-3.5 85t-9 102.5l41 8q16 3 25.5 16.5t5.5 30.5q-3 17 -16.5 26t-30.5 5l-35 -7q-39 241 -132 335q-61 61 -143 61
q-90 -2 -153 -68q-99 -104 -126 -354q-2 -22 -4 -43.5t-3 -42.5l-54 -10q-16 -4 -25.5 -17.5t-5.5 -29.5q3 -14 14 -23.5t25 -9.5q2 0 4 0.5t4 0.5l34 7q-1 -45 0 -79t2 -53v-17q0 -17 11.5 -28.5t28.5 -11.5t28.5 11.5t11.5 28.5zM204 326q13 111 39.5 188.5t65.5 119.5
q40 41 96 43q48 0 85 -37q38 -38 65.5 -112.5t44.5 -181.5l-401 -80q1 14 2 29.5t3 30.5zM476 822q-16 0 -28 4.5t-18 7.5q-15 6 -30.5 15.5t-30.5 18.5q-11 7 -20.5 13t-17.5 11q-3 1 -5 2l-4 2q-1 -4 -1 -9.5v-13.5q1 -17 -10 -28.5t-28 -12.5t-29 10t-13 28
q0 12 0.5 26.5t4 28.5t11.5 26t22 20q12 7 23.5 8t22 -0.5t18.5 -4.5t12 -5q14 -7 28.5 -15.5t28.5 -17.5l22 -14t21 -12l16 -7q2 4 3 11t1 18q1 17 12.5 28.5t28.5 10.5t28.5 -12.5t10.5 -28.5q0 -7 -1 -20.5t-5.5 -28t-13.5 -28.5t-25 -22q-17 -9 -34 -9z" />
    <glyph glyph-name="Adieresis" unicode="&#xc4;" horiz-adv-x="797" 
d="M196 18q0 -17 -11.5 -28.5t-28.5 -11.5t-28.5 11.5t-11.5 28.5v17q-1 19 -2 53t0 79l-34 -7q-2 0 -4 -0.5t-4 -0.5q-14 0 -25 9.5t-14 23.5q-4 16 5.5 29.5t25.5 17.5l54 10q1 21 3 42.5t4 43.5q27 250 126 354q63 66 153 68q82 0 143 -61q93 -94 132 -335l35 7
q17 4 30.5 -5t16.5 -26q4 -17 -5.5 -30.5t-25.5 -16.5l-41 -8q6 -54 9 -102.5t3.5 -85t0.5 -59v-24.5q-1 -17 -12 -28t-28 -11h-1q-17 0 -28.5 12t-10.5 29v21t-0.5 55.5t-3 80t-8.5 96.5l-415 -83q-2 -49 -1 -87t1 -58q1 -8 1 -12.5v-7.5zM204 326q-2 -15 -3 -30.5
t-2 -29.5l401 80q-17 107 -44.5 181.5t-65.5 112.5q-37 37 -85 37q-56 -2 -96 -43q-39 -42 -65.5 -119.5t-39.5 -188.5zM363 889q0 -19 -13 -32t-32 -13t-32 13t-13 32t13 32t32 13t32 -13t13 -32zM523 889q0 -19 -13 -32t-32 -13t-32 13t-13 32t13 32t32 13t32 -13t13 -32z
" />
    <glyph glyph-name="Aring" unicode="&#xc5;" horiz-adv-x="797" 
d="M196 18v7.5t-1 12.5q0 20 -1 58t1 87l415 83q6 -51 8.5 -96.5t3 -80t0.5 -55.5v-21q-1 -17 10.5 -29t28.5 -12h1q17 0 28 11t12 28v24.5t-0.5 59t-3.5 85t-9 102.5l41 8q16 3 25.5 16.5t5.5 30.5q-3 17 -16.5 26t-30.5 5l-35 -7q-39 241 -132 335q-61 61 -143 61
q-90 -2 -153 -68q-99 -104 -126 -354q-2 -22 -4 -43.5t-3 -42.5l-54 -10q-16 -4 -25.5 -17.5t-5.5 -29.5q3 -14 14 -23.5t25 -9.5q2 0 4 0.5t4 0.5l34 7q-1 -45 0 -79t2 -53v-17q0 -17 11.5 -28.5t28.5 -11.5t28.5 11.5t11.5 28.5zM204 326q13 111 39.5 188.5t65.5 119.5
q40 41 96 43q48 0 85 -37q38 -38 65.5 -112.5t44.5 -181.5l-401 -80q1 14 2 29.5t3 30.5zM388 771q-40 0 -68 28t-28 69q0 40 28 68t68 28q39 0 69 -28q28 -28 28 -68q0 -41 -28 -69q-30 -28 -69 -28zM388 904q-15 0 -25.5 -10.5t-10.5 -25.5q0 -16 10.5 -26.5t25.5 -10.5
q16 0 26.5 10.5t10.5 26.5q0 15 -10.5 25.5t-26.5 10.5z" />
    <glyph glyph-name="AE" unicode="&#xc6;" horiz-adv-x="1231" 
d="M1168 90q17 2 29 -9t14 -28t-9 -29t-28 -14l-508 -38h-3q-15 0 -27 10q-13 12 -13 30v238h-2q-17 0 -29 12l-397 -79q-2 -49 -1 -87t1 -58q1 -8 1 -12.5v-7.5q0 -17 -11.5 -28.5t-28.5 -11.5t-28.5 11.5t-11.5 28.5v17q-1 19 -2 53t0 79l-34 -7q-2 0 -4 -0.5t-4 -0.5
q-14 0 -25 9.5t-14 23.5q-4 16 5.5 29.5t25.5 17.5l54 10q1 21 3 42.5t4 43.5q27 250 126 354q63 66 153 68q82 0 143 -61q45 -46 76 -125l1 99q0 15 10 26.5t25 13.5l368 46q17 2 30 -7.5t15 -26.5t-8 -30t-27 -15l-333 -42v-293l351 48q17 2 30 -8t15 -27t-7.5 -30
t-26.5 -15l-363 -49v-206zM204 326q-2 -15 -3 -30.5t-2 -29.5l401 80q-17 107 -44.5 181.5t-65.5 112.5q-37 37 -85 37q-56 -2 -96 -43q-39 -42 -65.5 -119.5t-39.5 -188.5z" />
    <glyph glyph-name="Ccedilla" unicode="&#xc7;" horiz-adv-x="696" 
d="M645 315q16 -5 23 -20t2 -31q-24 -69 -67 -127.5t-100 -98.5q-27 -20 -55.5 -33.5t-58.5 -21.5q-8 -2 -15 -3.5t-15 -3.5l-3 -8q6 0 12 -1t11 -3q39 -9 61 -40q19 -26 20 -58t-16 -61q-23 -38 -69 -55q-30 -12 -68 -12q-20 0 -41 3q-17 3 -26.5 16t-7.5 30q3 17 16 26.5
t30 6.5q41 -6 69 5q20 6 28 21q11 17 1 30q-16 20 -62 9q-21 -5 -38 10q-7 8 -10 17.5t0 20.5l12 41q-2 0 -4.5 0.5t-4.5 0.5q-103 18 -163 110q-64 98 -64 259q0 147 45 248q41 93 116 136q52 31 113 29q58 -2 106 -30q52 -30 80.5 -81t27.5 -111q0 -17 -11.5 -28.5
t-28.5 -11.5h-1q-17 0 -28 12t-11 29q0 38 -18 70t-50 52q-33 19 -70 19t-70 -19q-25 -14 -46 -39t-36 -59q-38 -87 -38 -216q0 -126 42 -201.5t118 -88.5q42 -7 87 6t88 43q47 33 82 81t55 106q6 16 20.5 23t30.5 2z" />
    <glyph glyph-name="Egrave" unicode="&#xc8;" horiz-adv-x="694" 
d="M631 90q17 2 29 -9t14 -28t-9 -29t-28 -14l-508 -38h-3q-15 0 -27 10q-13 12 -13 30v238h-2q-15 0 -26.5 10t-13.5 25q-2 17 8 30t27 15l7 1l1 339q0 15 10 26.5t25 13.5l368 46q17 2 30 -7.5t15 -26.5t-8 -30t-27 -15l-333 -42v-293l351 48q17 2 30 -8t15 -27t-7.5 -30
t-26.5 -15l-363 -49v-206zM226 906q-16 13 -16.5 29.5t9 28t25.5 14.5t32 -10l92 -70q16 -13 16.5 -29.5t-9 -28t-25.5 -14.5t-32 10z" />
    <glyph glyph-name="Eacute" unicode="&#xc9;" horiz-adv-x="694" 
d="M631 90q17 2 29 -9t14 -28t-9 -29t-28 -14l-508 -38h-3q-15 0 -27 10q-13 12 -13 30v238h-2q-15 0 -26.5 10t-13.5 25q-2 17 8 30t27 15l7 1l1 339q0 15 10 26.5t25 13.5l368 46q17 2 30 -7.5t15 -26.5t-8 -30t-27 -15l-333 -42v-293l351 48q17 2 30 -8t15 -27t-7.5 -30
t-26.5 -15l-363 -49v-206zM316 836q-16 -13 -32 -10t-25.5 14.5t-9 28t16.5 29.5l92 70q16 13 32 10t25.5 -14.5t9 -28t-16.5 -29.5z" />
    <glyph glyph-name="Ecircumflex" unicode="&#xca;" horiz-adv-x="694" 
d="M631 90q17 2 29 -9t14 -28t-9 -29t-28 -14l-508 -38h-3q-15 0 -27 10q-13 12 -13 30v238h-2q-15 0 -26.5 10t-13.5 25q-2 17 8 30t27 15l7 1l1 339q0 15 10 26.5t25 13.5l368 46q17 2 30 -7.5t15 -26.5t-8 -30t-27 -15l-333 -42v-293l351 48q17 2 30 -8t15 -27t-7.5 -30
t-26.5 -15l-363 -49v-206zM287 971q9 8 15.5 11t14.5 3q6 0 13 -3t17 -11l73 -65q14 -15 12 -31.5t-12.5 -27t-27 -11.5t-30.5 14l-45 40l-45 -40q-14 -15 -30.5 -14t-27 11.5t-12.5 27t12 31.5z" />
    <glyph glyph-name="Edieresis" unicode="&#xcb;" horiz-adv-x="694" 
d="M631 90q17 2 29 -9t14 -28t-9 -29t-28 -14l-508 -38h-3q-15 0 -27 10q-13 12 -13 30v238h-2q-15 0 -26.5 10t-13.5 25q-2 17 8 30t27 15l7 1l1 339q0 15 10 26.5t25 13.5l368 46q17 2 30 -7.5t15 -26.5t-8 -30t-27 -15l-333 -42v-293l351 48q17 2 30 -8t15 -27t-7.5 -30
t-26.5 -15l-363 -49v-206zM442 889q0 -19 -13 -32t-32 -13t-32 13t-13 32t13 32t32 13t32 -13t13 -32zM282 889q0 -19 -13 -32t-32 -13t-32 13t-13 32t13 32t32 13t32 -13t13 -32z" />
    <glyph glyph-name="Igrave" unicode="&#xcc;" horiz-adv-x="442" 
d="M226 656q14 43 39 63.5t51 23.5t48 -9t30.5 -34.5t-0.5 -53t-45 -64.5q-12 -13 -37.5 -35.5t-51.5 -44.5t-45.5 -38t-20.5 -16q-2 0 -17 18t-35 43t-39.5 52.5t-29.5 45.5q-17 31 -17 61t11.5 52t31 33.5t42.5 6.5t45.5 -29.5t39.5 -74.5zM201 396q17 0 29 -11t12 -28
l14 -344q0 -17 -11 -29t-28 -12h-1q-17 0 -28.5 11t-11.5 28l-14 344q0 17 11 28.5t28 12.5zM160 906q-16 13 -16.5 29.5t9 28t25.5 14.5t32 -10l92 -70q16 -13 16.5 -29.5t-9 -28t-25.5 -14.5t-32 10z" />
    <glyph glyph-name="Iacute" unicode="&#xcd;" horiz-adv-x="442" 
d="M226 656q14 43 39 63.5t51 23.5t48 -9t30.5 -34.5t-0.5 -53t-45 -64.5q-12 -13 -37.5 -35.5t-51.5 -44.5t-45.5 -38t-20.5 -16q-2 0 -17 18t-35 43t-39.5 52.5t-29.5 45.5q-17 31 -17 61t11.5 52t31 33.5t42.5 6.5t45.5 -29.5t39.5 -74.5zM201 396q17 0 29 -11t12 -28
l14 -344q0 -17 -11 -29t-28 -12h-1q-17 0 -28.5 11t-11.5 28l-14 344q0 17 11 28.5t28 12.5zM220 836q-16 -13 -32 -10t-25.5 14.5t-9 28t16.5 29.5l92 70q16 13 32 10t25.5 -14.5t9 -28t-16.5 -29.5z" />
    <glyph glyph-name="Icircumflex" unicode="&#xce;" horiz-adv-x="442" 
d="M226 656q14 43 39 63.5t51 23.5t48 -9t30.5 -34.5t-0.5 -53t-45 -64.5q-12 -13 -37.5 -35.5t-51.5 -44.5t-45.5 -38t-20.5 -16q-2 0 -17 18t-35 43t-39.5 52.5t-29.5 45.5q-17 31 -17 61t11.5 52t31 33.5t42.5 6.5t45.5 -29.5t39.5 -74.5zM201 396q17 0 29 -11t12 -28
l14 -344q0 -17 -11 -29t-28 -12h-1q-17 0 -28.5 11t-11.5 28l-14 344q0 17 11 28.5t28 12.5zM211 971q9 8 15.5 11t14.5 3q6 0 13 -3t17 -11l73 -65q14 -15 12 -31.5t-12.5 -27t-27 -11.5t-30.5 14l-45 40l-45 -40q-14 -15 -30.5 -14t-27 11.5t-12.5 27t12 31.5z" />
    <glyph glyph-name="Idieresis" unicode="&#xcf;" horiz-adv-x="442" 
d="M226 656q14 43 39 63.5t51 23.5t48 -9t30.5 -34.5t-0.5 -53t-45 -64.5q-12 -13 -37.5 -35.5t-51.5 -44.5t-45.5 -38t-20.5 -16q-2 0 -17 18t-35 43t-39.5 52.5t-29.5 45.5q-17 31 -17 61t11.5 52t31 33.5t42.5 6.5t45.5 -29.5t39.5 -74.5zM201 396q17 0 29 -11t12 -28
l14 -344q0 -17 -11 -29t-28 -12h-1q-17 0 -28.5 11t-11.5 28l-14 344q0 17 11 28.5t28 12.5zM206 889q0 -19 -13 -32t-32 -13t-32 13t-13 32t13 32t32 13t32 -13t13 -32zM366 889q0 -19 -13 -32t-32 -13t-32 13t-13 32t13 32t32 13t32 -13t13 -32z" />
    <glyph glyph-name="Eth" unicode="&#xd0;" horiz-adv-x="808" 
d="M585 688q99 -67 148 -179q24 -56 30.5 -113t-5.5 -114q-21 -106 -92 -183q-66 -71 -160 -104q-69 -23 -139 -23q-14 0 -27.5 1t-27.5 3q-104 14 -177 76q-13 11 -14.5 27t9.5 29t27 14.5t29 -9.5q28 -23 62.5 -38t73 -20.5t79 -1.5t79.5 18q79 28 131 87t69 140
q9 45 3.5 91t-24 89t-49 80t-70.5 64q-94 63 -209 54t-233 -87q-14 -10 -30.5 -6.5t-25.5 17.5t-6 30t17 25q147 97 292 102q133 3 240 -69zM171 308q-21 0 -31 12.5t-10 27.5t10 27.5t31 12.5h47l-6 164q0 17 11 29t28 12q17 1 28.5 -10t12.5 -28l6 -167h85q21 0 31 -12.5
t10 -27.5t-10 -27.5t-31 -12.5h-82l6 -141q1 -17 -10 -28.5t-28 -12.5h-2q-16 0 -27.5 11t-12.5 27l-6 144h-50z" />
    <glyph glyph-name="Ntilde" unicode="&#xd1;" horiz-adv-x="832" 
d="M742 726q-4 17 -18 25.5t-31 4.5q-16 -5 -24.5 -18.5t-4.5 -30.5l4.5 -19.5t10.5 -52t12 -75.5t9 -92q9 -125 -7 -214.5t-55 -140.5q-49 -61 -136 -61q-133 0 -215 198q-18 45 -32 93.5t-24.5 96t-18.5 92t-14 80.5q-4 26 -7.5 47t-6.5 37q-5 19 -9 29q-5 12 -12 18.5
t-14 9.5t-13 3.5t-9 0.5q-8 -1 -20 -7.5t-20 -26.5q-4 -10 -7 -30q-3 -15 -5.5 -36t-4.5 -49q-7 -88 -12 -244q-2 -65 -3 -128t-1.5 -112.5t-0.5 -80v-31.5q0 -17 11.5 -28.5t28.5 -11.5t28.5 11.5t11.5 28.5v27.5t0.5 72t1 102t2.5 118.5q2 38 2.5 73t2.5 66
q12 -61 29 -126t42 -126q23 -55 50 -97.5t58 -73.5q79 -76 181 -76q66 0 116 25q48 22 83 67q56 71 74 194q7 47 8 101t-3 115q-4 51 -10 96t-12 79.5t-11 54.5t-5 22zM494 822q-16 0 -28 4.5t-18 7.5q-15 6 -30.5 15.5t-30.5 18.5q-11 7 -20.5 13t-17.5 11q-3 1 -5 2l-4 2
q-1 -4 -1 -9.5v-13.5q1 -17 -10 -28.5t-28 -12.5t-29 10t-13 28q0 12 0.5 26.5t4 28.5t11.5 26t22 20q12 7 23.5 8t22 -0.5t18.5 -4.5t12 -5q14 -7 28.5 -15.5t28.5 -17.5l22 -14t21 -12l16 -7q2 4 3 11t1 18q1 17 12.5 28.5t28.5 10.5t28.5 -12.5t10.5 -28.5q0 -7 -1 -20.5
t-5.5 -28t-13.5 -28.5t-25 -22q-17 -9 -34 -9z" />
    <glyph glyph-name="Ograve" unicode="&#xd2;" horiz-adv-x="788" 
d="M632 645q57 -35 88 -102q34 -73 31 -169q-2 -83 -28.5 -154t-76.5 -127q-45 -50 -102.5 -80.5t-121.5 -38.5q-11 -1 -21 -1.5t-20 -0.5q-33 0 -63 6q-54 11 -97 39q-48 30 -81 77t-50 108q-23 81 -18.5 153.5t26.5 134.5t57.5 111.5t76.5 84.5q49 41 97 60q28 10 52.5 11
t44.5 -8q15 -7 21 -22.5t-1 -30.5t-22.5 -21t-30.5 1q-2 1 -11 0.5t-25 -5.5q-17 -7 -35.5 -18.5t-36.5 -27.5q-34 -29 -63.5 -70t-48 -92.5t-22 -112t15.5 -127.5q15 -53 42 -88t60.5 -54.5t70.5 -25.5t72 -1q45 6 90.5 28.5t82.5 63t60.5 97.5t25.5 132q2 73 -18.5 125
t-61.5 76q-28 17 -60 17.5t-60 -15.5q-8 -5 -17 -12.5t-17.5 -19.5t-14 -28.5t-5.5 -38.5q0 -17 -11.5 -28.5t-28.5 -11.5t-28.5 11.5t-11.5 28.5q0 56 26 102q26 41 69 67q47 26 100.5 25t99.5 -28zM373 906q-16 13 -16.5 29.5t9 28t25.5 14.5t32 -10l92 -70
q16 -13 16.5 -29.5t-9 -28t-25.5 -14.5t-32 10z" />
    <glyph glyph-name="Oacute" unicode="&#xd3;" horiz-adv-x="788" 
d="M632 645q57 -35 88 -102q34 -73 31 -169q-2 -83 -28.5 -154t-76.5 -127q-45 -50 -102.5 -80.5t-121.5 -38.5q-11 -1 -21 -1.5t-20 -0.5q-33 0 -63 6q-54 11 -97 39q-48 30 -81 77t-50 108q-23 81 -18.5 153.5t26.5 134.5t57.5 111.5t76.5 84.5q49 41 97 60q28 10 52.5 11
t44.5 -8q15 -7 21 -22.5t-1 -30.5t-22.5 -21t-30.5 1q-2 1 -11 0.5t-25 -5.5q-17 -7 -35.5 -18.5t-36.5 -27.5q-34 -29 -63.5 -70t-48 -92.5t-22 -112t15.5 -127.5q15 -53 42 -88t60.5 -54.5t70.5 -25.5t72 -1q45 6 90.5 28.5t82.5 63t60.5 97.5t25.5 132q2 73 -18.5 125
t-61.5 76q-28 17 -60 17.5t-60 -15.5q-8 -5 -17 -12.5t-17.5 -19.5t-14 -28.5t-5.5 -38.5q0 -17 -11.5 -28.5t-28.5 -11.5t-28.5 11.5t-11.5 28.5q0 56 26 102q26 41 69 67q47 26 100.5 25t99.5 -28zM433 836q-16 -13 -32 -10t-25.5 14.5t-9 28t16.5 29.5l92 70q16 13 32 10
t25.5 -14.5t9 -28t-16.5 -29.5z" />
    <glyph glyph-name="Ocircumflex" unicode="&#xd4;" horiz-adv-x="788" 
d="M632 645q57 -35 88 -102q34 -73 31 -169q-2 -83 -28.5 -154t-76.5 -127q-45 -50 -102.5 -80.5t-121.5 -38.5q-11 -1 -21 -1.5t-20 -0.5q-33 0 -63 6q-54 11 -97 39q-48 30 -81 77t-50 108q-23 81 -18.5 153.5t26.5 134.5t57.5 111.5t76.5 84.5q49 41 97 60q28 10 52.5 11
t44.5 -8q15 -7 21 -22.5t-1 -30.5t-22.5 -21t-30.5 1q-2 1 -11 0.5t-25 -5.5q-17 -7 -35.5 -18.5t-36.5 -27.5q-34 -29 -63.5 -70t-48 -92.5t-22 -112t15.5 -127.5q15 -53 42 -88t60.5 -54.5t70.5 -25.5t72 -1q45 6 90.5 28.5t82.5 63t60.5 97.5t25.5 132q2 73 -18.5 125
t-61.5 76q-28 17 -60 17.5t-60 -15.5q-8 -5 -17 -12.5t-17.5 -19.5t-14 -28.5t-5.5 -38.5q0 -17 -11.5 -28.5t-28.5 -11.5t-28.5 11.5t-11.5 28.5q0 56 26 102q26 41 69 67q47 26 100.5 25t99.5 -28zM384 971q9 8 15.5 11t14.5 3q6 0 13 -3t17 -11l73 -65q14 -15 12 -31.5
t-12.5 -27t-27 -11.5t-30.5 14l-45 40l-45 -40q-14 -15 -30.5 -14t-27 11.5t-12.5 27t12 31.5z" />
    <glyph glyph-name="Otilde" unicode="&#xd5;" horiz-adv-x="788" 
d="M632 645q-46 27 -99.5 28t-100.5 -25q-43 -26 -69 -67q-26 -46 -26 -102q0 -17 11.5 -28.5t28.5 -11.5t28.5 11.5t11.5 28.5q0 22 5.5 38.5t14 28.5t17.5 19.5t17 12.5q28 16 60 15.5t60 -17.5q41 -24 61.5 -76t18.5 -125q-2 -75 -25.5 -132t-60.5 -97.5t-82.5 -63
t-90.5 -28.5q-35 -5 -72 1t-70.5 25.5t-60.5 54.5t-42 88q-19 67 -15.5 127.5t22 112t48 92.5t63.5 70q18 16 36.5 27.5t35.5 18.5q16 5 25 5.5t11 -0.5q15 -7 30.5 -1t22.5 21t1 30.5t-21 22.5q-20 9 -44.5 8t-52.5 -11q-48 -19 -97 -60q-41 -35 -76.5 -84.5t-57.5 -111.5
t-26.5 -134.5t18.5 -153.5q17 -61 50 -108t81 -77q43 -28 97 -39q30 -6 63 -6q10 0 20 0.5t21 1.5q64 8 121.5 38.5t102.5 80.5q50 56 76.5 127t28.5 154q3 96 -31 169q-31 67 -88 102zM512 822q-16 0 -28 4.5t-18 7.5q-15 6 -30.5 15.5t-30.5 18.5q-11 7 -20.5 13t-17.5 11
q-3 1 -5 2l-4 2q-1 -4 -1 -9.5v-13.5q1 -17 -10 -28.5t-28 -12.5t-29 10t-13 28q0 12 0.5 26.5t4 28.5t11.5 26t22 20q12 7 23.5 8t22 -0.5t18.5 -4.5t12 -5q14 -7 28.5 -15.5t28.5 -17.5l22 -14t21 -12l16 -7q2 4 3 11t1 18q1 17 12.5 28.5t28.5 10.5t28.5 -12.5
t10.5 -28.5q0 -7 -1 -20.5t-5.5 -28t-13.5 -28.5t-25 -22q-17 -9 -34 -9z" />
    <glyph glyph-name="Odieresis" unicode="&#xd6;" horiz-adv-x="788" 
d="M632 645q57 -35 88 -102q34 -73 31 -169q-2 -83 -28.5 -154t-76.5 -127q-45 -50 -102.5 -80.5t-121.5 -38.5q-11 -1 -21 -1.5t-20 -0.5q-33 0 -63 6q-54 11 -97 39q-48 30 -81 77t-50 108q-23 81 -18.5 153.5t26.5 134.5t57.5 111.5t76.5 84.5q49 41 97 60q28 10 52.5 11
t44.5 -8q15 -7 21 -22.5t-1 -30.5t-22.5 -21t-30.5 1q-2 1 -11 0.5t-25 -5.5q-17 -7 -35.5 -18.5t-36.5 -27.5q-34 -29 -63.5 -70t-48 -92.5t-22 -112t15.5 -127.5q15 -53 42 -88t60.5 -54.5t70.5 -25.5t72 -1q45 6 90.5 28.5t82.5 63t60.5 97.5t25.5 132q2 73 -18.5 125
t-61.5 76q-28 17 -60 17.5t-60 -15.5q-8 -5 -17 -12.5t-17.5 -19.5t-14 -28.5t-5.5 -38.5q0 -17 -11.5 -28.5t-28.5 -11.5t-28.5 11.5t-11.5 28.5q0 56 26 102q26 41 69 67q47 26 100.5 25t99.5 -28zM389 889q0 -19 -13 -32t-32 -13t-32 13t-13 32t13 32t32 13t32 -13
t13 -32zM549 889q0 -19 -13 -32t-32 -13t-32 13t-13 32t13 32t32 13t32 -13t13 -32z" />
    <glyph glyph-name="Oslash" unicode="&#xd8;" horiz-adv-x="788" 
d="M143 19q-13 -16 -29.5 -15.5t-28 10t-14.5 25.5t10 32l42 50q-21 37 -33 81q-23 81 -18.5 153.5t26.5 134.5t57.5 111.5t76.5 84.5q49 41 97 60q28 10 52.5 11t44.5 -8q15 -7 21 -22.5t-1 -30.5t-22.5 -21t-30.5 1q-2 1 -11 0.5t-25 -5.5q-17 -7 -35.5 -18.5t-36.5 -27.5
q-34 -29 -63.5 -70t-48 -92.5t-22 -112t15.5 -127.5q5 -20 12 -34l208 251q-3 -1 -10 -1q-17 0 -28.5 11.5t-11.5 28.5q0 56 26 102q26 41 69 67q33 19 70 23.5t73 -4.5l50 60q13 16 29.5 15.5t28 -10t14.5 -25.5t-10 -32l-36 -43q43 -34 69 -89q34 -73 31 -169
q-2 -83 -28.5 -154t-76.5 -127q-45 -50 -102.5 -80.5t-121.5 -38.5q-11 -1 -21 -1.5t-20 -0.5q-33 0 -63 6q-54 11 -97 39q-26 16 -48 38zM671 375q2 69 -16.5 119t-54.5 76l-376 -453q39 -42 89.5 -55.5t98.5 -7.5q45 6 90.5 28.5t82.5 63t60.5 97.5t25.5 132zM417 476
l96 116q-21 -3 -42 -14q-8 -5 -17 -12.5t-17.5 -19.5t-14 -28.5t-5.5 -38.5v-3z" />
    <glyph glyph-name="Ugrave" unicode="&#xd9;" horiz-adv-x="841" 
d="M740 757q15 -2 25.5 -13t10.5 -26l11 -705q1 -17 -10.5 -29t-28.5 -12h-1q-16 0 -27.5 11t-12.5 28l-7 443q-9 -26 -19.5 -52.5t-22.5 -53.5q-70 -161 -152 -252q-108 -124 -235 -124q-56 0 -99 21q-42 22 -67 60q-85 123 -19 417q11 52 24.5 99t24.5 82t19 56.5t9 23.5
q6 16 21 22.5t31 0.5t22.5 -21t0.5 -31l-7.5 -20.5t-19 -54.5t-24.5 -79.5t-24 -95.5q-13 -59 -19 -110t-7 -94q0 -101 34 -150q31 -46 100 -46q53 0 99.5 30t86 77.5t71.5 105.5t57 114q28 64 49 126t35 110.5t21 78.5t7 31q3 15 15.5 24.5t27.5 7.5zM409 906
q-16 13 -16.5 29.5t9 28t25.5 14.5t32 -10l92 -70q16 -13 16.5 -29.5t-9 -28t-25.5 -14.5t-32 10z" />
    <glyph glyph-name="Uacute" unicode="&#xda;" horiz-adv-x="841" 
d="M740 757q15 -2 25.5 -13t10.5 -26l11 -705q1 -17 -10.5 -29t-28.5 -12h-1q-16 0 -27.5 11t-12.5 28l-7 443q-9 -26 -19.5 -52.5t-22.5 -53.5q-70 -161 -152 -252q-108 -124 -235 -124q-56 0 -99 21q-42 22 -67 60q-85 123 -19 417q11 52 24.5 99t24.5 82t19 56.5t9 23.5
q6 16 21 22.5t31 0.5t22.5 -21t0.5 -31l-7.5 -20.5t-19 -54.5t-24.5 -79.5t-24 -95.5q-13 -59 -19 -110t-7 -94q0 -101 34 -150q31 -46 100 -46q53 0 99.5 30t86 77.5t71.5 105.5t57 114q28 64 49 126t35 110.5t21 78.5t7 31q3 15 15.5 24.5t27.5 7.5zM470 836
q-16 -13 -32 -10t-25.5 14.5t-9 28t16.5 29.5l92 70q16 13 32 10t25.5 -14.5t9 -28t-16.5 -29.5z" />
    <glyph glyph-name="Ucircumflex" unicode="&#xdb;" horiz-adv-x="841" 
d="M740 757q15 -2 25.5 -13t10.5 -26l11 -705q1 -17 -10.5 -29t-28.5 -12h-1q-16 0 -27.5 11t-12.5 28l-7 443q-9 -26 -19.5 -52.5t-22.5 -53.5q-70 -161 -152 -252q-108 -124 -235 -124q-56 0 -99 21q-42 22 -67 60q-85 123 -19 417q11 52 24.5 99t24.5 82t19 56.5t9 23.5
q6 16 21 22.5t31 0.5t22.5 -21t0.5 -31l-7.5 -20.5t-19 -54.5t-24.5 -79.5t-24 -95.5q-13 -59 -19 -110t-7 -94q0 -101 34 -150q31 -46 100 -46q53 0 99.5 30t86 77.5t71.5 105.5t57 114q28 64 49 126t35 110.5t21 78.5t7 31q3 15 15.5 24.5t27.5 7.5zM420 971q9 8 15.5 11
t14.5 3q6 0 13 -3t17 -11l73 -65q14 -15 12 -31.5t-12.5 -27t-27 -11.5t-30.5 14l-45 40l-45 -40q-14 -15 -30.5 -14t-27 11.5t-12.5 27t12 31.5z" />
    <glyph glyph-name="Udieresis" unicode="&#xdc;" horiz-adv-x="841" 
d="M740 757q15 -2 25.5 -13t10.5 -26l11 -705q1 -17 -10.5 -29t-28.5 -12h-1q-16 0 -27.5 11t-12.5 28l-7 443q-9 -26 -19.5 -52.5t-22.5 -53.5q-70 -161 -152 -252q-108 -124 -235 -124q-56 0 -99 21q-42 22 -67 60q-85 123 -19 417q11 52 24.5 99t24.5 82t19 56.5t9 23.5
q6 16 21 22.5t31 0.5t22.5 -21t0.5 -31l-7.5 -20.5t-19 -54.5t-24.5 -79.5t-24 -95.5q-13 -59 -19 -110t-7 -94q0 -101 34 -150q31 -46 100 -46q53 0 99.5 30t86 77.5t71.5 105.5t57 114q28 64 49 126t35 110.5t21 78.5t7 31q3 15 15.5 24.5t27.5 7.5zM565 889
q0 -19 -13 -32t-32 -13t-32 13t-13 32t13 32t32 13t32 -13t13 -32zM405 889q0 -19 -13 -32t-32 -13t-32 13t-13 32t13 32t32 13t32 -13t13 -32z" />
    <glyph glyph-name="Yacute" unicode="&#xdd;" horiz-adv-x="722" 
d="M700 747q13 -11 14 -27t-10 -29l-600 -705q-12 -14 -30 -14q-14 0 -26 9q-13 11 -14.5 27.5t9.5 29.5l283 332l-235 281q-11 13 -9.5 29.5t14.5 27.5t29.5 9.5t27.5 -14.5l226 -271l264 311q11 13 27.5 14t29.5 -10zM380 836q-16 -13 -32 -10t-25.5 14.5t-9 28t16.5 29.5
l92 70q16 13 32 10t25.5 -14.5t9 -28t-16.5 -29.5z" />
    <glyph glyph-name="Thorn" unicode="&#xde;" horiz-adv-x="616" 
d="M447 672q64 -20 105 -67q36 -42 41 -103t-23 -128q-23 -53 -62 -100.5t-92 -83.5q-29 -20 -61 -36t-66 -28q-72 -23 -148 -29l7 -83q1 -17 -10.5 -29t-28.5 -13h-1q-17 0 -28 11t-12 27l-21 700q-1 17 10 28.5t28 12.5t29 -10t13 -28l1 -88q45 26 92 41t95 19
q35 4 68.5 0.5t63.5 -13.5zM322 606q-43 -5 -92.5 -22t-99.5 -52l7 -355q75 6 135 28.5t104.5 55t74.5 70.5t45 74q19 45 17.5 84.5t-21.5 62.5q-27 31 -71.5 45t-98.5 9z" />
    <glyph glyph-name="germandbls" unicode="&#xdf;" horiz-adv-x="659" 
d="M353 -22q-87 0 -161 41q-15 8 -19.5 24t3.5 30q8 15 24 19.5t30 -3.5q36 -20 73 -27t71 -4t64 14t51 26q9 7 20 17.5t20 25.5t13 34t0 42q-15 81 -97 116q-33 13 -60 16t-28 3q-27 0 -38 26q-5 11 -2 23t12 21l6 6t15 16.5t19.5 25t20.5 31.5q48 81 17 139
q-9 17 -24 25.5t-28 11.5q-40 12 -90 0q-26 -6 -51 -19.5t-45 -34.5t-32.5 -50.5t-12.5 -66.5l10 -475q1 -17 -10.5 -29t-28.5 -12h-1q-16 0 -27.5 11t-12.5 28l-10 475v1q0 97 63 168q27 29 62.5 50t76.5 31q69 17 131 0q71 -20 101 -76q51 -98 -19 -219
q-6 -11 -12.5 -20.5t-12.5 -17.5q9 -2 18.5 -5t20.5 -8q61 -25 99 -69.5t49 -107.5q11 -58 -11.5 -109.5t-73.5 -88.5q-33 -24 -75 -38t-87 -17h-21z" />
    <glyph glyph-name="agrave" unicode="&#xe0;" horiz-adv-x="426" 
d="M400 73q4 -17 -5 -30.5t-26 -17.5q-16 -3 -29.5 5.5t-17.5 25.5l-17 81l-31 -38q-22 -26 -43.5 -45t-41.5 -31t-36.5 -16.5t-31.5 -4.5q-14 0 -26 3.5t-21 8.5q-42 22 -51 74q-6 40 7 89q12 42 36.5 83.5t57.5 74.5q36 36 76 56q48 22 95 21q17 -1 28 -13t10 -29t-13 -28
t-29 -10q-27 2 -55.5 -12t-54.5 -41q-26 -26 -45.5 -59t-28.5 -65q-8 -26 -6.5 -46t11.5 -25q2 -1 10.5 -2t26.5 10q30 17 64 59q16 19 30 38t24 34.5t16 25.5l6 10q13 23 41 20q12 -2 21 -10.5t12 -21.5zM112 536q-16 13 -16.5 29.5t9 28t25.5 14.5t32 -10l92 -70
q16 -13 16.5 -29.5t-9 -28t-25.5 -14.5t-32 10z" />
    <glyph glyph-name="aacute" unicode="&#xe1;" horiz-adv-x="426" 
d="M400 73q4 -17 -5 -30.5t-26 -17.5q-16 -3 -29.5 5.5t-17.5 25.5l-17 81l-31 -38q-22 -26 -43.5 -45t-41.5 -31t-36.5 -16.5t-31.5 -4.5q-14 0 -26 3.5t-21 8.5q-42 22 -51 74q-6 40 7 89q12 42 36.5 83.5t57.5 74.5q36 36 76 56q48 22 95 21q17 -1 28 -13t10 -29t-13 -28
t-29 -10q-27 2 -55.5 -12t-54.5 -41q-26 -26 -45.5 -59t-28.5 -65q-8 -26 -6.5 -46t11.5 -25q2 -1 10.5 -2t26.5 10q30 17 64 59q16 19 30 38t24 34.5t16 25.5l6 10q13 23 41 20q12 -2 21 -10.5t12 -21.5zM222 466q-16 -13 -32 -10t-25.5 14.5t-9 28t16.5 29.5l92 70
q16 13 32 10t25.5 -14.5t9 -28t-16.5 -29.5z" />
    <glyph glyph-name="acircumflex" unicode="&#xe2;" horiz-adv-x="426" 
d="M400 73q4 -17 -5 -30.5t-26 -17.5q-16 -3 -29.5 5.5t-17.5 25.5l-17 81l-31 -38q-22 -26 -43.5 -45t-41.5 -31t-36.5 -16.5t-31.5 -4.5q-14 0 -26 3.5t-21 8.5q-42 22 -51 74q-6 40 7 89q12 42 36.5 83.5t57.5 74.5q36 36 76 56q48 22 95 21q17 -1 28 -13t10 -29t-13 -28
t-29 -10q-27 2 -55.5 -12t-54.5 -41q-26 -26 -45.5 -59t-28.5 -65q-8 -26 -6.5 -46t11.5 -25q2 -1 10.5 -2t26.5 10q30 17 64 59q16 19 30 38t24 34.5t16 25.5l6 10q13 23 41 20q12 -2 21 -10.5t12 -21.5zM183 601q9 8 15.5 11t14.5 3q6 0 13 -3t17 -11l73 -65
q14 -15 12 -31.5t-12.5 -27t-27 -11.5t-30.5 14l-45 40l-45 -40q-14 -15 -30.5 -14t-27 11.5t-12.5 27t12 31.5z" />
    <glyph glyph-name="atilde" unicode="&#xe3;" horiz-adv-x="426" 
d="M363 247q-3 13 -12 21.5t-21 10.5q-28 3 -41 -20l-6 -10t-16 -25.5t-24 -34.5t-30 -38q-34 -42 -64 -59q-18 -11 -26.5 -10t-10.5 2q-10 5 -11.5 25t6.5 46q9 32 28.5 65t45.5 59q26 27 54.5 41t55.5 12q17 -1 29 10t13 28t-10 29t-28 13q-47 1 -95 -21q-40 -20 -76 -56
q-33 -33 -57.5 -74.5t-36.5 -83.5q-13 -49 -7 -89q9 -52 51 -74q9 -5 21 -8.5t26 -3.5q15 0 31.5 4.5t36.5 16.5t41.5 31t43.5 45l31 38l17 -81q4 -17 17.5 -25.5t29.5 -5.5q17 4 26 17.5t5 30.5zM291 452q-16 0 -28 4.5t-18 7.5q-15 6 -30.5 15.5t-30.5 18.5
q-11 7 -20.5 13t-17.5 11q-3 1 -5 2l-4 2q-1 -4 -1 -9.5v-13.5q1 -17 -10 -28.5t-28 -12.5t-29 10t-13 28q0 12 0.5 26.5t4 28.5t11.5 26t22 20q12 7 23.5 8t22 -0.5t18.5 -4.5t12 -5q14 -7 28.5 -15.5t28.5 -17.5l22 -14t21 -12l16 -7q2 4 3 11t1 18q1 17 12.5 28.5
t28.5 10.5t28.5 -12.5t10.5 -28.5q0 -7 -1 -20.5t-5.5 -28t-13.5 -28.5t-25 -22q-17 -9 -34 -9z" />
    <glyph glyph-name="adieresis" unicode="&#xe4;" horiz-adv-x="426" 
d="M400 73q4 -17 -5 -30.5t-26 -17.5q-16 -3 -29.5 5.5t-17.5 25.5l-17 81l-31 -38q-22 -26 -43.5 -45t-41.5 -31t-36.5 -16.5t-31.5 -4.5q-14 0 -26 3.5t-21 8.5q-42 22 -51 74q-6 40 7 89q12 42 36.5 83.5t57.5 74.5q36 36 76 56q48 22 95 21q17 -1 28 -13t10 -29t-13 -28
t-29 -10q-27 2 -55.5 -12t-54.5 -41q-26 -26 -45.5 -59t-28.5 -65q-8 -26 -6.5 -46t11.5 -25q2 -1 10.5 -2t26.5 10q30 17 64 59q16 19 30 38t24 34.5t16 25.5l6 10q13 23 41 20q12 -2 21 -10.5t12 -21.5zM338 519q0 -19 -13 -32t-32 -13t-32 13t-13 32t13 32t32 13t32 -13
t13 -32zM178 519q0 -19 -13 -32t-32 -13t-32 13t-13 32t13 32t32 13t32 -13t13 -32z" />
    <glyph glyph-name="aring" unicode="&#xe5;" horiz-adv-x="426" 
d="M363 247q-3 13 -12 21.5t-21 10.5q-28 3 -41 -20l-6 -10t-16 -25.5t-24 -34.5t-30 -38q-34 -42 -64 -59q-18 -11 -26.5 -10t-10.5 2q-10 5 -11.5 25t6.5 46q9 32 28.5 65t45.5 59q26 27 54.5 41t55.5 12q17 -1 29 10t13 28t-10 29t-28 13q-47 1 -95 -21q-40 -20 -76 -56
q-33 -33 -57.5 -74.5t-36.5 -83.5q-13 -49 -7 -89q9 -52 51 -74q9 -5 21 -8.5t26 -3.5q15 0 31.5 4.5t36.5 16.5t41.5 31t43.5 45l31 38l17 -81q4 -17 17.5 -25.5t29.5 -5.5q17 4 26 17.5t5 30.5zM212 431q-40 0 -68 28t-28 69q0 40 28 68t68 28q39 0 69 -28q28 -28 28 -68
q0 -41 -28 -69q-30 -28 -69 -28zM212 564q-15 0 -25.5 -10.5t-10.5 -25.5q0 -16 10.5 -26.5t25.5 -10.5q16 0 26.5 10.5t10.5 26.5q0 15 -10.5 25.5t-26.5 10.5z" />
    <glyph glyph-name="ae" unicode="&#xe6;" horiz-adv-x="645" 
d="M602 204q15 -7 21 -22.5t-2 -30.5q-42 -83 -106 -122q-23 -14 -47 -21t-47 -7q-17 0 -33 3q-51 12 -84 54q-16 20 -25 48l-5 -7q-22 -26 -43.5 -45t-41.5 -31t-36.5 -16.5t-31.5 -4.5q-14 0 -26 3.5t-21 8.5q-42 22 -51 74q-6 40 7 89q12 42 36.5 83.5t57.5 74.5
q36 36 76 56q48 22 95 21q17 -1 28 -13t10 -29t-13 -28t-29 -10q-27 2 -55.5 -12t-54.5 -41q-26 -26 -45.5 -59t-28.5 -65q-8 -26 -6.5 -46t11.5 -25q2 -1 10.5 -2t26.5 10q30 17 64 59q26 30 45 59t27 42q16 45 47 81q29 33 63 53t67 24q39 5 66.5 -15t35.5 -58
q9 -48 -21 -83q-40 -45 -137 -54q-30 -3 -54 -3q-1 -8 -1.5 -15.5t-0.5 -16.5q1 -33 15.5 -55t39.5 -27q32 -8 72.5 16t71.5 87q8 15 23.5 20.5t29.5 -2.5zM393 281l-2 -2q6 0 8 1q47 5 64 14t20 12q2 2 3 5t-1 10q-1 5 -2.5 7.5t-7.5 2.5h-4q-15 -2 -36.5 -14.5
t-41.5 -35.5z" />
    <glyph glyph-name="ccedilla" unicode="&#xe7;" 
d="M355 204q15 -7 20.5 -22.5t-2.5 -30.5q-20 -41 -46.5 -71.5t-58.5 -50.5q-28 -17 -54 -23l-8 -38q6 0 12 -1t11 -3q39 -9 61 -40q19 -26 20 -58t-16 -61q-23 -38 -69 -55q-30 -12 -68 -12q-20 0 -41 3q-17 3 -26.5 16t-7.5 30q3 17 16 26.5t30 6.5q41 -6 69 5q20 6 28 21
q11 17 1 30q-16 20 -62 9q-21 -5 -38 10q-7 8 -10 17.5t0 20.5l17 72q-47 14 -77 53q-32 45 -34 105q-1 46 15 90t48 80q28 33 62 53t67 24q39 5 66.5 -15t35.5 -58q3 -17 -6 -30.5t-25 -16.5q-17 -4 -30.5 5t-16.5 26q-2 6 -4 8.5t-11 1.5q-14 -2 -36 -14.5t-42 -35.5
q-6 -7 -13.5 -18t-14.5 -26t-11 -33t-4 -39q1 -33 15.5 -55t39.5 -27q32 -8 72.5 16t71.5 87q8 15 23.5 20.5t30.5 -2.5z" />
    <glyph glyph-name="egrave" unicode="&#xe8;" 
d="M354 204q15 -7 21 -22.5t-2 -30.5q-42 -83 -106 -122q-23 -14 -47 -21t-47 -7q-17 0 -33 3q-51 12 -84 54q-32 45 -34 105q-1 46 15 90t47 80q29 33 63 53t67 24q39 5 66.5 -15t35.5 -58q9 -48 -21 -83q-40 -45 -137 -54q-30 -3 -54 -3q-1 -8 -1.5 -15.5t-0.5 -16.5
q1 -33 15.5 -55t39.5 -27q32 -8 72.5 16t71.5 87q8 15 23.5 20.5t29.5 -2.5zM117 536q-16 13 -16.5 29.5t9 28t25.5 14.5t32 -10l92 -70q16 -13 16.5 -29.5t-9 -28t-25.5 -14.5t-32 10zM145 281l-2 -2q6 0 8 1q47 5 64 14t20 12q2 2 3 5t-1 10q-1 5 -2.5 7.5t-7.5 2.5h-4
q-15 -2 -36.5 -14.5t-41.5 -35.5z" />
    <glyph glyph-name="eacute" unicode="&#xe9;" 
d="M354 204q15 -7 21 -22.5t-2 -30.5q-42 -83 -106 -122q-23 -14 -47 -21t-47 -7q-17 0 -33 3q-51 12 -84 54q-32 45 -34 105q-1 46 15 90t47 80q29 33 63 53t67 24q39 5 66.5 -15t35.5 -58q9 -48 -21 -83q-40 -45 -137 -54q-30 -3 -54 -3q-1 -8 -1.5 -15.5t-0.5 -16.5
q1 -33 15.5 -55t39.5 -27q32 -8 72.5 16t71.5 87q8 15 23.5 20.5t29.5 -2.5zM217 466q-16 -13 -32 -10t-25.5 14.5t-9 28t16.5 29.5l92 70q16 13 32 10t25.5 -14.5t9 -28t-16.5 -29.5zM145 281l-2 -2q6 0 8 1q47 5 64 14t20 12q2 2 3 5t-1 10q-1 5 -2.5 7.5t-7.5 2.5h-4
q-15 -2 -36.5 -14.5t-41.5 -35.5z" />
    <glyph glyph-name="ecircumflex" unicode="&#xea;" 
d="M354 204q15 -7 21 -22.5t-2 -30.5q-42 -83 -106 -122q-23 -14 -47 -21t-47 -7q-17 0 -33 3q-51 12 -84 54q-32 45 -34 105q-1 46 15 90t47 80q29 33 63 53t67 24q39 5 66.5 -15t35.5 -58q9 -48 -21 -83q-40 -45 -137 -54q-30 -3 -54 -3q-1 -8 -1.5 -15.5t-0.5 -16.5
q1 -33 15.5 -55t39.5 -27q32 -8 72.5 16t71.5 87q8 15 23.5 20.5t29.5 -2.5zM168 601q9 8 15.5 11t14.5 3q6 0 13 -3t17 -11l73 -65q14 -15 12 -31.5t-12.5 -27t-27 -11.5t-30.5 14l-45 40l-45 -40q-14 -15 -30.5 -14t-27 11.5t-12.5 27t12 31.5zM145 281l-2 -2q6 0 8 1
q47 5 64 14t20 12q2 2 3 5t-1 10q-1 5 -2.5 7.5t-7.5 2.5h-4q-15 -2 -36.5 -14.5t-41.5 -35.5z" />
    <glyph glyph-name="edieresis" unicode="&#xeb;" 
d="M354 204q15 -7 21 -22.5t-2 -30.5q-42 -83 -106 -122q-23 -14 -47 -21t-47 -7q-17 0 -33 3q-51 12 -84 54q-32 45 -34 105q-1 46 15 90t47 80q29 33 63 53t67 24q39 5 66.5 -15t35.5 -58q9 -48 -21 -83q-40 -45 -137 -54q-30 -3 -54 -3q-1 -8 -1.5 -15.5t-0.5 -16.5
q1 -33 15.5 -55t39.5 -27q32 -8 72.5 16t71.5 87q8 15 23.5 20.5t29.5 -2.5zM323 519q0 -19 -13 -32t-32 -13t-32 13t-13 32t13 32t32 13t32 -13t13 -32zM163 519q0 -19 -13 -32t-32 -13t-32 13t-13 32t13 32t32 13t32 -13t13 -32zM145 281l-2 -2q6 0 8 1q47 5 64 14t20 12
q2 2 3 5t-1 10q-1 5 -2.5 7.5t-7.5 2.5h-4q-15 -2 -36.5 -14.5t-41.5 -35.5z" />
    <glyph glyph-name="igrave" unicode="&#xec;" horiz-adv-x="228" 
d="M208 41q1 -17 -10 -29t-28 -13h-2q-16 0 -27.5 11t-12.5 27l-12 293q-1 17 10 29t28 13t29 -10.5t13 -28.5zM15 536q-16 13 -16.5 29.5t9 28t25.5 14.5t32 -10l92 -70q16 -13 16.5 -29.5t-9 -28t-25.5 -14.5t-32 10z" />
    <glyph glyph-name="iacute" unicode="&#xed;" horiz-adv-x="194" 
d="M124 41q1 -17 -10 -29t-28 -13h-2q-16 0 -27.5 11t-12.5 27l-12 293q-1 17 10 29t28 13t29 -10.5t13 -28.5zM91 466q-16 -13 -32 -10t-25.5 14.5t-9 28t16.5 29.5l92 70q16 13 32 10t25.5 -14.5t9 -28t-16.5 -29.5z" />
    <glyph glyph-name="icircumflex" unicode="&#xee;" horiz-adv-x="232" 
d="M168 41q1 -17 -10 -29t-28 -13h-2q-16 0 -27.5 11t-12.5 27l-12 293q-1 17 10 29t28 13t29 -10.5t13 -28.5zM86 571q9 8 15.5 11t14.5 3q6 0 13 -3t17 -11l73 -65q14 -15 12 -31.5t-12.5 -27t-27 -11.5t-30.5 14l-45 40l-45 -40q-14 -15 -30.5 -14t-27 11.5t-12.5 27
t12 31.5z" />
    <glyph glyph-name="idieresis" unicode="&#xef;" horiz-adv-x="248" 
d="M175 41q1 -17 -10 -29t-28 -13h-2q-16 0 -27.5 11t-12.5 27l-12 293q-1 17 10 29t28 13t29 -10.5t13 -28.5zM88 489q0 -19 -13 -32t-32 -13t-32 13t-13 32t13 32t32 13t32 -13t13 -32zM248 489q0 -19 -13 -32t-32 -13t-32 13t-13 32t13 32t32 13t32 -13t13 -32z" />
    <glyph glyph-name="eth" unicode="&#xf0;" horiz-adv-x="585" 
d="M338 651q50 -55 85 -126t52.5 -146t15.5 -146.5t-26.5 -127.5t-72.5 -90t-123 -33q-57 0 -104.5 19.5t-79.5 57.5q-27 31 -41 70.5t-13 84.5q3 91 60 157q30 33 72 53q45 20 96 20h1q70 0 124 -37q-14 48 -32 84t-37 62q-16 24 -33 41l-58 -59q-13 -11 -29 -11
q-17 0 -28 11q-11 12 -11.5 28.5t11.5 28.5l55 55q-45 31 -88 40q-17 4 -26 17.5t-5 30.5q3 16 16.5 25t30.5 6q60 -12 120 -55l9 -6l49 50q11 11 28 11t28 -11q12 -12 12 -28.5t-11 -28.5zM383 119q23 36 22.5 84t-23.5 89q-6 10 -15.5 22.5t-24.5 23.5t-35 18.5t-47 7.5
h-1q-36 0 -63 -13t-46 -34.5t-28.5 -49t-10.5 -55.5q0 -25 7.5 -50.5t24.5 -47t45.5 -36t70.5 -16.5q87 -5 124 57z" />
    <glyph glyph-name="ntilde" unicode="&#xf1;" horiz-adv-x="439" 
d="M346 351q-29 27 -64 35q-38 8 -74 -6q-55 -21 -94 -85l-3 77q-1 17 -12.5 28.5t-28.5 10.5t-28.5 -13t-10.5 -29l13 -330q0 -16 11.5 -27t27.5 -11q16 -1 27.5 9.5t13.5 26.5q5 60 17 110t30 87q14 27 31 45.5t35 25.5q30 11 54 -12q29 -28 37 -84q11 -68 -17 -156
q-5 -16 3 -30.5t24 -19.5q4 -2 12 -2q28 0 38 28q16 51 21 100t-1 92q-14 85 -62 130zM307 452q-16 0 -28 4.5t-18 7.5q-15 6 -30.5 15.5t-30.5 18.5q-11 7 -20.5 13t-17.5 11q-3 1 -5 2l-4 2q-1 -4 -1 -9.5v-13.5q1 -17 -10 -28.5t-28 -12.5t-29 10t-13 28q0 12 0.5 26.5
t4 28.5t11.5 26t22 20q12 7 23.5 8t22 -0.5t18.5 -4.5t12 -5q14 -7 28.5 -15.5t28.5 -17.5l22 -14t21 -12l16 -7q2 4 3 11t1 18q1 17 12.5 28.5t28.5 10.5t28.5 -12.5t10.5 -28.5q0 -7 -1 -20.5t-5.5 -28t-13.5 -28.5t-25 -22q-17 -9 -34 -9z" />
    <glyph glyph-name="ograve" unicode="&#xf2;" horiz-adv-x="404" 
d="M329 369q23 -26 37 -66q15 -44 13 -104q-2 -81 -53 -137q-48 -51 -115 -60q-6 -1 -11.5 -1h-11.5q-45 0 -84 22q-52 32 -70 95q-21 71 3 138q12 35 30.5 58t33.5 36q27 24 53 34q36 14 63 2l1 -1q5 14 18.5 21t28.5 4q5 -1 23.5 -9.5t40.5 -31.5zM299 202q2 48 -8.5 74.5
t-21.5 38.5q-5 5 -8.5 8t-6.5 5q-4 3 -7 4l-9 3v-2q-7 -14 -21 -20.5t-28 -1.5q-7 -1 -23.5 -11.5t-33.5 -32.5q-14 -20 -24 -52t2 -75q6 -19 16 -31t22 -18.5t26 -8.5t27 0q18 2 35 10.5t31 23.5t22.5 36.5t9.5 49.5zM131 536q-16 13 -16.5 29.5t9 28t25.5 14.5t32 -10
l92 -70q16 -13 16.5 -29.5t-9 -28t-25.5 -14.5t-32 10zM200 209q9 27 27 34t31 -0.5t15 -25.5t-21 -39q-6 -5 -16.5 -14.5t-21.5 -18.5t-19.5 -16l-8.5 -7q-1 0 -7.5 7.5t-14.5 18t-16.5 22t-12.5 19.5q-11 20 -6 37.5t17 24.5t27.5 -1.5t26.5 -40.5z" />
    <glyph glyph-name="oacute" unicode="&#xf3;" horiz-adv-x="404" 
d="M329 369q23 -26 37 -66q15 -44 13 -104q-2 -81 -53 -137q-48 -51 -115 -60q-6 -1 -11.5 -1h-11.5q-45 0 -84 22q-52 32 -70 95q-21 71 3 138q12 35 30.5 58t33.5 36q27 24 53 34q36 14 63 2l1 -1q5 14 18.5 21t28.5 4q5 -1 23.5 -9.5t40.5 -31.5zM299 202q2 48 -8.5 74.5
t-21.5 38.5q-5 5 -8.5 8t-6.5 5q-4 3 -7 4l-9 3v-2q-7 -14 -21 -20.5t-28 -1.5q-7 -1 -23.5 -11.5t-33.5 -32.5q-14 -20 -24 -52t2 -75q6 -19 16 -31t22 -18.5t26 -8.5t27 0q18 2 35 10.5t31 23.5t22.5 36.5t9.5 49.5zM211 466q-16 -13 -32 -10t-25.5 14.5t-9 28t16.5 29.5
l92 70q16 13 32 10t25.5 -14.5t9 -28t-16.5 -29.5zM200 209q9 27 27 34t31 -0.5t15 -25.5t-21 -39q-6 -5 -16.5 -14.5t-21.5 -18.5t-19.5 -16l-8.5 -7q-1 0 -7.5 7.5t-14.5 18t-16.5 22t-12.5 19.5q-11 20 -6 37.5t17 24.5t27.5 -1.5t26.5 -40.5z" />
    <glyph glyph-name="ocircumflex" unicode="&#xf4;" horiz-adv-x="404" 
d="M329 369q23 -26 37 -66q15 -44 13 -104q-2 -81 -53 -137q-48 -51 -115 -60q-6 -1 -11.5 -1h-11.5q-45 0 -84 22q-52 32 -70 95q-21 71 3 138q12 35 30.5 58t33.5 36q27 24 53 34q36 14 63 2l1 -1q5 14 18.5 21t28.5 4q5 -1 23.5 -9.5t40.5 -31.5zM299 202q2 48 -8.5 74.5
t-21.5 38.5q-5 5 -8.5 8t-6.5 5q-4 3 -7 4l-9 3v-2q-7 -14 -21 -20.5t-28 -1.5q-7 -1 -23.5 -11.5t-33.5 -32.5q-14 -20 -24 -52t2 -75q6 -19 16 -31t22 -18.5t26 -8.5t27 0q18 2 35 10.5t31 23.5t22.5 36.5t9.5 49.5zM172 601q9 8 15.5 11t14.5 3q6 0 13 -3t17 -11l73 -65
q14 -15 12 -31.5t-12.5 -27t-27 -11.5t-30.5 14l-45 40l-45 -40q-14 -15 -30.5 -14t-27 11.5t-12.5 27t12 31.5zM200 209q9 27 27 34t31 -0.5t15 -25.5t-21 -39q-6 -5 -16.5 -14.5t-21.5 -18.5t-19.5 -16l-8.5 -7q-1 0 -7.5 7.5t-14.5 18t-16.5 22t-12.5 19.5
q-11 20 -6 37.5t17 24.5t27.5 -1.5t26.5 -40.5z" />
    <glyph glyph-name="otilde" unicode="&#xf5;" horiz-adv-x="404" 
d="M329 369q-22 23 -40.5 31.5t-23.5 9.5q-15 3 -28.5 -4t-18.5 -21l-1 1q-27 12 -63 -2q-26 -10 -53 -34q-15 -13 -33.5 -36t-30.5 -58q-24 -67 -3 -138q18 -63 70 -95q39 -22 84 -22h11.5t11.5 1q67 9 115 60q51 56 53 137q2 60 -13 104q-14 40 -37 66zM299 202
q-1 -28 -9.5 -49.5t-22.5 -36.5t-31 -23.5t-35 -10.5q-13 -2 -27 0t-26 8.5t-22 18.5t-16 31q-12 43 -2 75t24 52q17 22 33.5 32.5t23.5 11.5q14 -5 28 1.5t21 20.5v2l9 -3q3 -1 7 -4q3 -2 6.5 -5t8.5 -8q11 -12 21.5 -38.5t8.5 -74.5zM290 452q-16 0 -28 4.5t-18 7.5
q-15 6 -30.5 15.5t-30.5 18.5q-11 7 -20.5 13t-17.5 11q-3 1 -5 2l-4 2q-1 -4 -1 -9.5v-13.5q1 -17 -10 -28.5t-28 -12.5t-29 10t-13 28q0 12 0.5 26.5t4 28.5t11.5 26t22 20q12 7 23.5 8t22 -0.5t18.5 -4.5t12 -5q14 -7 28.5 -15.5t28.5 -17.5l22 -14t21 -12l16 -7
q2 4 3 11t1 18q1 17 12.5 28.5t28.5 10.5t28.5 -12.5t10.5 -28.5q0 -7 -1 -20.5t-5.5 -28t-13.5 -28.5t-25 -22q-17 -9 -34 -9zM200 209q9 27 27 34t31 -0.5t15 -25.5t-21 -39q-6 -5 -16.5 -14.5t-21.5 -18.5t-19.5 -16l-8.5 -7q-1 0 -7.5 7.5t-14.5 18t-16.5 22t-12.5 19.5
q-11 20 -6 37.5t17 24.5t27.5 -1.5t26.5 -40.5z" />
    <glyph glyph-name="odieresis" unicode="&#xf6;" horiz-adv-x="404" 
d="M329 369q23 -26 37 -66q15 -44 13 -104q-2 -81 -53 -137q-48 -51 -115 -60q-6 -1 -11.5 -1h-11.5q-45 0 -84 22q-52 32 -70 95q-21 71 3 138q12 35 30.5 58t33.5 36q27 24 53 34q36 14 63 2l1 -1q5 14 18.5 21t28.5 4q5 -1 23.5 -9.5t40.5 -31.5zM299 202q2 48 -8.5 74.5
t-21.5 38.5q-5 5 -8.5 8t-6.5 5q-4 3 -7 4l-9 3v-2q-7 -14 -21 -20.5t-28 -1.5q-7 -1 -23.5 -11.5t-33.5 -32.5q-14 -20 -24 -52t2 -75q6 -19 16 -31t22 -18.5t26 -8.5t27 0q18 2 35 10.5t31 23.5t22.5 36.5t9.5 49.5zM200 209q9 27 27 34t31 -0.5t15 -25.5t-21 -39
q-6 -5 -16.5 -14.5t-21.5 -18.5t-19.5 -16l-8.5 -7q-1 0 -7.5 7.5t-14.5 18t-16.5 22t-12.5 19.5q-11 20 -6 37.5t17 24.5t27.5 -1.5t26.5 -40.5zM176 519q0 -19 -13 -32t-32 -13t-32 13t-13 32t13 32t32 13t32 -13t13 -32zM336 519q0 -19 -13 -32t-32 -13t-32 13t-13 32
t13 32t32 13t32 -13t13 -32z" />
    <glyph glyph-name="oslash" unicode="&#xf8;" horiz-adv-x="404" 
d="M359 320q2 -4 3.5 -8t3.5 -9q15 -44 13 -104q-2 -81 -53 -137q-48 -51 -115 -60q-6 -1 -11.5 -1h-11.5q-45 0 -84 22l-11 7l-14 -15q-15 -15 -31 -13.5t-27 12t-13 26.5t13 31l21 23q-2 5 -4 11t-4 13q-21 71 3 138q12 35 30.5 58t33.5 36q27 24 53 34q36 14 63 2l1 -1
q5 14 18.5 21t28.5 4q3 -1 15.5 -6t29.5 -18l15 16q15 15 31 13.5t27 -12t13 -26.5t-13 -31zM299 202q2 48 -8.5 74.5t-21.5 38.5q-5 5 -8.5 8t-6.5 5q-4 3 -7 4l-9 3v-2q-7 -14 -21 -20.5t-28 -1.5q-7 -1 -23.5 -11.5t-33.5 -32.5q-14 -20 -24 -52t2 -75q6 -19 16 -31
t22 -18.5t26 -8.5t27 0q18 2 35 10.5t31 23.5t22.5 36.5t9.5 49.5zM200 209q9 27 27 34t31 -0.5t15 -25.5t-21 -39q-6 -5 -16.5 -14.5t-21.5 -18.5t-19.5 -16l-8.5 -7q-1 0 -7.5 7.5t-14.5 18t-16.5 22t-12.5 19.5q-11 20 -6 37.5t17 24.5t27.5 -1.5t26.5 -40.5z" />
    <glyph glyph-name="ugrave" unicode="&#xf9;" horiz-adv-x="438" 
d="M409 69q2 -17 -8.5 -29.5t-27.5 -14.5t-29.5 9t-14.5 28l-12 128v-2q-37 -78 -72 -122q-53 -65 -111 -65h-3q-47 2 -74 38q-40 56 -22 189q7 46 15 79.5t9 35.5q5 16 19 24t30 3t24.5 -19t3.5 -30q-1 -1 -8.5 -32t-13.5 -73q-5 -35 -5 -58.5t2 -38.5t5.5 -22.5t5.5 -9.5
q3 -6 11 -6q10 -1 23 8.5t27 26.5q29 36 61 105q14 29 24 58t18 52q9 26 16 50q4 14 16 22.5t26 7.5q14 -2 24.5 -12t12.5 -24zM118 536q-16 13 -16.5 29.5t9 28t25.5 14.5t32 -10l92 -70q16 -13 16.5 -29.5t-9 -28t-25.5 -14.5t-32 10z" />
    <glyph glyph-name="uacute" unicode="&#xfa;" horiz-adv-x="438" 
d="M409 69q2 -17 -8.5 -29.5t-27.5 -14.5t-29.5 9t-14.5 28l-12 128v-2q-37 -78 -72 -122q-53 -65 -111 -65h-3q-47 2 -74 38q-40 56 -22 189q7 46 15 79.5t9 35.5q5 16 19 24t30 3t24.5 -19t3.5 -30q-1 -1 -8.5 -32t-13.5 -73q-5 -35 -5 -58.5t2 -38.5t5.5 -22.5t5.5 -9.5
q3 -6 11 -6q10 -1 23 8.5t27 26.5q29 36 61 105q14 29 24 58t18 52q9 26 16 50q4 14 16 22.5t26 7.5q14 -2 24.5 -12t12.5 -24zM228 466q-16 -13 -32 -10t-25.5 14.5t-9 28t16.5 29.5l92 70q16 13 32 10t25.5 -14.5t9 -28t-16.5 -29.5z" />
    <glyph glyph-name="ucircumflex" unicode="&#xfb;" horiz-adv-x="438" 
d="M409 69q2 -17 -8.5 -29.5t-27.5 -14.5t-29.5 9t-14.5 28l-12 128v-2q-37 -78 -72 -122q-53 -65 -111 -65h-3q-47 2 -74 38q-40 56 -22 189q7 46 15 79.5t9 35.5q5 16 19 24t30 3t24.5 -19t3.5 -30q-1 -1 -8.5 -32t-13.5 -73q-5 -35 -5 -58.5t2 -38.5t5.5 -22.5t5.5 -9.5
q3 -6 11 -6q10 -1 23 8.5t27 26.5q29 36 61 105q14 29 24 58t18 52q9 26 16 50q4 14 16 22.5t26 7.5q14 -2 24.5 -12t12.5 -24zM184 601q9 8 15.5 11t14.5 3q6 0 13 -3t17 -11l73 -65q14 -15 12 -31.5t-12.5 -27t-27 -11.5t-30.5 14l-45 40l-45 -40q-14 -15 -30.5 -14
t-27 11.5t-12.5 27t12 31.5z" />
    <glyph glyph-name="udieresis" unicode="&#xfc;" horiz-adv-x="438" 
d="M409 69q2 -17 -8.5 -29.5t-27.5 -14.5t-29.5 9t-14.5 28l-12 128v-2q-37 -78 -72 -122q-53 -65 -111 -65h-3q-47 2 -74 38q-40 56 -22 189q7 46 15 79.5t9 35.5q5 16 19 24t30 3t24.5 -19t3.5 -30q-1 -1 -8.5 -32t-13.5 -73q-5 -35 -5 -58.5t2 -38.5t5.5 -22.5t5.5 -9.5
q3 -6 11 -6q10 -1 23 8.5t27 26.5q29 36 61 105q14 29 24 58t18 52q9 26 16 50q4 14 16 22.5t26 7.5q14 -2 24.5 -12t12.5 -24zM334 519q0 -19 -13 -32t-32 -13t-32 13t-13 32t13 32t32 13t32 -13t13 -32zM174 519q0 -19 -13 -32t-32 -13t-32 13t-13 32t13 32t32 13t32 -13
t13 -32z" />
    <glyph glyph-name="yacute" unicode="&#xfd;" horiz-adv-x="461" 
d="M430 408q15 -8 20.5 -23.5t-2.5 -30.5l-350 -705q-11 -22 -36 -22q-10 0 -17 4q-15 8 -20.5 23.5t2.5 30.5l168 340l-1 2l-140 287q-7 15 -1.5 30.5t20.5 23.5q15 7 30.5 1.5t22.5 -20.5l114 -234l137 275q7 14 22.5 19.5t30.5 -1.5zM249 466q-16 -13 -32 -10t-25.5 14.5
t-9 28t16.5 29.5l92 70q16 13 32 10t25.5 -14.5t9 -28t-16.5 -29.5z" />
    <glyph glyph-name="thorn" unicode="&#xfe;" horiz-adv-x="452" 
d="M278 410q46 4 84.5 -11.5t63.5 -47.5q26 -34 26 -85q0 -47 -21 -92q-15 -34 -39 -63t-55 -52q-72 -52 -164 -58h-2q-16 0 -27.5 10.5t-12.5 26.5q-2 17 9 29t28 14q38 2 69 14t54.5 30t40.5 39.5t26 42.5q14 29 15 55t-10 40q-17 22 -40 26t-38 2q-20 -2 -43.5 -10
t-47 -24.5t-46 -42t-41.5 -60.5l13 -525q1 -17 -10.5 -29t-28.5 -12h-1q-16 0 -27.5 11t-12.5 28l-18 915q0 17 11 28.5t28 12.5q17 0 29 -11t12 -28l2 -260q20 20 41 35q64 46 133 52z" />
    <glyph glyph-name="ydieresis" unicode="&#xff;" horiz-adv-x="461" 
d="M430 408q15 -8 20.5 -23.5t-2.5 -30.5l-350 -705q-11 -22 -36 -22q-10 0 -17 4q-15 8 -20.5 23.5t2.5 30.5l168 340l-1 2l-140 287q-7 15 -1.5 30.5t20.5 23.5q15 7 30.5 1.5t22.5 -20.5l114 -234l137 275q7 14 22.5 19.5t30.5 -1.5zM205 519q0 -19 -13 -32t-32 -13
t-32 13t-13 32t13 32t32 13t32 -13t13 -32zM365 519q0 -19 -13 -32t-32 -13t-32 13t-13 32t13 32t32 13t32 -13t13 -32z" />
    <glyph glyph-name="Amacron" unicode="&#x100;" horiz-adv-x="797" 
d="M196 18q0 -17 -11.5 -28.5t-28.5 -11.5t-28.5 11.5t-11.5 28.5v17q-1 19 -2 53t0 79l-34 -7q-2 0 -4 -0.5t-4 -0.5q-14 0 -25 9.5t-14 23.5q-4 16 5.5 29.5t25.5 17.5l54 10q1 21 3 42.5t4 43.5q27 250 126 354q63 66 153 68q82 0 143 -61q93 -94 132 -335l35 7
q17 4 30.5 -5t16.5 -26q4 -17 -5.5 -30.5t-25.5 -16.5l-41 -8q6 -54 9 -102.5t3.5 -85t0.5 -59v-24.5q-1 -17 -12 -28t-28 -11h-1q-17 0 -28.5 12t-10.5 29v21t-0.5 55.5t-3 80t-8.5 96.5l-415 -83q-2 -49 -1 -87t1 -58q1 -8 1 -12.5v-7.5zM204 326q-2 -15 -3 -30.5
t-2 -29.5l401 80q-17 107 -44.5 181.5t-65.5 112.5q-37 37 -85 37q-56 -2 -96 -43q-39 -42 -65.5 -119.5t-39.5 -188.5zM280 863q-21 0 -31 12.5t-10 27.5t10 27.5t31 12.5h217q21 0 31 -12.5t10 -27.5t-10 -27.5t-31 -12.5h-217z" />
    <glyph glyph-name="amacron" unicode="&#x101;" horiz-adv-x="426" 
d="M400 73q4 -17 -5 -30.5t-26 -17.5q-16 -3 -29.5 5.5t-17.5 25.5l-17 81l-31 -38q-22 -26 -43.5 -45t-41.5 -31t-36.5 -16.5t-31.5 -4.5q-14 0 -26 3.5t-21 8.5q-42 22 -51 74q-6 40 7 89q12 42 36.5 83.5t57.5 74.5q36 36 76 56q48 22 95 21q17 -1 28 -13t10 -29t-13 -28
t-29 -10q-27 2 -55.5 -12t-54.5 -41q-26 -26 -45.5 -59t-28.5 -65q-8 -26 -6.5 -46t11.5 -25q2 -1 10.5 -2t26.5 10q30 17 64 59q16 19 30 38t24 34.5t16 25.5l6 10q13 23 41 20q12 -2 21 -10.5t12 -21.5zM104 463q-21 0 -31 12.5t-10 27.5t10 27.5t31 12.5h217
q21 0 31 -12.5t10 -27.5t-10 -27.5t-31 -12.5h-217z" />
    <glyph glyph-name="Abreve" unicode="&#x102;" horiz-adv-x="797" 
d="M196 18v7.5t-1 12.5q0 20 -1 58t1 87l415 83q6 -51 8.5 -96.5t3 -80t0.5 -55.5v-21q-1 -17 10.5 -29t28.5 -12h1q17 0 28 11t12 28v24.5t-0.5 59t-3.5 85t-9 102.5l41 8q16 3 25.5 16.5t5.5 30.5q-3 17 -16.5 26t-30.5 5l-35 -7q-39 241 -132 335q-61 61 -143 61
q-90 -2 -153 -68q-99 -104 -126 -354q-2 -22 -4 -43.5t-3 -42.5l-54 -10q-16 -4 -25.5 -17.5t-5.5 -29.5q3 -14 14 -23.5t25 -9.5q2 0 4 0.5t4 0.5l34 7q-1 -45 0 -79t2 -53v-17q0 -17 11.5 -28.5t28.5 -11.5t28.5 11.5t11.5 28.5zM204 326q13 111 39.5 188.5t65.5 119.5
q40 41 96 43q48 0 85 -37q38 -38 65.5 -112.5t44.5 -181.5l-401 -80q1 14 2 29.5t3 30.5zM378 811q-24 0 -45.5 9t-38.5 26q-13 13 -25 36.5t-12 61.5q0 17 11.5 28.5t28.5 11.5t28.5 -11.5t11.5 -28.5q0 -29 13.5 -41t27.5 -12t27.5 12t13.5 41q0 17 11.5 28.5t28.5 11.5
t28.5 -11.5t11.5 -28.5q0 -38 -12 -61.5t-25 -36.5q-17 -17 -38.5 -26t-45.5 -9z" />
    <glyph glyph-name="abreve" unicode="&#x103;" horiz-adv-x="426" 
d="M363 247q-3 13 -12 21.5t-21 10.5q-28 3 -41 -20l-6 -10t-16 -25.5t-24 -34.5t-30 -38q-34 -42 -64 -59q-18 -11 -26.5 -10t-10.5 2q-10 5 -11.5 25t6.5 46q9 32 28.5 65t45.5 59q26 27 54.5 41t55.5 12q17 -1 29 10t13 28t-10 29t-28 13q-47 1 -95 -21q-40 -20 -76 -56
q-33 -33 -57.5 -74.5t-36.5 -83.5q-13 -49 -7 -89q9 -52 51 -74q9 -5 21 -8.5t26 -3.5q15 0 31.5 4.5t36.5 16.5t41.5 31t43.5 45l31 38l17 -81q4 -17 17.5 -25.5t29.5 -5.5q17 4 26 17.5t5 30.5zM213 441q-24 0 -45.5 9t-38.5 26q-13 13 -25 36.5t-12 61.5q0 17 11.5 28.5
t28.5 11.5t28.5 -11.5t11.5 -28.5q0 -29 13.5 -41t27.5 -12t27.5 12t13.5 41q0 17 11.5 28.5t28.5 11.5t28.5 -11.5t11.5 -28.5q0 -38 -12 -61.5t-25 -36.5q-17 -17 -38.5 -26t-45.5 -9z" />
    <glyph glyph-name="Aogonek" unicode="&#x104;" horiz-adv-x="797" 
d="M196 18q0 -17 -11.5 -28.5t-28.5 -11.5t-28.5 11.5t-11.5 28.5v17q-1 19 -2 53t0 79l-34 -7q-2 0 -4 -0.5t-4 -0.5q-14 0 -25 9.5t-14 23.5q-4 16 5.5 29.5t25.5 17.5l54 10q1 21 3 42.5t4 43.5q27 250 126 354q63 66 153 68q82 0 143 -61q93 -94 132 -335l35 7
q17 4 30.5 -5t16.5 -26q4 -17 -5.5 -30.5t-25.5 -16.5l-41 -8q6 -54 9 -102.5t3.5 -85t0.5 -59v-24.5q-1 -17 -12 -28t-28 -11h-1q-10 0 -17 4q-37 -42 -43.5 -76t3.5 -52q6 -11 14.5 -15.5t18.5 -5t18.5 1t14.5 3.5q16 5 30.5 -3t19.5 -24t-3 -30.5t-24 -19.5
q-27 -8 -50 -8q-12 0 -23 2t-21 5q-44 15 -66 56q-14 27 -15.5 60t11.5 68q25 69 93 127q-1 35 -3 85t-9 116l-415 -83q-2 -49 -1 -87t1 -58q1 -8 1 -12.5v-7.5zM204 326q-2 -15 -3 -30.5t-2 -29.5l401 80q-17 107 -44.5 181.5t-65.5 112.5q-37 37 -85 37q-56 -2 -96 -43
q-39 -42 -65.5 -119.5t-39.5 -188.5z" />
    <glyph glyph-name="aogonek" unicode="&#x105;" horiz-adv-x="426" 
d="M400 73q4 -17 -4.5 -30t-24.5 -18q-30 -24 -47 -47.5t-24.5 -44.5t-7 -38t6.5 -27q6 -11 14.5 -15.5t18.5 -5t18.5 1t14.5 3.5q16 5 30.5 -3t19.5 -24t-3 -30.5t-24 -19.5q-27 -8 -50 -8q-12 0 -23 2t-21 5q-44 15 -66 56q-14 27 -15.5 60t11.5 68q12 33 35 65t57 61
l-11 53l-31 -38q-22 -26 -43.5 -45t-41.5 -31t-36.5 -16.5t-31.5 -4.5q-14 0 -26 3.5t-21 8.5q-42 22 -51 74q-6 40 7 89q12 42 36.5 83.5t57.5 74.5q36 36 76 56q48 22 95 21q17 -1 28 -13t10 -29t-13 -28t-29 -10q-27 2 -55.5 -12t-54.5 -41q-26 -26 -45.5 -59t-28.5 -65
q-8 -26 -6.5 -46t11.5 -25q2 -1 10.5 -2t26.5 10q30 17 64 59q16 19 30 38t24 34.5t16 25.5l6 10q13 23 41 20q12 -2 21 -10.5t12 -21.5z" />
    <glyph glyph-name="Cacute" unicode="&#x106;" horiz-adv-x="696" 
d="M645 315q16 -5 23 -20t2 -31q-24 -69 -67 -127.5t-100 -98.5q-27 -20 -55.5 -33.5t-58.5 -21.5q-20 -6 -39 -8.5t-38 -2.5q-22 0 -43 3q-103 18 -163 110q-64 98 -64 259q0 147 45 248q41 93 116 136q52 31 113 29q58 -2 106 -30q52 -30 80.5 -81t27.5 -111
q0 -17 -11.5 -28.5t-28.5 -11.5h-1q-17 0 -28 12t-11 29q0 38 -18 70t-50 52q-33 19 -70 19t-70 -19q-25 -14 -46 -39t-36 -59q-38 -87 -38 -216q0 -126 42 -201.5t118 -88.5q42 -7 87 6t88 43q47 33 82 81t55 106q6 16 20.5 23t30.5 2zM297 836q-16 -13 -32 -10t-25.5 14.5
t-9 28t16.5 29.5l92 70q16 13 32 10t25.5 -14.5t9 -28t-16.5 -29.5z" />
    <glyph glyph-name="cacute" unicode="&#x107;" 
d="M355 204q15 -7 20.5 -22.5t-2.5 -30.5q-20 -41 -46.5 -71.5t-58.5 -50.5q-46 -28 -95 -28q-17 0 -33 3q-51 12 -84 54q-32 45 -34 105q-1 46 15 90t48 80q28 33 62 53t67 24q39 5 66.5 -15t35.5 -58q3 -17 -6 -30.5t-25 -16.5q-17 -4 -30.5 5t-16.5 26q-2 6 -4 8.5
t-11 1.5q-14 -2 -36 -14.5t-42 -35.5q-6 -7 -13.5 -18t-14.5 -26t-11 -33t-4 -39q1 -33 15.5 -55t39.5 -27q32 -8 72.5 16t71.5 87q8 15 23.5 20.5t30.5 -2.5zM217 466q-16 -13 -32 -10t-25.5 14.5t-9 28t16.5 29.5l92 70q16 13 32 10t25.5 -14.5t9 -28t-16.5 -29.5z" />
    <glyph glyph-name="Ccaron" unicode="&#x10c;" horiz-adv-x="696" 
d="M645 315q16 -5 23 -20t2 -31q-24 -69 -67 -127.5t-100 -98.5q-27 -20 -55.5 -33.5t-58.5 -21.5q-20 -6 -39 -8.5t-38 -2.5q-22 0 -43 3q-103 18 -163 110q-64 98 -64 259q0 147 45 248q41 93 116 136q52 31 113 29q58 -2 106 -30q52 -30 80.5 -81t27.5 -111
q0 -17 -11.5 -28.5t-28.5 -11.5h-1q-17 0 -28 12t-11 29q0 38 -18 70t-50 52q-33 19 -70 19t-70 -19q-25 -14 -46 -39t-36 -59q-38 -87 -38 -216q0 -126 42 -201.5t118 -88.5q42 -7 87 6t88 43q47 33 82 81t55 106q6 16 20.5 23t30.5 2zM318 851q-9 -8 -15.5 -11t-14.5 -3
q-6 0 -13 3t-17 11l-73 65q-14 15 -12 31t12.5 26.5t27 12t30.5 -13.5l45 -40l45 40q14 15 30.5 13.5t27 -12t12.5 -26.5t-12 -31z" />
    <glyph glyph-name="ccaron" unicode="&#x10d;" 
d="M355 204q15 -7 20.5 -22.5t-2.5 -30.5q-20 -41 -46.5 -71.5t-58.5 -50.5q-46 -28 -95 -28q-17 0 -33 3q-51 12 -84 54q-32 45 -34 105q-1 46 15 90t48 80q28 33 62 53t67 24q39 5 66.5 -15t35.5 -58q3 -17 -6 -30.5t-25 -16.5q-17 -4 -30.5 5t-16.5 26q-2 6 -4 8.5
t-11 1.5q-14 -2 -36 -14.5t-42 -35.5q-6 -7 -13.5 -18t-14.5 -26t-11 -33t-4 -39q1 -33 15.5 -55t39.5 -27q32 -8 72.5 16t71.5 87q8 15 23.5 20.5t30.5 -2.5zM228 481q-9 -8 -15.5 -11t-14.5 -3q-6 0 -13 3t-17 11l-73 65q-14 15 -12 31t12.5 26.5t27 12t30.5 -13.5l45 -40
l45 40q14 15 30.5 13.5t27 -12t12.5 -26.5t-12 -31z" />
    <glyph glyph-name="Dcaron" unicode="&#x10e;" horiz-adv-x="808" 
d="M585 688q99 -67 148 -179q24 -56 30.5 -113t-5.5 -114q-21 -106 -92 -183q-66 -71 -160 -104q-69 -23 -139 -23q-14 0 -27.5 1t-27.5 3q-104 14 -177 76q-13 11 -14.5 27t9.5 29t27 14.5t29 -9.5q28 -23 62.5 -38t73 -20.5t79 -1.5t79.5 18q79 28 131 87t69 140
q9 45 3.5 91t-24 89t-49 80t-70.5 64q-94 63 -209 54t-233 -87q-14 -10 -30.5 -6.5t-25.5 17.5t-6 30t17 25q147 97 292 102q133 3 240 -69zM267 126q-16 0 -27.5 11t-12.5 27l-15 388q0 17 11 29t28 12q17 1 28.5 -10t12.5 -28l15 -388q1 -17 -10 -28.5t-28 -12.5h-2z
M404 851q-9 -8 -15.5 -11t-14.5 -3q-6 0 -13 3t-17 11l-73 65q-14 15 -12 31t12.5 26.5t27 12t30.5 -13.5l45 -40l45 40q14 15 30.5 13.5t27 -12t12.5 -26.5t-12 -31z" />
    <glyph glyph-name="dcaron" unicode="&#x10f;" horiz-adv-x="586" 
d="M381 757q17 0 29 -11t12 -28l16 -725q1 -17 -10.5 -29t-28.5 -12h-1q-16 0 -27.5 11t-12.5 28l-2 109l-29 -24q-41 -32 -84.5 -51t-81.5 -24q-6 -1 -11.5 -1h-10.5q-32 0 -55 10q-40 17 -61 56q-32 63 4 135q18 36 52 70t76.5 62.5t91.5 48t97 27.5q2 1 5 1l-7 306
q0 17 11 28.5t28 12.5zM278 139q29 22 49 46t26 44l-2 100q-38 -7 -77 -23t-73.5 -38.5t-61.5 -49t-40 -53.5q-14 -27 -10.5 -41.5t5.5 -19.5q1 -3 4.5 -7.5t10 -8.5t17 -6.5t26.5 -0.5q28 3 61 18.5t65 39.5zM506 669q5 20 20 26.5t29.5 3t24 -16.5t4.5 -33l-43 -178
q-5 -20 -20 -27t-29.5 -3t-24 17t-4.5 33z" />
    <glyph glyph-name="Dcroat" unicode="&#x110;" horiz-adv-x="808" 
d="M585 688q99 -67 148 -179q24 -56 30.5 -113t-5.5 -114q-21 -106 -92 -183q-66 -71 -160 -104q-69 -23 -139 -23q-14 0 -27.5 1t-27.5 3q-104 14 -177 76q-13 11 -14.5 27t9.5 29t27 14.5t29 -9.5q28 -23 62.5 -38t73 -20.5t79 -1.5t79.5 18q79 28 131 87t69 140
q9 45 3.5 91t-24 89t-49 80t-70.5 64q-94 63 -209 54t-233 -87q-14 -10 -30.5 -6.5t-25.5 17.5t-6 30t17 25q147 97 292 102q133 3 240 -69zM171 308q-21 0 -31 12.5t-10 27.5t10 27.5t31 12.5h47l-6 164q0 17 11 29t28 12q17 1 28.5 -10t12.5 -28l6 -167h85q21 0 31 -12.5
t10 -27.5t-10 -27.5t-31 -12.5h-82l6 -141q1 -17 -10 -28.5t-28 -12.5h-2q-16 0 -27.5 11t-12.5 27l-6 144h-50z" />
    <glyph glyph-name="dcroat" unicode="&#x111;" horiz-adv-x="469" 
d="M381 757q17 0 29 -11t12 -28l2 -92h4q21 0 31 -12.5t10 -27.5t-10 -27.5t-31 -12.5h-2l12 -553q1 -17 -10.5 -29t-28.5 -12h-1q-16 0 -27.5 11t-12.5 28l-2 109l-29 -24q-41 -32 -84.5 -51t-81.5 -24q-6 -1 -11.5 -1h-10.5q-32 0 -55 10q-40 17 -61 56q-32 63 4 135
q18 36 52 70t76.5 62.5t91.5 48t97 27.5q2 1 5 1l-3 136h-104q-21 0 -31 12.5t-10 27.5t10 27.5t31 12.5h102l-2 90q0 17 11 28.5t28 12.5zM278 139q29 22 49 46t26 44l-2 100q-38 -7 -77 -23t-73.5 -38.5t-61.5 -49t-40 -53.5q-14 -27 -10.5 -41.5t5.5 -19.5q1 -3 4.5 -7.5
t10 -8.5t17 -6.5t26.5 -0.5q28 3 61 18.5t65 39.5z" />
    <glyph glyph-name="Emacron" unicode="&#x112;" horiz-adv-x="694" 
d="M631 90q17 2 29 -9t14 -28t-9 -29t-28 -14l-508 -38h-3q-15 0 -27 10q-13 12 -13 30v238h-2q-15 0 -26.5 10t-13.5 25q-2 17 8 30t27 15l7 1l1 339q0 15 10 26.5t25 13.5l368 46q17 2 30 -7.5t15 -26.5t-8 -30t-27 -15l-333 -42v-293l351 48q17 2 30 -8t15 -27t-7.5 -30
t-26.5 -15l-363 -49v-206zM198 863q-21 0 -31 12.5t-10 27.5t10 27.5t31 12.5h217q21 0 31 -12.5t10 -27.5t-10 -27.5t-31 -12.5h-217z" />
    <glyph glyph-name="emacron" unicode="&#x113;" 
d="M354 204q15 -7 21 -22.5t-2 -30.5q-42 -83 -106 -122q-23 -14 -47 -21t-47 -7q-17 0 -33 3q-51 12 -84 54q-32 45 -34 105q-1 46 15 90t47 80q29 33 63 53t67 24q39 5 66.5 -15t35.5 -58q9 -48 -21 -83q-40 -45 -137 -54q-30 -3 -54 -3q-1 -8 -1.5 -15.5t-0.5 -16.5
q1 -33 15.5 -55t39.5 -27q32 -8 72.5 16t71.5 87q8 15 23.5 20.5t29.5 -2.5zM90 463q-21 0 -31 12.5t-10 27.5t10 27.5t31 12.5h217q21 0 31 -12.5t10 -27.5t-10 -27.5t-31 -12.5h-217zM145 281l-2 -2q6 0 8 1q47 5 64 14t20 12q2 2 3 5t-1 10q-1 5 -2.5 7.5t-7.5 2.5h-4
q-15 -2 -36.5 -14.5t-41.5 -35.5z" />
    <glyph glyph-name="Edotaccent" unicode="&#x116;" horiz-adv-x="694" 
d="M631 90q17 2 29 -9t14 -28t-9 -29t-28 -14l-508 -38h-3q-15 0 -27 10q-13 12 -13 30v238h-2q-15 0 -26.5 10t-13.5 25q-2 17 8 30t27 15l7 1l1 339q0 15 10 26.5t25 13.5l368 46q17 2 30 -7.5t15 -26.5t-8 -30t-27 -15l-333 -42v-293l351 48q17 2 30 -8t15 -27t-7.5 -30
t-26.5 -15l-363 -49v-206zM352 889q0 -19 -13 -32t-32 -13t-32 13t-13 32t13 32t32 13t32 -13t13 -32z" />
    <glyph glyph-name="edotaccent" unicode="&#x117;" 
d="M354 204q15 -7 21 -22.5t-2 -30.5q-42 -83 -106 -122q-23 -14 -47 -21t-47 -7q-17 0 -33 3q-51 12 -84 54q-32 45 -34 105q-1 46 15 90t47 80q29 33 63 53t67 24q39 5 66.5 -15t35.5 -58q9 -48 -21 -83q-40 -45 -137 -54q-30 -3 -54 -3q-1 -8 -1.5 -15.5t-0.5 -16.5
q1 -33 15.5 -55t39.5 -27q32 -8 72.5 16t71.5 87q8 15 23.5 20.5t29.5 -2.5zM263 519q0 -19 -13 -32t-32 -13t-32 13t-13 32t13 32t32 13t32 -13t13 -32zM145 281l-2 -2q6 0 8 1q47 5 64 14t20 12q2 2 3 5t-1 10q-1 5 -2.5 7.5t-7.5 2.5h-4q-15 -2 -36.5 -14.5t-41.5 -35.5z
" />
    <glyph glyph-name="Eogonek" unicode="&#x118;" horiz-adv-x="694" 
d="M631 90q17 2 29 -9t14 -28t-9 -29t-28 -14l-6 -1q-1 0 -2 -1q-31 -25 -48.5 -49t-25.5 -45t-7.5 -38.5t6.5 -27.5q6 -11 14.5 -15.5t18.5 -5t18.5 1t14.5 3.5q16 5 30.5 -3t19.5 -24t-3 -30.5t-24 -19.5q-27 -8 -50 -8q-12 0 -23 2t-21 5q-44 15 -66 56q-14 27 -15.5 60
t11.5 68q5 16 13.5 32t19.5 30l-383 -28h-3q-15 0 -27 10q-13 12 -13 30v238h-2q-15 0 -26.5 10t-13.5 25q-2 17 8 30t27 15l7 1l1 339q0 15 10 26.5t25 13.5l368 46q17 2 30 -7.5t15 -26.5t-8 -30t-27 -15l-333 -42v-293l351 48q17 2 30 -8t15 -27t-7.5 -30t-26.5 -15
l-363 -49v-206l465 35v0z" />
    <glyph glyph-name="eogonek" unicode="&#x119;" 
d="M354 204q15 -7 21 -22.5t-2 -30.5q-37 -74 -90 -112q-3 -4 -7 -7q-31 -25 -48.5 -49t-25.5 -45t-7.5 -38.5t6.5 -27.5q6 -11 14.5 -15.5t18.5 -5t18.5 1t14.5 3.5q16 5 30.5 -3t19.5 -24t-3 -30.5t-24 -19.5q-27 -8 -50 -8q-12 0 -23 2t-21 5q-44 15 -66 56
q-14 27 -15.5 60t11.5 68q4 11 8.5 21t10.5 20q-3 0 -5 1q-51 12 -84 54q-32 45 -34 105q-1 46 15 90t47 80q29 33 63 53t67 24q39 5 66.5 -15t35.5 -58q9 -48 -21 -83q-40 -45 -137 -54q-30 -3 -54 -3q-1 -8 -1.5 -15.5t-0.5 -16.5q1 -33 15.5 -55t39.5 -27q32 -8 72.5 16
t71.5 87q8 15 23.5 20.5t29.5 -2.5zM145 281l-2 -2q6 0 8 1q47 5 64 14t20 12q2 2 3 5t-1 10q-1 5 -2.5 7.5t-7.5 2.5h-4q-15 -2 -36.5 -14.5t-41.5 -35.5z" />
    <glyph glyph-name="Ecaron" unicode="&#x11a;" horiz-adv-x="694" 
d="M631 90q17 2 29 -9t14 -28t-9 -29t-28 -14l-508 -38h-3q-15 0 -27 10q-13 12 -13 30v238h-2q-15 0 -26.5 10t-13.5 25q-2 17 8 30t27 15l7 1l1 339q0 15 10 26.5t25 13.5l368 46q17 2 30 -7.5t15 -26.5t-8 -30t-27 -15l-333 -42v-293l351 48q17 2 30 -8t15 -27t-7.5 -30
t-26.5 -15l-363 -49v-206zM347 851q-9 -8 -15.5 -11t-14.5 -3q-6 0 -13 3t-17 11l-73 65q-14 15 -12 31t12.5 26.5t27 12t30.5 -13.5l45 -40l45 40q14 15 30.5 13.5t27 -12t12.5 -26.5t-12 -31z" />
    <glyph glyph-name="ecaron" unicode="&#x11b;" 
d="M354 204q15 -7 21 -22.5t-2 -30.5q-42 -83 -106 -122q-23 -14 -47 -21t-47 -7q-17 0 -33 3q-51 12 -84 54q-32 45 -34 105q-1 46 15 90t47 80q29 33 63 53t67 24q39 5 66.5 -15t35.5 -58q9 -48 -21 -83q-40 -45 -137 -54q-30 -3 -54 -3q-1 -8 -1.5 -15.5t-0.5 -16.5
q1 -33 15.5 -55t39.5 -27q32 -8 72.5 16t71.5 87q8 15 23.5 20.5t29.5 -2.5zM228 481q-9 -8 -15.5 -11t-14.5 -3q-6 0 -13 3t-17 11l-73 65q-14 15 -12 31t12.5 26.5t27 12t30.5 -13.5l45 -40l45 40q14 15 30.5 13.5t27 -12t12.5 -26.5t-12 -31zM145 281l-2 -2q6 0 8 1
q47 5 64 14t20 12q2 2 3 5t-1 10q-1 5 -2.5 7.5t-7.5 2.5h-4q-15 -2 -36.5 -14.5t-41.5 -35.5z" />
    <glyph glyph-name="Gbreve" unicode="&#x11e;" horiz-adv-x="788" 
d="M739 265q16 3 25.5 16.5t6.5 29.5q-2 17 -15.5 26.5t-30.5 6.5l-316 -54q-17 -3 -26 -16.5t-7 -30.5q3 -14 14.5 -23.5t25.5 -9.5q4 0 7 1l178 30q-23 -42 -55 -77.5t-70 -61.5q-47 -30 -95.5 -42.5t-93.5 -4.5q-71 12 -114 76q-51 76 -51 212q0 117 32 197t93 115
q38 22 81.5 22t81.5 -23q34 -20 52 -50.5t18 -68.5q-1 -17 10.5 -28.5t28.5 -11.5t28.5 11t11.5 28q2 62 -30 113q-27 47 -78 76q-57 33 -122 33.5t-122 -31.5q-76 -44 -119 -136q-46 -99 -46 -246q0 -159 65 -256q30 -45 72.5 -73.5t93.5 -37.5q12 -2 24.5 -3t24.5 -1
q38 0 77 9q62 16 121 54q60 40 105 97t71 126zM324 811q-24 0 -45.5 9t-38.5 26q-13 13 -25 36.5t-12 61.5q0 17 11.5 28.5t28.5 11.5t28.5 -11.5t11.5 -28.5q0 -29 13.5 -41t27.5 -12t27.5 12t13.5 41q0 17 11.5 28.5t28.5 11.5t28.5 -11.5t11.5 -28.5q0 -38 -12 -61.5
t-25 -36.5q-17 -17 -38.5 -26t-45.5 -9z" />
    <glyph glyph-name="gbreve" unicode="&#x11f;" horiz-adv-x="399" 
d="M357 245q-5 28 -33 33q-12 2 -23.5 -3.5t-17.5 -16.5l-6 -10t-16 -25.5t-24 -34.5t-30 -38q-17 -20 -33.5 -35.5t-30.5 -23.5q-18 -11 -26.5 -10t-10.5 3q-10 5 -11.5 24.5t6.5 45.5q9 33 28.5 65.5t44.5 58.5q56 56 111 53q17 -1 28.5 10t13.5 28q1 17 -10 29t-28 13
q-46 3 -95 -20q-40 -19 -76 -57q-33 -33 -57.5 -74t-36.5 -84q-13 -49 -7 -89q9 -51 51 -74q18 -10 47 -12t68 21q41 24 85 76q6 7 11.5 14t10.5 14q2 -24 3.5 -51t1.5 -56q0 -49 -4 -91.5t-12 -77.5q-18 -80 -56 -117q-41 -38 -113 -22q-16 4 -30 -4.5t-18 -25.5
q-4 -16 5 -30t25 -18q16 -3 30.5 -5t28.5 -2q12 0 23.5 1.5t22.5 3.5q44 10 81 44q97 92 97 344q0 45 -2.5 85.5t-6 71t-6.5 49t-3 20.5zM199 441q-24 0 -45.5 9t-38.5 26q-13 13 -25 36.5t-12 61.5q0 17 11.5 28.5t28.5 11.5t28.5 -11.5t11.5 -28.5q0 -29 13.5 -41
t27.5 -12t27.5 12t13.5 41q0 17 11.5 28.5t28.5 11.5t28.5 -11.5t11.5 -28.5q0 -38 -12 -61.5t-25 -36.5q-17 -17 -38.5 -26t-45.5 -9z" />
    <glyph glyph-name="uni0122" unicode="&#x122;" horiz-adv-x="788" 
d="M696 258q-26 -69 -71 -126t-105 -97q-59 -38 -121 -54q-39 -9 -77 -9q-12 0 -24.5 1t-24.5 3q-51 9 -93.5 37.5t-72.5 73.5q-65 97 -65 256q0 147 46 246q43 92 119 136q57 32 122 31.5t122 -33.5q51 -29 78 -76q32 -51 30 -113q0 -17 -11.5 -28t-28.5 -11t-28.5 11.5
t-10.5 28.5q0 38 -18 68.5t-52 50.5q-38 23 -81.5 23t-81.5 -22q-61 -35 -93 -115t-32 -197q0 -136 51 -212q43 -64 114 -76q45 -8 93.5 4.5t95.5 42.5q38 26 70 61.5t55 77.5l-178 -30q-3 -1 -7 -1q-14 0 -25.5 9.5t-14.5 23.5q-2 17 7 30.5t26 16.5l316 54q17 3 30.5 -6.5
t15.5 -26.5q3 -16 -6.5 -29.5t-25.5 -16.5zM310 -101q5 20 20 26.5t29.5 3t24 -16.5t4.5 -33l-43 -178q-5 -20 -20 -27t-29.5 -3t-24 17t-4.5 33z" />
    <glyph glyph-name="uni0123" unicode="&#x123;" horiz-adv-x="399" 
d="M235 701q5 20 20 26.5t29.5 3t24 -16.5t4.5 -33l-43 -178q-5 -20 -20 -27t-29.5 -3t-24 17t-4.5 33zM357 245q0 -2 3 -20.5t6.5 -49t6 -71t2.5 -85.5q0 -252 -97 -344q-37 -34 -81 -44q-11 -2 -22.5 -3.5t-23.5 -1.5q-14 0 -28.5 2t-30.5 5q-16 4 -25 18t-5 30
q4 17 18 25.5t30 4.5q72 -16 113 22q38 37 56 117q8 35 12 77.5t4 91.5q0 29 -1.5 56t-3.5 51q-5 -7 -10.5 -14t-11.5 -14q-44 -52 -85 -76q-39 -23 -68 -21t-47 12q-42 23 -51 74q-6 40 7 89q12 43 36.5 84t57.5 74q36 38 76 57q49 23 95 20q17 -1 28 -13t10 -29
q-2 -17 -13.5 -28t-28.5 -10q-55 3 -111 -53q-25 -26 -44.5 -58.5t-28.5 -65.5q-8 -26 -6.5 -45.5t11.5 -24.5q2 -2 10.5 -3t26.5 10q14 8 30.5 23.5t33.5 35.5q16 19 30 38t24 34.5t16 25.5l6 10q6 11 17.5 16.5t23.5 3.5q28 -5 33 -33z" />
    <glyph glyph-name="Imacron" unicode="&#x12a;" horiz-adv-x="442" 
d="M226 656q14 43 39 63.5t51 23.5t48 -9t30.5 -34.5t-0.5 -53t-45 -64.5q-12 -13 -37.5 -35.5t-51.5 -44.5t-45.5 -38t-20.5 -16q-2 0 -17 18t-35 43t-39.5 52.5t-29.5 45.5q-17 31 -17 61t11.5 52t31 33.5t42.5 6.5t45.5 -29.5t39.5 -74.5zM201 396q17 0 29 -11t12 -28
l14 -344q0 -17 -11 -29t-28 -12h-1q-17 0 -28.5 11t-11.5 28l-14 344q0 17 11 28.5t28 12.5zM123 863q-21 0 -31 12.5t-10 27.5t10 27.5t31 12.5h217q21 0 31 -12.5t10 -27.5t-10 -27.5t-31 -12.5h-217z" />
    <glyph glyph-name="imacron" unicode="&#x12b;" horiz-adv-x="300" 
d="M203 41q1 -17 -10 -29t-28 -13h-2q-16 0 -27.5 11t-12.5 27l-12 293q-1 17 10 29t28 13t29 -10.5t13 -28.5zM43 463q-21 0 -31 12.5t-10 27.5t10 27.5t31 12.5h217q21 0 31 -12.5t10 -27.5t-10 -27.5t-31 -12.5h-217z" />
    <glyph glyph-name="Iogonek" unicode="&#x12e;" horiz-adv-x="442" 
d="M226 656q14 43 39 63.5t51 23.5t48 -9t30.5 -34.5t-0.5 -53t-45 -64.5q-12 -13 -37.5 -35.5t-51.5 -44.5t-45.5 -38t-20.5 -16q-2 0 -17 18t-35 43t-39.5 52.5t-29.5 45.5q-17 31 -17 61t11.5 52t31 33.5t42.5 6.5t45.5 -29.5t39.5 -74.5zM201 396q-17 -1 -28 -12.5
t-11 -28.5l12 -296q-64 -55 -87 -121q-13 -35 -11.5 -68t15.5 -60q22 -41 66 -56q10 -3 21 -5t23 -2q23 0 50 8q16 5 24 19.5t3 30.5t-19.5 24t-30.5 3q-6 -2 -14.5 -3.5t-18.5 -1t-18.5 5t-14.5 15.5q-10 17 -3.5 51.5t42.5 75.5q7 -3 15 -3h1q17 0 28 12t11 29l-14 344
q0 17 -12 28t-29 11z" />
    <glyph glyph-name="iogonek" unicode="&#x12f;" horiz-adv-x="144" 
d="M112 333q-1 17 -13 28.5t-29 10.5t-28 -13t-10 -29l11 -266q-33 -29 -57 -60.5t-36 -65.5q-13 -35 -11.5 -68t15.5 -60q22 -41 66 -56q10 -3 21 -5t23 -2q23 0 50 8q16 5 24 19.5t3 30.5t-19.5 24t-30.5 3q-6 -2 -14.5 -3.5t-18.5 -1t-18.5 5t-14.5 15.5q-6 10 -6.5 26
t6 36.5t22 43t42.5 46.5q16 2 26 13.5t9 27.5zM81 544q11 33 33 41t37.5 -1t18 -30.5t-25.5 -47.5q-6 -6 -19 -17.5t-26.5 -23t-23.5 -19.5l-10 -8q-1 0 -8.5 9t-18 22t-20.5 27t-15 23q-13 24 -7.5 45.5t20.5 29.5t33.5 -1.5t31.5 -48.5z" />
    <glyph glyph-name="Idotaccent" unicode="&#x130;" horiz-adv-x="442" 
d="M226 656q14 43 39 63.5t51 23.5t48 -9t30.5 -34.5t-0.5 -53t-45 -64.5q-12 -13 -37.5 -35.5t-51.5 -44.5t-45.5 -38t-20.5 -16q-2 0 -17 18t-35 43t-39.5 52.5t-29.5 45.5q-17 31 -17 61t11.5 52t31 33.5t42.5 6.5t45.5 -29.5t39.5 -74.5zM201 396q17 0 29 -11t12 -28
l14 -344q0 -17 -11 -29t-28 -12h-1q-17 0 -28.5 11t-11.5 28l-14 344q0 17 11 28.5t28 12.5zM286 889q0 -19 -13 -32t-32 -13t-32 13t-13 32t13 32t32 13t32 -13t13 -32z" />
    <glyph glyph-name="dotlessi" unicode="&#x131;" horiz-adv-x="144" 
d="M124 41q1 -17 -10 -29t-28 -13h-2q-16 0 -27.5 11t-12.5 27l-12 293q-1 17 10 29t28 13t29 -10.5t13 -28.5z" />
    <glyph glyph-name="uni0136" unicode="&#x136;" horiz-adv-x="803" 
d="M756 84q14 -9 17 -25t-7 -30q-12 -18 -33 -18q-12 0 -22 7l-518 353l12 -358q0 -17 -11 -28.5t-28 -12.5h-1q-17 0 -28.5 11t-11.5 28l-11 330l-9 -6q-10 -7 -22 -7q-21 0 -34 19q-8 14 -4.5 30t17.5 25l49 32l-9 282q0 17 11 28.5t28 12.5t29 -10.5t12 -28.5l8 -234
l419 267q14 8 30.5 4.5t24.5 -17.5q9 -14 5.5 -30t-17.5 -25l-401 -255zM330 -101q5 20 20 26.5t29.5 3t24 -16.5t4.5 -33l-43 -178q-5 -20 -20 -27t-29.5 -3t-24 17t-4.5 33z" />
    <glyph glyph-name="uni0137" unicode="&#x137;" horiz-adv-x="517" 
d="M492 71q14 -11 16 -27t-8 -29q-12 -16 -32 -16q-13 0 -24 8l-290 222l4 -216q1 -17 -10.5 -29t-28.5 -12h-1q-17 0 -28 11t-12 28l-4 208q-2 -1 -6 -1q-9 0 -18 4.5t-15 12.5q-9 14 -6.5 30t16.5 26l27 19l-7 406q-1 17 10.5 28.5t28.5 12.5q17 0 28.5 -11t12.5 -28
l6 -351l231 164q14 10 30 7.5t25 -16.5q10 -14 7.5 -30t-16.5 -26l-234 -167zM240 -101q5 20 20 26.5t29.5 3t24 -16.5t4.5 -33l-43 -178q-5 -20 -20 -27t-29.5 -3t-24 17t-4.5 33z" />
    <glyph glyph-name="Lacute" unicode="&#x139;" horiz-adv-x="687" 
d="M642 93q17 2 29 -9t14 -28t-9 -29t-28 -14l-550 -41h-3q-16 0 -27 11q-13 11 -13 29l2 705q0 17 11.5 28.5t28.5 11.5t28.5 -11.5t11.5 -28.5l-2 -662zM192 836q-16 -13 -32 -10t-25.5 14.5t-9 28t16.5 29.5l92 70q16 13 32 10t25.5 -14.5t9 -28t-16.5 -29.5z" />
    <glyph glyph-name="lacute" unicode="&#x13a;" horiz-adv-x="144" 
d="M64 757q17 0 29 -11t12 -28l14 -705q0 -17 -11 -29t-28 -12h-1q-17 0 -28.5 11t-11.5 28l-14 705q0 17 11 28.5t28 12.5zM91 816q-16 -13 -32 -10t-25.5 14.5t-9 28t16.5 29.5l92 70q16 13 32 10t25.5 -14.5t9 -28t-16.5 -29.5z" />
    <glyph glyph-name="uni013B" unicode="&#x13b;" horiz-adv-x="687" 
d="M642 93q17 2 29 -9t14 -28t-9 -29t-28 -14l-550 -41h-3q-16 0 -27 11q-13 11 -13 29l2 705q0 17 11.5 28.5t28.5 11.5t28.5 -11.5t11.5 -28.5l-2 -662zM330 -101q5 20 20 26.5t29.5 3t24 -16.5t4.5 -33l-43 -178q-5 -20 -20 -27t-29.5 -3t-24 17t-4.5 33z" />
    <glyph glyph-name="uni013C" unicode="&#x13c;" horiz-adv-x="144" 
d="M64 757q17 0 29 -11t12 -28l14 -705q0 -17 -11 -29t-28 -12h-1q-17 0 -28.5 11t-11.5 28l-14 705q0 17 11 28.5t28 12.5zM40 -101q5 20 20 26.5t29.5 3t24 -16.5t4.5 -33l-43 -178q-5 -20 -20 -27t-29.5 -3t-24 17t-4.5 33z" />
    <glyph glyph-name="Lcaron" unicode="&#x13d;" horiz-adv-x="687" 
d="M642 93q17 2 29 -9t14 -28t-9 -29t-28 -14l-550 -41h-3q-16 0 -27 11q-13 11 -13 29l2 705q0 17 11.5 28.5t28.5 11.5t28.5 -11.5t11.5 -28.5l-2 -662zM225 669q5 20 20 26.5t29.5 3t24 -16.5t4.5 -33l-43 -178q-5 -20 -20 -27t-29.5 -3t-24 17t-4.5 33z" />
    <glyph glyph-name="lcaron" unicode="&#x13e;" horiz-adv-x="254" 
d="M52 757q17 0 29 -11t12 -28l14 -705q0 -17 -11 -29t-28 -12h-1q-17 0 -28.5 11t-11.5 28l-14 705q0 17 11 28.5t28 12.5zM175 669q5 20 20 26.5t29.5 3t24 -16.5t4.5 -33l-43 -178q-5 -20 -20 -27t-29.5 -3t-24 17t-4.5 33z" />
    <glyph glyph-name="Lslash" unicode="&#x141;" horiz-adv-x="722" 
d="M63 220q-17 -12 -32.5 -7.5t-24 16.5t-7.5 28.5t18 28.5l74 51l1 380q0 17 11.5 28.5t28.5 11.5t28.5 -11.5t11.5 -28.5l-1 -324l30 21q17 12 32.5 7.5t24 -16.5t7.5 -28.5t-18 -28.5l-77 -53v-240l507 38q17 2 29 -9t14 -28t-9 -29t-28 -14l-550 -41h-3q-16 0 -27 11
q-13 11 -13 29v227l-27 -19v0z" />
    <glyph glyph-name="lslash" unicode="&#x142;" horiz-adv-x="268" 
d="M127 757q17 0 29 -11t12 -28l6 -323l27 19q17 12 32.5 7.5t24 -16.5t7.5 -28.5t-18 -28.5l-71 -49l6 -286q0 -17 -11 -29t-28 -12h-1q-17 0 -28.5 11t-11.5 28l-5 233l-34 -24q-17 -12 -32.5 -7.5t-24 16.5t-7.5 28.5t18 28.5l78 54l-7 376q0 17 11 28.5t28 12.5z" />
    <glyph glyph-name="Nacute" unicode="&#x143;" horiz-adv-x="832" 
d="M742 726q0 -2 5 -22t11 -54.5t12 -79.5t10 -96q4 -61 3 -115t-8 -101q-18 -123 -74 -194q-35 -45 -83 -67q-50 -25 -116 -25q-102 0 -181 76q-31 31 -58 73.5t-50 97.5q-25 61 -42 126t-29 126q-2 -31 -2.5 -66t-2.5 -73q-2 -61 -2.5 -118.5t-1 -102t-0.5 -72v-27.5
q0 -17 -11.5 -28.5t-28.5 -11.5t-28.5 11.5t-11.5 28.5v31.5t0.5 80t1.5 112.5t3 128q5 156 12 244q2 28 4.5 49t5.5 36q3 20 7 30q8 20 20 26.5t20 7.5q3 0 9 -0.5t13 -3.5t14 -9.5t12 -18.5q4 -10 9 -29q3 -16 6.5 -37t7.5 -47q6 -36 14 -80.5t18.5 -92t24.5 -96t32 -93.5
q82 -198 215 -198q87 0 136 61q39 51 55 140.5t7 214.5q-3 49 -9 92t-12 75.5t-10.5 52l-4.5 19.5q-4 17 4.5 30.5t24.5 18.5q17 4 31 -4.5t18 -25.5zM395 836q-16 -13 -32 -10t-25.5 14.5t-9 28t16.5 29.5l92 70q16 13 32 10t25.5 -14.5t9 -28t-16.5 -29.5z" />
    <glyph glyph-name="nacute" unicode="&#x144;" horiz-adv-x="439" 
d="M346 351q48 -45 62 -130q6 -43 1 -92t-21 -100q-10 -28 -38 -28q-8 0 -12 2q-16 5 -24 19.5t-3 30.5q28 88 17 156q-8 56 -37 84q-24 23 -54 12q-18 -7 -35 -25.5t-31 -45.5q-18 -37 -30 -87t-17 -110q-2 -16 -13.5 -26.5t-27.5 -9.5q-16 0 -27.5 11t-11.5 27l-13 330
q-1 17 10.5 29t28.5 13t28.5 -10.5t12.5 -28.5l3 -77q39 64 94 85q36 14 74 6q35 -8 64 -35zM258 466q-16 -13 -32 -10t-25.5 14.5t-9 28t16.5 29.5l92 70q16 13 32 10t25.5 -14.5t9 -28t-16.5 -29.5z" />
    <glyph glyph-name="uni0145" unicode="&#x145;" horiz-adv-x="832" 
d="M742 726q0 -2 5 -22t11 -54.5t12 -79.5t10 -96q4 -61 3 -115t-8 -101q-18 -123 -74 -194q-35 -45 -83 -67q-50 -25 -116 -25q-102 0 -181 76q-31 31 -58 73.5t-50 97.5q-25 61 -42 126t-29 126q-2 -31 -2.5 -66t-2.5 -73q-2 -61 -2.5 -118.5t-1 -102t-0.5 -72v-27.5
q0 -17 -11.5 -28.5t-28.5 -11.5t-28.5 11.5t-11.5 28.5v31.5t0.5 80t1.5 112.5t3 128q5 156 12 244q2 28 4.5 49t5.5 36q3 20 7 30q8 20 20 26.5t20 7.5q3 0 9 -0.5t13 -3.5t14 -9.5t12 -18.5q4 -10 9 -29q3 -16 6.5 -37t7.5 -47q6 -36 14 -80.5t18.5 -92t24.5 -96t32 -93.5
q82 -198 215 -198q87 0 136 61q39 51 55 140.5t7 214.5q-3 49 -9 92t-12 75.5t-10.5 52l-4.5 19.5q-4 17 4.5 30.5t24.5 18.5q17 4 31 -4.5t18 -25.5zM330 -101q5 20 20 26.5t29.5 3t24 -16.5t4.5 -33l-43 -178q-5 -20 -20 -27t-29.5 -3t-24 17t-4.5 33z" />
    <glyph glyph-name="uni0146" unicode="&#x146;" horiz-adv-x="439" 
d="M190 -101q5 20 20 26.5t29.5 3t24 -16.5t4.5 -33l-43 -178q-5 -20 -20 -27t-29.5 -3t-24 17t-4.5 33zM346 351q48 -45 62 -130q6 -43 1 -92t-21 -100q-10 -28 -38 -28q-8 0 -12 2q-16 5 -24 19.5t-3 30.5q28 88 17 156q-8 56 -37 84q-24 23 -54 12q-18 -7 -35 -25.5
t-31 -45.5q-18 -37 -30 -87t-17 -110q-2 -16 -13.5 -26.5t-27.5 -9.5q-16 0 -27.5 11t-11.5 27l-13 330q-1 17 10.5 29t28.5 13t28.5 -10.5t12.5 -28.5l3 -77q39 64 94 85q36 14 74 6q35 -8 64 -35z" />
    <glyph glyph-name="Ncaron" unicode="&#x147;" horiz-adv-x="832" 
d="M742 726q0 -2 5 -22t11 -54.5t12 -79.5t10 -96q4 -61 3 -115t-8 -101q-18 -123 -74 -194q-35 -45 -83 -67q-50 -25 -116 -25q-102 0 -181 76q-31 31 -58 73.5t-50 97.5q-25 61 -42 126t-29 126q-2 -31 -2.5 -66t-2.5 -73q-2 -61 -2.5 -118.5t-1 -102t-0.5 -72v-27.5
q0 -17 -11.5 -28.5t-28.5 -11.5t-28.5 11.5t-11.5 28.5v31.5t0.5 80t1.5 112.5t3 128q5 156 12 244q2 28 4.5 49t5.5 36q3 20 7 30q8 20 20 26.5t20 7.5q3 0 9 -0.5t13 -3.5t14 -9.5t12 -18.5q4 -10 9 -29q3 -16 6.5 -37t7.5 -47q6 -36 14 -80.5t18.5 -92t24.5 -96t32 -93.5
q82 -198 215 -198q87 0 136 61q39 51 55 140.5t7 214.5q-3 49 -9 92t-12 75.5t-10.5 52l-4.5 19.5q-4 17 4.5 30.5t24.5 18.5q17 4 31 -4.5t18 -25.5zM446 851q-9 -8 -15.5 -11t-14.5 -3q-6 0 -13 3t-17 11l-73 65q-14 15 -12 31t12.5 26.5t27 12t30.5 -13.5l45 -40l45 40
q14 15 30.5 13.5t27 -12t12.5 -26.5t-12 -31z" />
    <glyph glyph-name="ncaron" unicode="&#x148;" horiz-adv-x="439" 
d="M346 351q48 -45 62 -130q6 -43 1 -92t-21 -100q-10 -28 -38 -28q-8 0 -12 2q-16 5 -24 19.5t-3 30.5q28 88 17 156q-8 56 -37 84q-24 23 -54 12q-18 -7 -35 -25.5t-31 -45.5q-18 -37 -30 -87t-17 -110q-2 -16 -13.5 -26.5t-27.5 -9.5q-16 0 -27.5 11t-11.5 27l-13 330
q-1 17 10.5 29t28.5 13t28.5 -10.5t12.5 -28.5l3 -77q39 64 94 85q36 14 74 6q35 -8 64 -35zM249 481q-9 -8 -15.5 -11t-14.5 -3q-6 0 -13 3t-17 11l-73 65q-14 15 -12 31t12.5 26.5t27 12t30.5 -13.5l45 -40l45 40q14 15 30.5 13.5t27 -12t12.5 -26.5t-12 -31z" />
    <glyph glyph-name="Omacron" unicode="&#x14c;" horiz-adv-x="788" 
d="M632 645q57 -35 88 -102q34 -73 31 -169q-2 -83 -28.5 -154t-76.5 -127q-45 -50 -102.5 -80.5t-121.5 -38.5q-11 -1 -21 -1.5t-20 -0.5q-33 0 -63 6q-54 11 -97 39q-48 30 -81 77t-50 108q-23 81 -18.5 153.5t26.5 134.5t57.5 111.5t76.5 84.5q49 41 97 60q28 10 52.5 11
t44.5 -8q15 -7 21 -22.5t-1 -30.5t-22.5 -21t-30.5 1q-2 1 -11 0.5t-25 -5.5q-17 -7 -35.5 -18.5t-36.5 -27.5q-34 -29 -63.5 -70t-48 -92.5t-22 -112t15.5 -127.5q15 -53 42 -88t60.5 -54.5t70.5 -25.5t72 -1q45 6 90.5 28.5t82.5 63t60.5 97.5t25.5 132q2 73 -18.5 125
t-61.5 76q-28 17 -60 17.5t-60 -15.5q-8 -5 -17 -12.5t-17.5 -19.5t-14 -28.5t-5.5 -38.5q0 -17 -11.5 -28.5t-28.5 -11.5t-28.5 11.5t-11.5 28.5q0 56 26 102q26 41 69 67q47 26 100.5 25t99.5 -28zM305 863q-21 0 -31 12.5t-10 27.5t10 27.5t31 12.5h217q21 0 31 -12.5
t10 -27.5t-10 -27.5t-31 -12.5h-217z" />
    <glyph glyph-name="omacron" unicode="&#x14d;" horiz-adv-x="404" 
d="M329 369q23 -26 37 -66q15 -44 13 -104q-2 -81 -53 -137q-48 -51 -115 -60q-6 -1 -11.5 -1h-11.5q-45 0 -84 22q-52 32 -70 95q-21 71 3 138q12 35 30.5 58t33.5 36q27 24 53 34q36 14 63 2l1 -1q5 14 18.5 21t28.5 4q5 -1 23.5 -9.5t40.5 -31.5zM299 202q2 48 -8.5 74.5
t-21.5 38.5q-5 5 -8.5 8t-6.5 5q-4 3 -7 4l-9 3v-2q-7 -14 -21 -20.5t-28 -1.5q-7 -1 -23.5 -11.5t-33.5 -32.5q-14 -20 -24 -52t2 -75q6 -19 16 -31t22 -18.5t26 -8.5t27 0q18 2 35 10.5t31 23.5t22.5 36.5t9.5 49.5zM93 463q-21 0 -31 12.5t-10 27.5t10 27.5t31 12.5h217
q21 0 31 -12.5t10 -27.5t-10 -27.5t-31 -12.5h-217zM200 209q9 27 27 34t31 -0.5t15 -25.5t-21 -39q-6 -5 -16.5 -14.5t-21.5 -18.5t-19.5 -16l-8.5 -7q-1 0 -7.5 7.5t-14.5 18t-16.5 22t-12.5 19.5q-11 20 -6 37.5t17 24.5t27.5 -1.5t26.5 -40.5z" />
    <glyph glyph-name="Ohungarumlaut" unicode="&#x150;" horiz-adv-x="788" 
d="M632 645q57 -35 88 -102q34 -73 31 -169q-2 -83 -28.5 -154t-76.5 -127q-45 -50 -102.5 -80.5t-121.5 -38.5q-11 -1 -21 -1.5t-20 -0.5q-33 0 -63 6q-54 11 -97 39q-48 30 -81 77t-50 108q-23 81 -18.5 153.5t26.5 134.5t57.5 111.5t76.5 84.5q49 41 97 60q28 10 52.5 11
t44.5 -8q15 -7 21 -22.5t-1 -30.5t-22.5 -21t-30.5 1q-2 1 -11 0.5t-25 -5.5q-17 -7 -35.5 -18.5t-36.5 -27.5q-34 -29 -63.5 -70t-48 -92.5t-22 -112t15.5 -127.5q15 -53 42 -88t60.5 -54.5t70.5 -25.5t72 -1q45 6 90.5 28.5t82.5 63t60.5 97.5t25.5 132q2 73 -18.5 125
t-61.5 76q-28 17 -60 17.5t-60 -15.5q-8 -5 -17 -12.5t-17.5 -19.5t-14 -28.5t-5.5 -38.5q0 -17 -11.5 -28.5t-28.5 -11.5t-28.5 11.5t-11.5 28.5q0 56 26 102q26 41 69 67q47 26 100.5 25t99.5 -28zM391 863q-9 -18 -25 -21.5t-29 3.5t-19.5 22t3.5 33l56 101q9 18 25 21.5
t29 -3.5t19.5 -22t-3.5 -33zM531 863q-9 -18 -25 -21.5t-29 3.5t-19.5 22t3.5 33l56 101q9 18 25 21.5t29 -3.5t19.5 -22t-3.5 -33z" />
    <glyph glyph-name="ohungarumlaut" unicode="&#x151;" horiz-adv-x="404" 
d="M329 369q23 -26 37 -66q15 -44 13 -104q-2 -81 -53 -137q-48 -51 -115 -60q-6 -1 -11.5 -1h-11.5q-45 0 -84 22q-52 32 -70 95q-21 71 3 138q12 35 30.5 58t33.5 36q27 24 53 34q36 14 63 2l1 -1q5 14 18.5 21t28.5 4q5 -1 23.5 -9.5t40.5 -31.5zM299 202q2 48 -8.5 74.5
t-21.5 38.5q-5 5 -8.5 8t-6.5 5q-4 3 -7 4l-9 3v-2q-7 -14 -21 -20.5t-28 -1.5q-7 -1 -23.5 -11.5t-33.5 -32.5q-14 -20 -24 -52t2 -75q6 -19 16 -31t22 -18.5t26 -8.5t27 0q18 2 35 10.5t31 23.5t22.5 36.5t9.5 49.5zM189 493q-9 -18 -25 -21.5t-29 3.5t-19.5 22t3.5 33
l56 101q9 18 25 21.5t29 -3.5t19.5 -22t-3.5 -33zM329 493q-9 -18 -25 -21.5t-29 3.5t-19.5 22t3.5 33l56 101q9 18 25 21.5t29 -3.5t19.5 -22t-3.5 -33zM200 209q9 27 27 34t31 -0.5t15 -25.5t-21 -39q-6 -5 -16.5 -14.5t-21.5 -18.5t-19.5 -16l-8.5 -7q-1 0 -7.5 7.5
t-14.5 18t-16.5 22t-12.5 19.5q-11 20 -6 37.5t17 24.5t27.5 -1.5t26.5 -40.5z" />
    <glyph glyph-name="OE" unicode="&#x152;" horiz-adv-x="1282" 
d="M632 645l22 -16t21 -19v60q0 15 10 26.5t25 13.5l368 46q17 2 30 -7.5t15 -26.5t-8 -30t-27 -15l-333 -42v-293l351 48q17 2 30 -8t15 -27t-7.5 -30t-26.5 -15l-363 -49v-206l465 35q17 2 29 -9t14 -28t-9 -29t-28 -14l-508 -38h-3q-15 0 -27 10q-13 12 -13 30v116
q-7 -9 -13.5 -18t-14.5 -17q-45 -50 -102.5 -80.5t-121.5 -38.5q-11 -1 -21 -1.5t-20 -0.5q-33 0 -63 6q-54 11 -97 39q-48 30 -81 77t-50 108q-23 81 -18.5 153.5t26.5 134.5t57.5 111.5t76.5 84.5q49 41 97 60q28 10 52.5 11t44.5 -8q15 -7 21 -22.5t-1 -30.5t-22.5 -21
t-30.5 1q-2 1 -11 0.5t-25 -5.5q-17 -7 -35.5 -18.5t-36.5 -27.5q-34 -29 -63.5 -70t-48 -92.5t-22 -112t15.5 -127.5q15 -53 42 -88t60.5 -54.5t70.5 -25.5t72 -1q35 4 71 19t67.5 40t57.5 61t42 82q-15 9 -18 29q-2 17 8 30t27 15q2 11 2.5 22t1.5 23q2 73 -18.5 125
t-61.5 76q-28 17 -60 17.5t-60 -15.5q-8 -5 -17 -12.5t-17.5 -19.5t-14 -28.5t-5.5 -38.5q0 -17 -11.5 -28.5t-28.5 -11.5t-28.5 11.5t-11.5 28.5q0 56 26 102q26 41 69 67q47 26 100.5 25t99.5 -28z" />
    <glyph glyph-name="oe" unicode="&#x153;" horiz-adv-x="671" 
d="M329 369q8 -9 14.5 -19t11.5 -21l3 4q29 33 63 53t67 24q39 5 66.5 -15t35.5 -58q9 -48 -21 -83q-40 -45 -137 -54q-30 -3 -53 -3q-1 -8 -1 -16t-2 -16q1 -33 15.5 -55t39.5 -27q32 -8 72.5 16t71.5 87q8 15 23.5 20.5t29.5 -2.5q15 -7 21 -22.5t-2 -30.5
q-42 -83 -106 -122q-23 -14 -47 -21t-47 -7q-17 0 -33 3q-51 12 -84 54l-4 4q-48 -51 -115 -60q-6 -1 -11.5 -1h-11.5q-45 0 -84 22q-52 32 -70 95q-21 71 3 138q12 35 30.5 58t33.5 36q27 24 53 34q36 14 63 2l1 -1q5 14 18.5 21t28.5 4q5 -1 23.5 -9.5t40.5 -31.5z
M296 175q0 15 3 30q1 47 -9 72.5t-21 37.5q-5 5 -8.5 8t-6.5 5q-4 3 -7 4l-9 3v-2q-7 -14 -21 -20.5t-28 -1.5q-7 -1 -23.5 -11.5t-33.5 -32.5q-14 -20 -24 -52t2 -75q6 -19 16 -31t22 -18.5t26 -8.5t27 0q31 4 58.5 26.5t36.5 66.5zM200 209q9 27 27 34t31 -0.5t15 -25.5
t-21 -39q-6 -5 -16.5 -14.5t-21.5 -18.5t-19.5 -16l-8.5 -7q-1 0 -7.5 7.5t-14.5 18t-16.5 22t-12.5 19.5q-11 20 -6 37.5t17 24.5t27.5 -1.5t26.5 -40.5zM419 281l-2 -2q6 0 8 1q47 5 64 14t20 12q2 2 3 5t-1 10q-1 5 -2.5 7.5t-7.5 2.5h-4q-15 -2 -36.5 -14.5t-41.5 -35.5
z" />
    <glyph glyph-name="Racute" unicode="&#x154;" horiz-adv-x="744" 
d="M572 224q28 -18 52 -38t42 -42q45 -51 45 -99q0 -17 -11.5 -28.5t-28.5 -11.5t-28.5 11.5t-11.5 28.5q0 15 -24.5 46.5t-76.5 63.5q-43 26 -83.5 37.5t-69.5 5.5q-6 -2 -9 -4q-5 -1 -15 -5q-26 -8 -53.5 -14t-56.5 -8l6 -153q1 -17 -10 -29t-28 -13h-2q-16 0 -27.5 11
t-12.5 27l-18 450q-1 17 10 29t28 12q17 1 29 -10t13 -28l9 -216q45 4 86 18q11 5 28 10q37 15 68 35.5t55 44.5t42 50.5t29 52.5q23 49 23.5 94t-20.5 72q-23 29 -60 42.5t-85 9.5q-34 -3 -73.5 -17t-79.5 -41t-78 -68.5t-69 -99.5q-8 -15 -24 -20t-30 3q-15 8 -20 24t3 31
q32 59 74 107.5t93 84.5q47 32 97 51.5t100 24.5q67 5 123 -16.5t92 -66.5q37 -46 37 -116q0 -32 -7.5 -65.5t-22.5 -66.5q-43 -97 -129 -163q40 -13 80 -38zM382 836q-16 -13 -32 -10t-25.5 14.5t-9 28t16.5 29.5l92 70q16 13 32 10t25.5 -14.5t9 -28t-16.5 -29.5z" />
    <glyph glyph-name="racute" unicode="&#x155;" horiz-adv-x="418" 
d="M360 339q42 -48 52 -124q2 -16 -8 -29t-27 -15q-2 -1 -5 -1q-15 0 -26.5 10t-13.5 25q-6 46 -26.5 75t-47.5 29h-1q-39 -2 -73 -56q-17 -26 -34.5 -76.5t-25.5 -138.5q-1 -16 -12.5 -26.5t-26.5 -10.5h-1q-16 0 -27.5 11t-11.5 27l-13 330q-1 17 10 29t28 13t29 -10.5
t13 -28.5l3 -78q0 1 1 2q28 45 64 68t75 25q29 0 56.5 -12.5t48.5 -37.5zM229 466q-16 -13 -32 -10t-25.5 14.5t-9 28t16.5 29.5l92 70q16 13 32 10t25.5 -14.5t9 -28t-16.5 -29.5z" />
    <glyph glyph-name="uni0156" unicode="&#x156;" horiz-adv-x="744" 
d="M572 224q28 -18 52 -38t42 -42q45 -51 45 -99q0 -17 -11.5 -28.5t-28.5 -11.5t-28.5 11.5t-11.5 28.5q0 15 -24.5 46.5t-76.5 63.5q-43 26 -83.5 37.5t-69.5 5.5q-6 -2 -9 -4q-5 -1 -15 -5q-26 -8 -53.5 -14t-56.5 -8l6 -153q1 -17 -10 -29t-28 -13h-2q-16 0 -27.5 11
t-12.5 27l-18 450q-1 17 10 29t28 12q17 1 29 -10t13 -28l9 -216q45 4 86 18q11 5 28 10q37 15 68 35.5t55 44.5t42 50.5t29 52.5q23 49 23.5 94t-20.5 72q-23 29 -60 42.5t-85 9.5q-34 -3 -73.5 -17t-79.5 -41t-78 -68.5t-69 -99.5q-8 -15 -24 -20t-30 3q-15 8 -20 24t3 31
q32 59 74 107.5t93 84.5q47 32 97 51.5t100 24.5q67 5 123 -16.5t92 -66.5q37 -46 37 -116q0 -32 -7.5 -65.5t-22.5 -66.5q-43 -97 -129 -163q40 -13 80 -38zM360 -101q5 20 20 26.5t29.5 3t24 -16.5t4.5 -33l-43 -178q-5 -20 -20 -27t-29.5 -3t-24 17t-4.5 33z" />
    <glyph glyph-name="uni0157" unicode="&#x157;" horiz-adv-x="418" 
d="M360 339q42 -48 52 -124q2 -16 -8 -29t-27 -15q-2 -1 -5 -1q-15 0 -26.5 10t-13.5 25q-6 46 -26.5 75t-47.5 29h-1q-39 -2 -73 -56q-17 -26 -34.5 -76.5t-25.5 -138.5q-1 -16 -12.5 -26.5t-26.5 -10.5h-1q-16 0 -27.5 11t-11.5 27l-13 330q-1 17 10 29t28 13t29 -10.5
t13 -28.5l3 -78q0 1 1 2q28 45 64 68t75 25q29 0 56.5 -12.5t48.5 -37.5zM40 -101q5 20 20 26.5t29.5 3t24 -16.5t4.5 -33l-43 -178q-5 -20 -20 -27t-29.5 -3t-24 17t-4.5 33z" />
    <glyph glyph-name="Rcaron" unicode="&#x158;" horiz-adv-x="744" 
d="M572 224q28 -18 52 -38t42 -42q45 -51 45 -99q0 -17 -11.5 -28.5t-28.5 -11.5t-28.5 11.5t-11.5 28.5q0 15 -24.5 46.5t-76.5 63.5q-43 26 -83.5 37.5t-69.5 5.5q-6 -2 -9 -4q-5 -1 -15 -5q-26 -8 -53.5 -14t-56.5 -8l6 -153q1 -17 -10 -29t-28 -13h-2q-16 0 -27.5 11
t-12.5 27l-18 450q-1 17 10 29t28 12q17 1 29 -10t13 -28l9 -216q45 4 86 18q11 5 28 10q37 15 68 35.5t55 44.5t42 50.5t29 52.5q23 49 23.5 94t-20.5 72q-23 29 -60 42.5t-85 9.5q-34 -3 -73.5 -17t-79.5 -41t-78 -68.5t-69 -99.5q-8 -15 -24 -20t-30 3q-15 8 -20 24t3 31
q32 59 74 107.5t93 84.5q47 32 97 51.5t100 24.5q67 5 123 -16.5t92 -66.5q37 -46 37 -116q0 -32 -7.5 -65.5t-22.5 -66.5q-43 -97 -129 -163q40 -13 80 -38zM413 851q-9 -8 -15.5 -11t-14.5 -3q-6 0 -13 3t-17 11l-73 65q-14 15 -12 31t12.5 26.5t27 12t30.5 -13.5l45 -40
l45 40q14 15 30.5 13.5t27 -12t12.5 -26.5t-12 -31z" />
    <glyph glyph-name="rcaron" unicode="&#x159;" horiz-adv-x="418" 
d="M360 339q42 -48 52 -124q2 -16 -8 -29t-27 -15q-2 -1 -5 -1q-15 0 -26.5 10t-13.5 25q-6 46 -26.5 75t-47.5 29h-1q-39 -2 -73 -56q-17 -26 -34.5 -76.5t-25.5 -138.5q-1 -16 -12.5 -26.5t-26.5 -10.5h-1q-16 0 -27.5 11t-11.5 27l-13 330q-1 17 10 29t28 13t29 -10.5
t13 -28.5l3 -78q0 1 1 2q28 45 64 68t75 25q29 0 56.5 -12.5t48.5 -37.5zM239 481q-9 -8 -15.5 -11t-14.5 -3q-6 0 -13 3t-17 11l-73 65q-14 15 -12 31t12.5 26.5t27 12t30.5 -13.5l45 -40l45 40q14 15 30.5 13.5t27 -12t12.5 -26.5t-12 -31z" />
    <glyph glyph-name="Sacute" unicode="&#x15a;" horiz-adv-x="692" 
d="M560 350q24 -16 41.5 -33.5t30.5 -37.5q29 -47 26 -104q-2 -45 -21.5 -82.5t-55.5 -64.5q-31 -24 -71 -37.5t-87 -17.5q-8 -1 -14.5 -1h-14.5q-56 0 -110.5 14.5t-101.5 41.5q-59 35 -97 85q-22 27 -35.5 58t-20.5 65q-3 17 6 30.5t26 16.5q16 4 29.5 -5.5t16.5 -25.5
q10 -51 41.5 -90t74.5 -64.5t94 -37t100 -7.5q14 1 40 5.5t52.5 18t46.5 37.5t22 64q2 32 -13 57t-49 48q-35 23 -80 40t-92 33q-42 14 -79 28t-69 32q-82 46 -88 115q-9 83 55 144q52 48 136 69q40 10 83.5 12t81.5 -5.5t67.5 -26t42.5 -48.5q6 -15 0 -30t-22 -22
q-15 -6 -30.5 0t-21.5 22q-3 7 -16.5 14.5t-39.5 12.5q-28 5 -60.5 3.5t-64.5 -9.5q-12 -3 -35.5 -11.5t-46 -24t-38 -38t-12.5 -54.5q2 -17 18.5 -32t42 -27.5t57.5 -24.5t65 -23q51 -17 100 -36t90 -46zM365 836q-16 -13 -32 -10t-25.5 14.5t-9 28t16.5 29.5l92 70
q16 13 32 10t25.5 -14.5t9 -28t-16.5 -29.5z" />
    <glyph glyph-name="sacute" unicode="&#x15b;" horiz-adv-x="400" 
d="M319 219q19 -12 30.5 -25t17.5 -26t8 -26t1 -23q-2 -55 -51 -87q-37 -23 -91 -29q-9 -1 -18.5 -1.5t-19.5 -0.5q-22 0 -43.5 2.5t-41.5 7.5q-76 20 -88 66q-5 16 3.5 30t24.5 19q15 5 28.5 -2.5t19.5 -21.5q5 -4 20 -9.5t43 -9.5t54.5 -2t46.5 10q12 4 19 9t10 9.5t3.5 8
t0.5 5.5q1 10 -6 18t-20.5 15t-31.5 13.5t-40 13.5q-21 7 -39.5 14t-35.5 16q-49 25 -54 70q-5 42 23 74t81 46q45 12 87 6q57 -9 74 -48q7 -15 0.5 -30.5t-21.5 -22.5q-14 -6 -28.5 -1t-22.5 19q-3 2 -12.5 4t-23.5 1q-16 -1 -31.5 -5t-27.5 -10q-14 -8 -16.5 -14.5
t-2.5 -9.5q2 -1 5.5 -4.5t14.5 -8.5t25 -10t30 -10q25 -8 50 -17t46 -23zM229 466q-16 -13 -32 -10t-25.5 14.5t-9 28t16.5 29.5l92 70q16 13 32 10t25.5 -14.5t9 -28t-16.5 -29.5z" />
    <glyph glyph-name="Scedilla" unicode="&#x15e;" horiz-adv-x="692" 
d="M560 350q24 -16 41.5 -33.5t30.5 -37.5q29 -47 26 -104q-2 -45 -21.5 -82.5t-55.5 -64.5q-31 -24 -71 -37.5t-87 -17.5q-8 -1 -14.5 -1h-14.5q-10 0 -19.5 0.5t-18.5 1.5l-2 -6q6 0 12 -1t11 -3q39 -9 61 -40q19 -26 20 -58t-16 -61q-23 -38 -69 -55q-30 -12 -68 -12
q-20 0 -41 3q-17 3 -26.5 16t-7.5 30q3 17 16 26.5t30 6.5q41 -6 69 5q20 6 28 21q11 17 1 30q-16 20 -62 9q-21 -5 -38 10q-7 8 -10 17.5t0 20.5l16 55q-55 14 -98 40q-59 35 -97 85q-22 27 -35.5 58t-20.5 65q-3 17 6 30.5t26 16.5q16 4 29.5 -5.5t16.5 -25.5
q10 -51 41.5 -90t74.5 -64.5t94 -37t100 -7.5q14 1 40 5.5t52.5 18t46.5 37.5t22 64q2 32 -13 57t-49 48q-35 23 -80 40t-92 33q-42 14 -79 28t-69 32q-82 46 -88 115q-9 83 55 144q52 48 136 69q40 10 83.5 12t81.5 -5.5t67.5 -26t42.5 -48.5q6 -15 0 -30t-22 -22
q-15 -6 -30.5 0t-21.5 22q-3 7 -16.5 14.5t-39.5 12.5q-28 5 -60.5 3.5t-64.5 -9.5q-12 -3 -35.5 -11.5t-46 -24t-38 -38t-12.5 -54.5q2 -17 18.5 -32t42 -27.5t57.5 -24.5t65 -23q51 -17 100 -36t90 -46z" />
    <glyph glyph-name="scedilla" unicode="&#x15f;" horiz-adv-x="400" 
d="M319 219q19 -12 30.5 -25t17.5 -26t8 -26t1 -23q-2 -55 -51 -87q-37 -23 -91 -29l-19 -2l-7 -33q6 0 12 -1t11 -3q39 -9 61 -40q19 -26 20 -58t-16 -61q-23 -38 -69 -55q-30 -12 -68 -12q-20 0 -41 3q-17 3 -26.5 16t-7.5 30q3 17 16 26.5t30 6.5q41 -6 69 5q20 6 28 21
q11 17 1 30q-16 20 -62 9q-21 -5 -38 10q-7 8 -10 17.5t0 20.5l17 73q-12 1 -24 5q-76 20 -88 66q-5 16 3.5 30t24.5 19q15 5 28.5 -2.5t19.5 -21.5q5 -4 20 -9.5t43 -9.5t54.5 -2t46.5 10q12 4 19 9t10 9.5t3.5 8t0.5 5.5q1 10 -6 18t-20.5 15t-31.5 13.5t-40 13.5
q-21 7 -39.5 14t-35.5 16q-49 25 -54 70q-5 42 23 74t81 46q45 12 87 6q57 -9 74 -48q7 -15 0.5 -30.5t-21.5 -22.5q-14 -6 -28.5 -1t-22.5 19q-3 2 -12.5 4t-23.5 1q-16 -1 -31.5 -5t-27.5 -10q-14 -8 -16.5 -14.5t-2.5 -9.5q2 -1 5.5 -4.5t14.5 -8.5t25 -10t30 -10
q25 -8 50 -17t46 -23z" />
    <glyph glyph-name="Scaron" unicode="&#x160;" horiz-adv-x="692" 
d="M560 350q24 -16 41.5 -33.5t30.5 -37.5q29 -47 26 -104q-2 -45 -21.5 -82.5t-55.5 -64.5q-31 -24 -71 -37.5t-87 -17.5q-8 -1 -14.5 -1h-14.5q-56 0 -110.5 14.5t-101.5 41.5q-59 35 -97 85q-22 27 -35.5 58t-20.5 65q-3 17 6 30.5t26 16.5q16 4 29.5 -5.5t16.5 -25.5
q10 -51 41.5 -90t74.5 -64.5t94 -37t100 -7.5q14 1 40 5.5t52.5 18t46.5 37.5t22 64q2 32 -13 57t-49 48q-35 23 -80 40t-92 33q-42 14 -79 28t-69 32q-82 46 -88 115q-9 83 55 144q52 48 136 69q40 10 83.5 12t81.5 -5.5t67.5 -26t42.5 -48.5q6 -15 0 -30t-22 -22
q-15 -6 -30.5 0t-21.5 22q-3 7 -16.5 14.5t-39.5 12.5q-28 5 -60.5 3.5t-64.5 -9.5q-12 -3 -35.5 -11.5t-46 -24t-38 -38t-12.5 -54.5q2 -17 18.5 -32t42 -27.5t57.5 -24.5t65 -23q51 -17 100 -36t90 -46zM396 851q-9 -8 -15.5 -11t-14.5 -3q-6 0 -13 3t-17 11l-73 65
q-14 15 -12 31t12.5 26.5t27 12t30.5 -13.5l45 -40l45 40q14 15 30.5 13.5t27 -12t12.5 -26.5t-12 -31z" />
    <glyph glyph-name="scaron" unicode="&#x161;" horiz-adv-x="400" 
d="M319 219q19 -12 30.5 -25t17.5 -26t8 -26t1 -23q-2 -55 -51 -87q-37 -23 -91 -29q-9 -1 -18.5 -1.5t-19.5 -0.5q-22 0 -43.5 2.5t-41.5 7.5q-76 20 -88 66q-5 16 3.5 30t24.5 19q15 5 28.5 -2.5t19.5 -21.5q5 -4 20 -9.5t43 -9.5t54.5 -2t46.5 10q12 4 19 9t10 9.5t3.5 8
t0.5 5.5q1 10 -6 18t-20.5 15t-31.5 13.5t-40 13.5q-21 7 -39.5 14t-35.5 16q-49 25 -54 70q-5 42 23 74t81 46q45 12 87 6q57 -9 74 -48q7 -15 0.5 -30.5t-21.5 -22.5q-14 -6 -28.5 -1t-22.5 19q-3 2 -12.5 4t-23.5 1q-16 -1 -31.5 -5t-27.5 -10q-14 -8 -16.5 -14.5
t-2.5 -9.5q2 -1 5.5 -4.5t14.5 -8.5t25 -10t30 -10q25 -8 50 -17t46 -23zM240 481q-9 -8 -15.5 -11t-14.5 -3q-6 0 -13 3t-17 11l-73 65q-14 15 -12 31t12.5 26.5t27 12t30.5 -13.5l45 -40l45 40q14 15 30.5 13.5t27 -12t12.5 -26.5t-12 -31z" />
    <glyph glyph-name="uni0162" unicode="&#x162;" horiz-adv-x="757" 
d="M744 721q2 -17 -8.5 -29.5t-26.5 -14.5l-316 -34l-13 -632q-1 -17 -12 -28t-28 -11h-1q-17 0 -28 12t-11 29l13 621l-254 -27q-2 0 -2.5 -0.5t-2.5 -0.5q-15 0 -26.5 10.5t-13.5 25.5q-2 17 8.5 29.5t27.5 14.5l270 30q5 8 14.5 13.5t20.5 5.5q16 0 29 -13l316 35
q17 2 29.5 -8.5t14.5 -27.5zM290 -101q5 20 20 26.5t29.5 3t24 -16.5t4.5 -33l-43 -178q-5 -20 -20 -27t-29.5 -3t-24 17t-4.5 33z" />
    <glyph glyph-name="uni0163" unicode="&#x163;" horiz-adv-x="440" 
d="M389 495q17 2 30 -7.5t16 -26.5q2 -17 -7.5 -30t-26.5 -15l-138 -21l11 -382q0 -17 -11.5 -29t-28.5 -12t-28.5 11t-11.5 28l-11 372l-132 -19q-2 0 -3 -0.5t-3 -0.5q-15 0 -26.5 10t-13.5 25q-2 16 7.5 29.5t26.5 15.5l143 21l-2 252q0 17 11 28.5t28 12.5q17 0 29 -11
t12 -28l2 -242zM190 -101q5 20 20 26.5t29.5 3t24 -16.5t4.5 -33l-43 -178q-5 -20 -20 -27t-29.5 -3t-24 17t-4.5 33z" />
    <glyph glyph-name="Tcaron" unicode="&#x164;" horiz-adv-x="757" 
d="M744 721q2 -17 -8.5 -29.5t-26.5 -14.5l-316 -34l-13 -632q-1 -17 -12 -28t-28 -11h-1q-17 0 -28 12t-11 29l13 621l-254 -27q-2 0 -2.5 -0.5t-2.5 -0.5q-15 0 -26.5 10.5t-13.5 25.5q-2 17 8.5 29.5t27.5 14.5l270 30q5 8 14.5 13.5t20.5 5.5q16 0 29 -13l316 35
q17 2 29.5 -8.5t14.5 -27.5zM378 851q-9 -8 -15.5 -11t-14.5 -3q-6 0 -13 3t-17 11l-73 65q-14 15 -12 31t12.5 26.5t27 12t30.5 -13.5l45 -40l45 40q14 15 30.5 13.5t27 -12t12.5 -26.5t-12 -31z" />
    <glyph glyph-name="tcaron" unicode="&#x165;" horiz-adv-x="440" 
d="M389 495q17 2 30 -7.5t16 -26.5q2 -17 -7.5 -30t-26.5 -15l-138 -21l11 -382q0 -17 -11.5 -29t-28.5 -12t-28.5 11t-11.5 28l-11 372l-132 -19q-2 0 -3 -0.5t-3 -0.5q-15 0 -26.5 10t-13.5 25q-2 16 7.5 29.5t26.5 15.5l143 21l-2 252q0 17 11 28.5t28 12.5q17 0 29 -11
t12 -28l2 -242zM346 753q5 20 20 26.5t29.5 3t24 -16.5t4.5 -33l-43 -178q-5 -20 -20 -27t-29.5 -3t-24 17t-4.5 33z" />
    <glyph glyph-name="Umacron" unicode="&#x16a;" horiz-adv-x="841" 
d="M740 757q15 -2 25.5 -13t10.5 -26l11 -705q1 -17 -10.5 -29t-28.5 -12h-1q-16 0 -27.5 11t-12.5 28l-7 443q-9 -26 -19.5 -52.5t-22.5 -53.5q-70 -161 -152 -252q-108 -124 -235 -124q-56 0 -99 21q-42 22 -67 60q-85 123 -19 417q11 52 24.5 99t24.5 82t19 56.5t9 23.5
q6 16 21 22.5t31 0.5t22.5 -21t0.5 -31l-7.5 -20.5t-19 -54.5t-24.5 -79.5t-24 -95.5q-13 -59 -19 -110t-7 -94q0 -101 34 -150q31 -46 100 -46q53 0 99.5 30t86 77.5t71.5 105.5t57 114q28 64 49 126t35 110.5t21 78.5t7 31q3 15 15.5 24.5t27.5 7.5zM362 863
q-21 0 -31 12.5t-10 27.5t10 27.5t31 12.5h217q21 0 31 -12.5t10 -27.5t-10 -27.5t-31 -12.5h-217z" />
    <glyph glyph-name="umacron" unicode="&#x16b;" horiz-adv-x="438" 
d="M409 69q2 -17 -8.5 -29.5t-27.5 -14.5t-29.5 9t-14.5 28l-12 128v-2q-37 -78 -72 -122q-53 -65 -111 -65h-3q-47 2 -74 38q-40 56 -22 189q7 46 15 79.5t9 35.5q5 16 19 24t30 3t24.5 -19t3.5 -30q-1 -1 -8.5 -32t-13.5 -73q-5 -35 -5 -58.5t2 -38.5t5.5 -22.5t5.5 -9.5
q3 -6 11 -6q10 -1 23 8.5t27 26.5q29 36 61 105q14 29 24 58t18 52q9 26 16 50q4 14 16 22.5t26 7.5q14 -2 24.5 -12t12.5 -24zM110 463q-21 0 -31 12.5t-10 27.5t10 27.5t31 12.5h217q21 0 31 -12.5t10 -27.5t-10 -27.5t-31 -12.5h-217z" />
    <glyph glyph-name="Uring" unicode="&#x16e;" horiz-adv-x="841" 
d="M740 757q-15 2 -27.5 -7.5t-15.5 -24.5q0 -1 -7 -31t-21 -78.5t-35 -110.5t-49 -126q-25 -56 -57 -114t-71.5 -105.5t-86 -77.5t-99.5 -30q-69 0 -100 46q-34 49 -34 150q1 43 7 94t19 110q11 50 24 95.5t24.5 79.5t19 54.5l7.5 20.5q6 16 -0.5 31t-22.5 21t-31 -0.5
t-21 -22.5q-1 -2 -9 -23.5t-19 -56.5t-24.5 -82t-24.5 -99q-66 -294 19 -417q25 -38 67 -60q43 -21 99 -21q127 0 235 124q82 91 152 252q12 27 22.5 53.5t19.5 52.5l7 -443q1 -17 12.5 -28t27.5 -11h1q17 0 28.5 12t10.5 29l-11 705q0 15 -10.5 26t-25.5 13zM450 731
q-40 0 -68 28t-28 69q0 40 28 68t68 28q39 0 69 -28q28 -28 28 -68q0 -41 -28 -69q-30 -28 -69 -28zM450 864q-15 0 -25.5 -10.5t-10.5 -25.5q0 -16 10.5 -26.5t25.5 -10.5q16 0 26.5 10.5t10.5 26.5q0 15 -10.5 25.5t-26.5 10.5z" />
    <glyph glyph-name="uring" unicode="&#x16f;" horiz-adv-x="438" 
d="M381 375q-2 14 -12.5 24t-24.5 12q-14 1 -26 -7.5t-16 -22.5q-7 -24 -16 -50q-8 -23 -18 -52t-24 -58q-32 -69 -61 -105q-14 -17 -27 -26.5t-23 -8.5q-8 0 -11 6q-2 2 -5.5 9.5t-5.5 22.5t-2 38.5t5 58.5q6 42 13.5 73t8.5 32q5 16 -3.5 30t-24.5 19t-30 -3t-19 -24
q-1 -2 -9 -35.5t-15 -79.5q-18 -133 22 -189q27 -36 74 -38h3q58 0 111 65q35 44 72 122v2l12 -128q2 -17 14.5 -28t29.5 -9t27.5 14.5t8.5 29.5zM208 431q-40 0 -68 28t-28 69q0 40 28 68t68 28q39 0 69 -28q28 -28 28 -68q0 -41 -28 -69q-30 -28 -69 -28zM208 564
q-15 0 -25.5 -10.5t-10.5 -25.5q0 -16 10.5 -26.5t25.5 -10.5q16 0 26.5 10.5t10.5 26.5q0 15 -10.5 25.5t-26.5 10.5z" />
    <glyph glyph-name="Uhungarumlaut" unicode="&#x170;" horiz-adv-x="841" 
d="M740 757q15 -2 25.5 -13t10.5 -26l11 -705q1 -17 -10.5 -29t-28.5 -12h-1q-16 0 -27.5 11t-12.5 28l-7 443q-9 -26 -19.5 -52.5t-22.5 -53.5q-70 -161 -152 -252q-108 -124 -235 -124q-56 0 -99 21q-42 22 -67 60q-85 123 -19 417q11 52 24.5 99t24.5 82t19 56.5t9 23.5
q6 16 21 22.5t31 0.5t22.5 -21t0.5 -31l-7.5 -20.5t-19 -54.5t-24.5 -79.5t-24 -95.5q-13 -59 -19 -110t-7 -94q0 -101 34 -150q31 -46 100 -46q53 0 99.5 30t86 77.5t71.5 105.5t57 114q28 64 49 126t35 110.5t21 78.5t7 31q3 15 15.5 24.5t27.5 7.5zM547 863
q-9 -18 -25 -21.5t-29 3.5t-19.5 22t3.5 33l56 101q9 18 25 21.5t29 -3.5t19.5 -22t-3.5 -33zM407 863q-9 -18 -25 -21.5t-29 3.5t-19.5 22t3.5 33l56 101q9 18 25 21.5t29 -3.5t19.5 -22t-3.5 -33z" />
    <glyph glyph-name="uhungarumlaut" unicode="&#x171;" horiz-adv-x="438" 
d="M409 69q2 -17 -8.5 -29.5t-27.5 -14.5t-29.5 9t-14.5 28l-12 128v-2q-37 -78 -72 -122q-53 -65 -111 -65h-3q-47 2 -74 38q-40 56 -22 189q7 46 15 79.5t9 35.5q5 16 19 24t30 3t24.5 -19t3.5 -30q-1 -1 -8.5 -32t-13.5 -73q-5 -35 -5 -58.5t2 -38.5t5.5 -22.5t5.5 -9.5
q3 -6 11 -6q10 -1 23 8.5t27 26.5q29 36 61 105q14 29 24 58t18 52q9 26 16 50q4 14 16 22.5t26 7.5q14 -2 24.5 -12t12.5 -24zM316 493q-9 -18 -25 -21.5t-29 3.5t-19.5 22t3.5 33l56 101q9 18 25 21.5t29 -3.5t19.5 -22t-3.5 -33zM176 493q-9 -18 -25 -21.5t-29 3.5
t-19.5 22t3.5 33l56 101q9 18 25 21.5t29 -3.5t19.5 -22t-3.5 -33z" />
    <glyph glyph-name="Uogonek" unicode="&#x172;" horiz-adv-x="841" 
d="M740 757q15 -2 25.5 -13t10.5 -26l11 -705q1 -17 -10.5 -29t-28.5 -12h-1q-10 0 -20 5q-38 -42 -44.5 -76.5t3.5 -52.5q6 -11 14.5 -15.5t18.5 -5t18.5 1t14.5 3.5q16 5 30.5 -3t19.5 -24t-3 -30.5t-24 -19.5q-27 -8 -50 -8q-12 0 -23 2t-21 5q-44 15 -66 56
q-14 27 -15.5 60t11.5 68q12 35 36 67t59 61l-6 388q-9 -26 -19.5 -52.5t-22.5 -53.5q-70 -161 -152 -252q-108 -124 -235 -124q-56 0 -99 21q-42 22 -67 60q-85 123 -19 417q11 52 24.5 99t24.5 82t19 56.5t9 23.5q6 16 21 22.5t31 0.5t22.5 -21t0.5 -31l-7.5 -20.5
t-19 -54.5t-24.5 -79.5t-24 -95.5q-13 -59 -19 -110t-7 -94q0 -101 34 -150q31 -46 100 -46q53 0 99.5 30t86 77.5t71.5 105.5t57 114q28 64 49 126t35 110.5t21 78.5t7 31q3 15 15.5 24.5t27.5 7.5z" />
    <glyph glyph-name="uogonek" unicode="&#x173;" horiz-adv-x="438" 
d="M409 69q2 -17 -8.5 -29.5t-27.5 -14.5h-3q-26 -23 -40.5 -45.5t-21 -42t-5.5 -35t6 -25.5q6 -11 14.5 -15.5t18.5 -5t18.5 1t14.5 3.5q16 5 30.5 -3t19.5 -24t-3 -30.5t-24 -19.5q-27 -8 -50 -8q-12 0 -23 2t-21 5q-44 15 -66 56q-14 27 -15.5 60t11.5 68q12 33 35 65
t57 61l-9 97v-2q-37 -78 -72 -122q-53 -65 -111 -65h-3q-47 2 -74 38q-40 56 -22 189q7 46 15 79.5t9 35.5q5 16 19 24t30 3t24.5 -19t3.5 -30q-1 -1 -8.5 -32t-13.5 -73q-5 -35 -5 -58.5t2 -38.5t5.5 -22.5t5.5 -9.5q3 -6 11 -6q10 -1 23 8.5t27 26.5q29 36 61 105
q14 29 24 58t18 52q9 26 16 50q4 14 16 22.5t26 7.5q14 -2 24.5 -12t12.5 -24z" />
    <glyph glyph-name="Ydieresis" unicode="&#x178;" horiz-adv-x="722" 
d="M700 747q13 -11 14 -27t-10 -29l-600 -705q-12 -14 -30 -14q-14 0 -26 9q-13 11 -14.5 27.5t9.5 29.5l283 332l-235 281q-11 13 -9.5 29.5t14.5 27.5t29.5 9.5t27.5 -14.5l226 -271l264 311q11 13 27.5 14t29.5 -10zM366 889q0 -19 -13 -32t-32 -13t-32 13t-13 32t13 32
t32 13t32 -13t13 -32zM526 889q0 -19 -13 -32t-32 -13t-32 13t-13 32t13 32t32 13t32 -13t13 -32z" />
    <glyph glyph-name="Zacute" unicode="&#x179;" horiz-adv-x="705" 
d="M615 88q16 4 30 -4t19 -25q5 -16 -3.5 -30t-24.5 -19q-2 0 -23 -5.5t-54.5 -11.5t-77 -12t-91.5 -8q-10 -1 -19 -1h-18q-92 0 -158 21q-109 35 -143 122q-25 59 -13 126q10 57 48 117q61 96 188 196q45 35 88.5 65t81.5 53l-294 5q-17 0 -28.5 11.5t-11.5 28.5
q1 17 12.5 28.5t28.5 11.5l443 -7q14 0 24.5 -8.5t13.5 -22.5t-3 -26.5t-18 -18.5q-1 0 -27 -14t-67 -38t-92 -57.5t-102 -73.5q-44 -35 -87 -76.5t-74 -86.5t-43 -91.5t6 -91.5q13 -32 41 -51t64 -28.5t76.5 -12t77.5 -0.5q44 1 85.5 7t73.5 12t51.5 11zM411 836
q-16 -13 -32 -10t-25.5 14.5t-9 28t16.5 29.5l92 70q16 13 32 10t25.5 -14.5t9 -28t-16.5 -29.5z" />
    <glyph glyph-name="zacute" unicode="&#x17a;" horiz-adv-x="415" 
d="M335 98q17 4 30.5 -4.5t18.5 -24.5q4 -16 -4.5 -30t-24.5 -19q-1 0 -11.5 -2.5t-28 -5.5t-40 -6t-47.5 -4h-19q-50 0 -84 10q-39 12 -58 32t-27 37q-10 23 -9.5 57t29.5 78q31 47 99 97l24 18l-75 1q-17 0 -28.5 11.5t-11.5 28.5q1 17 12.5 28.5t28.5 11.5l221 -3
q14 -1 25 -9.5t14 -22.5t-3.5 -26.5t-19.5 -18.5q-22 -11 -46 -24q-20 -11 -45 -26.5t-50 -33.5q-55 -42 -79 -77q-9 -13 -12 -22.5t-3.5 -17t1 -12t2.5 -6.5q7 -17 35.5 -25t74.5 -6q21 1 41 3.5t36 5.5q18 4 34 7zM256 466q-16 -13 -32 -10t-25.5 14.5t-9 28t16.5 29.5
l92 70q16 13 32 10t25.5 -14.5t9 -28t-16.5 -29.5z" />
    <glyph glyph-name="Zdotaccent" unicode="&#x17b;" horiz-adv-x="705" 
d="M615 88q16 4 30 -4t19 -25q5 -16 -3.5 -30t-24.5 -19q-2 0 -23 -5.5t-54.5 -11.5t-77 -12t-91.5 -8q-10 -1 -19 -1h-18q-92 0 -158 21q-109 35 -143 122q-25 59 -13 126q10 57 48 117q61 96 188 196q45 35 88.5 65t81.5 53l-294 5q-17 0 -28.5 11.5t-11.5 28.5
q1 17 12.5 28.5t28.5 11.5l443 -7q14 0 24.5 -8.5t13.5 -22.5t-3 -26.5t-18 -18.5q-1 0 -27 -14t-67 -38t-92 -57.5t-102 -73.5q-44 -35 -87 -76.5t-74 -86.5t-43 -91.5t6 -91.5q13 -32 41 -51t64 -28.5t76.5 -12t77.5 -0.5q44 1 85.5 7t73.5 12t51.5 11zM437 889
q0 -19 -13 -32t-32 -13t-32 13t-13 32t13 32t32 13t32 -13t13 -32z" />
    <glyph glyph-name="zdotaccent" unicode="&#x17c;" horiz-adv-x="415" 
d="M335 98q17 4 30.5 -4.5t18.5 -24.5q4 -16 -4.5 -30t-24.5 -19q-1 0 -11.5 -2.5t-28 -5.5t-40 -6t-47.5 -4h-19q-50 0 -84 10q-39 12 -58 32t-27 37q-10 23 -9.5 57t29.5 78q31 47 99 97l24 18l-75 1q-17 0 -28.5 11.5t-11.5 28.5q1 17 12.5 28.5t28.5 11.5l221 -3
q14 -1 25 -9.5t14 -22.5t-3.5 -26.5t-19.5 -18.5q-22 -11 -46 -24q-20 -11 -45 -26.5t-50 -33.5q-55 -42 -79 -77q-9 -13 -12 -22.5t-3.5 -17t1 -12t2.5 -6.5q7 -17 35.5 -25t74.5 -6q21 1 41 3.5t36 5.5q18 4 34 7zM282 519q0 -19 -13 -32t-32 -13t-32 13t-13 32t13 32
t32 13t32 -13t13 -32z" />
    <glyph glyph-name="Zcaron" unicode="&#x17d;" horiz-adv-x="705" 
d="M615 88q16 4 30 -4t19 -25q5 -16 -3.5 -30t-24.5 -19q-2 0 -23 -5.5t-54.5 -11.5t-77 -12t-91.5 -8q-10 -1 -19 -1h-18q-92 0 -158 21q-109 35 -143 122q-25 59 -13 126q10 57 48 117q61 96 188 196q45 35 88.5 65t81.5 53l-294 5q-17 0 -28.5 11.5t-11.5 28.5
q1 17 12.5 28.5t28.5 11.5l443 -7q14 0 24.5 -8.5t13.5 -22.5t-3 -26.5t-18 -18.5q-1 0 -27 -14t-67 -38t-92 -57.5t-102 -73.5q-44 -35 -87 -76.5t-74 -86.5t-43 -91.5t6 -91.5q13 -32 41 -51t64 -28.5t76.5 -12t77.5 -0.5q44 1 85.5 7t73.5 12t51.5 11zM432 851
q-9 -8 -15.5 -11t-14.5 -3q-6 0 -13 3t-17 11l-73 65q-14 15 -12 31t12.5 26.5t27 12t30.5 -13.5l45 -40l45 40q14 15 30.5 13.5t27 -12t12.5 -26.5t-12 -31z" />
    <glyph glyph-name="zcaron" unicode="&#x17e;" horiz-adv-x="415" 
d="M335 98q17 4 30.5 -4.5t18.5 -24.5q4 -16 -4.5 -30t-24.5 -19q-1 0 -11.5 -2.5t-28 -5.5t-40 -6t-47.5 -4h-19q-50 0 -84 10q-39 12 -58 32t-27 37q-10 23 -9.5 57t29.5 78q31 47 99 97l24 18l-75 1q-17 0 -28.5 11.5t-11.5 28.5q1 17 12.5 28.5t28.5 11.5l221 -3
q14 -1 25 -9.5t14 -22.5t-3.5 -26.5t-19.5 -18.5q-22 -11 -46 -24q-20 -11 -45 -26.5t-50 -33.5q-55 -42 -79 -77q-9 -13 -12 -22.5t-3.5 -17t1 -12t2.5 -6.5q7 -17 35.5 -25t74.5 -6q21 1 41 3.5t36 5.5q18 4 34 7zM267 481q-9 -8 -15.5 -11t-14.5 -3q-6 0 -13 3t-17 11
l-73 65q-14 15 -12 31t12.5 26.5t27 12t30.5 -13.5l45 -40l45 40q14 15 30.5 13.5t27 -12t12.5 -26.5t-12 -31z" />
    <glyph glyph-name="uni0218" unicode="&#x218;" horiz-adv-x="692" 
d="M330 -101q5 20 20 26.5t29.5 3t24 -16.5t4.5 -33l-43 -178q-5 -20 -20 -27t-29.5 -3t-24 17t-4.5 33zM560 350q24 -16 41.5 -33.5t30.5 -37.5q29 -47 26 -104q-2 -45 -21.5 -82.5t-55.5 -64.5q-31 -24 -71 -37.5t-87 -17.5q-8 -1 -14.5 -1h-14.5q-56 0 -110.5 14.5
t-101.5 41.5q-59 35 -97 85q-22 27 -35.5 58t-20.5 65q-3 17 6 30.5t26 16.5q16 4 29.5 -5.5t16.5 -25.5q10 -51 41.5 -90t74.5 -64.5t94 -37t100 -7.5q14 1 40 5.5t52.5 18t46.5 37.5t22 64q2 32 -13 57t-49 48q-35 23 -80 40t-92 33q-42 14 -79 28t-69 32q-82 46 -88 115
q-9 83 55 144q52 48 136 69q40 10 83.5 12t81.5 -5.5t67.5 -26t42.5 -48.5q6 -15 0 -30t-22 -22q-15 -6 -30.5 0t-21.5 22q-3 7 -16.5 14.5t-39.5 12.5q-28 5 -60.5 3.5t-64.5 -9.5q-12 -3 -35.5 -11.5t-46 -24t-38 -38t-12.5 -54.5q2 -17 18.5 -32t42 -27.5t57.5 -24.5
t65 -23q51 -17 100 -36t90 -46z" />
    <glyph glyph-name="uni0219" unicode="&#x219;" horiz-adv-x="400" 
d="M170 -101q5 20 20 26.5t29.5 3t24 -16.5t4.5 -33l-43 -178q-5 -20 -20 -27t-29.5 -3t-24 17t-4.5 33zM319 219q19 -12 30.5 -25t17.5 -26t8 -26t1 -23q-2 -55 -51 -87q-37 -23 -91 -29q-9 -1 -18.5 -1.5t-19.5 -0.5q-22 0 -43.5 2.5t-41.5 7.5q-76 20 -88 66
q-5 16 3.5 30t24.5 19q15 5 28.5 -2.5t19.5 -21.5q5 -4 20 -9.5t43 -9.5t54.5 -2t46.5 10q12 4 19 9t10 9.5t3.5 8t0.5 5.5q1 10 -6 18t-20.5 15t-31.5 13.5t-40 13.5q-21 7 -39.5 14t-35.5 16q-49 25 -54 70q-5 42 23 74t81 46q45 12 87 6q57 -9 74 -48q7 -15 0.5 -30.5
t-21.5 -22.5q-14 -6 -28.5 -1t-22.5 19q-3 2 -12.5 4t-23.5 1q-16 -1 -31.5 -5t-27.5 -10q-14 -8 -16.5 -14.5t-2.5 -9.5q2 -1 5.5 -4.5t14.5 -8.5t25 -10t30 -10q25 -8 50 -17t46 -23z" />
    <glyph glyph-name="circumflex" unicode="&#x2c6;" horiz-adv-x="288" 
d="M114 671q9 8 15.5 11t14.5 3q6 0 13 -3t17 -11l73 -65q14 -15 12 -31.5t-12.5 -27t-27 -11.5t-30.5 14l-45 40l-45 -40q-14 -15 -30.5 -14t-27 11.5t-12.5 27t12 31.5z" />
    <glyph glyph-name="caron" unicode="&#x2c7;" horiz-adv-x="288" 
d="M174 551q-9 -8 -15.5 -11t-14.5 -3q-6 0 -13 3t-17 11l-73 65q-14 15 -12 31t12.5 26.5t27 12t30.5 -13.5l45 -40l45 40q14 15 30.5 13.5t27 -12t12.5 -26.5t-12 -31z" />
    <glyph glyph-name="breve" unicode="&#x2d8;" horiz-adv-x="272" 
d="M136 511q-24 0 -45.5 9t-38.5 26q-13 13 -25 36.5t-12 61.5q0 17 11.5 28.5t28.5 11.5t28.5 -11.5t11.5 -28.5q0 -29 13.5 -41t27.5 -12t27.5 12t13.5 41q0 17 11.5 28.5t28.5 11.5t28.5 -11.5t11.5 -28.5q0 -38 -12 -61.5t-25 -36.5q-17 -17 -38.5 -26t-45.5 -9z" />
    <glyph glyph-name="dotaccent" unicode="&#x2d9;" horiz-adv-x="130" 
d="M110 589q0 -19 -13 -32t-32 -13t-32 13t-13 32t13 32t32 13t32 -13t13 -32z" />
    <glyph glyph-name="ring" unicode="&#x2da;" horiz-adv-x="215" 
d="M107 501q-40 0 -68 28t-28 69q0 40 28 68t68 28q39 0 69 -28q28 -28 28 -68q0 -41 -28 -69q-30 -28 -69 -28zM107 634q-15 0 -25.5 -10.5t-10.5 -25.5q0 -16 10.5 -26.5t25.5 -10.5q16 0 26.5 10.5t10.5 26.5q0 15 -10.5 25.5t-26.5 10.5z" />
    <glyph glyph-name="ogonek" unicode="&#x2db;" horiz-adv-x="237" 
d="M141 -253q-12 0 -23 2t-21 5q-44 15 -66 56q-14 27 -15.5 60t11.5 68q26 73 99 132q13 11 29.5 9.5t27.5 -14.5q10 -14 8.5 -30t-14.5 -27q-31 -25 -48.5 -49t-25.5 -45t-7.5 -38.5t6.5 -27.5q6 -11 14.5 -15.5t18.5 -5t18.5 1t14.5 3.5q16 5 30.5 -3t19.5 -24t-3 -30.5
t-24 -19.5q-27 -8 -50 -8z" />
    <glyph glyph-name="tilde" unicode="&#x2dc;" horiz-adv-x="344" 
d="M250 522q-16 0 -28 4.5t-18 7.5q-15 6 -30.5 15.5t-30.5 18.5q-11 7 -20.5 13t-17.5 11q-3 1 -5 2l-4 2q-1 -4 -1 -9.5v-13.5q1 -17 -10 -28.5t-28 -12.5t-29 10t-13 28q0 12 0.5 26.5t4 28.5t11.5 26t22 20q12 7 23.5 8t22 -0.5t18.5 -4.5t12 -5q14 -7 28.5 -15.5
t28.5 -17.5l22 -14t21 -12l16 -7q2 4 3 11t1 18q1 17 12.5 28.5t28.5 10.5t28.5 -12.5t10.5 -28.5q0 -7 -1 -20.5t-5.5 -28t-13.5 -28.5t-25 -22q-17 -9 -34 -9z" />
    <glyph glyph-name="hungarumlaut" unicode="&#x2dd;" horiz-adv-x="326" 
d="M100 563q-9 -18 -25 -21.5t-29 3.5t-19.5 22t3.5 33l56 101q9 18 25 21.5t29 -3.5t19.5 -22t-3.5 -33zM240 563q-9 -18 -25 -21.5t-29 3.5t-19.5 22t3.5 33l56 101q9 18 25 21.5t29 -3.5t19.5 -22t-3.5 -33z" />
    <glyph glyph-name="quoteleft" unicode="&#x2018;" horiz-adv-x="176" 
d="M21 411q0 5 1 10l2 10l43 178q5 20 20 26.5t29.5 3t24 -16.5t4.5 -33l-32 -134q21 -16 21 -44q0 -24 -16.5 -40.5t-39.5 -16.5q-24 0 -40.5 16.5t-16.5 40.5z" />
    <glyph glyph-name="quoteright" unicode="&#x2019;" horiz-adv-x="175" 
d="M155 605q0 -5 -1 -10l-2 -10l-43 -178q-5 -20 -20 -27t-29.5 -3t-24 17t-4.5 33l32 134q-21 16 -21 44q0 24 16.5 40.5t39.5 16.5q24 0 40.5 -16.5t16.5 -40.5z" />
    <glyph glyph-name="quotesinglbase" unicode="&#x201a;" horiz-adv-x="175" 
d="M155 105q0 -5 -1 -10l-2 -10l-43 -178q-5 -20 -20 -27t-29.5 -3t-24 17t-4.5 33l32 134q-21 16 -21 44q0 24 16.5 40.5t39.5 16.5q24 0 40.5 -16.5t16.5 -40.5z" />
    <glyph glyph-name="quotedblleft" unicode="&#x201c;" horiz-adv-x="362" 
d="M193 411q0 5 1 10l2 10l43 178q5 20 20 26.5t29.5 3t24 -16.5t4.5 -33l-32 -134q21 -16 21 -44q0 -24 -16.5 -40.5t-39.5 -16.5q-24 0 -40.5 16.5t-16.5 40.5zM33 411q0 5 1 10l2 10l43 178q5 20 20 26.5t29.5 3t24 -16.5t4.5 -33l-32 -134q21 -16 21 -44
q0 -24 -16.5 -40.5t-39.5 -16.5q-24 0 -40.5 16.5t-16.5 40.5z" />
    <glyph glyph-name="quotedblright" unicode="&#x201d;" horiz-adv-x="360" 
d="M168 605q0 -5 -1 -10l-2 -10l-43 -178q-5 -20 -20 -27t-29.5 -3t-24 17t-4.5 33l32 134q-21 16 -21 44q0 24 16.5 40.5t39.5 16.5q24 0 40.5 -16.5t16.5 -40.5zM328 605q0 -5 -1 -10l-2 -10l-43 -178q-5 -20 -20 -27t-29.5 -3t-24 17t-4.5 33l32 134q-21 16 -21 44
q0 24 16.5 40.5t39.5 16.5q24 0 40.5 -16.5t16.5 -40.5z" />
    <glyph glyph-name="quotedblbase" unicode="&#x201e;" horiz-adv-x="360" 
d="M168 105q0 -5 -1 -10l-2 -10l-43 -178q-5 -20 -20 -27t-29.5 -3t-24 17t-4.5 33l32 134q-21 16 -21 44q0 24 16.5 40.5t39.5 16.5q24 0 40.5 -16.5t16.5 -40.5zM328 105q0 -5 -1 -10l-2 -10l-43 -178q-5 -20 -20 -27t-29.5 -3t-24 17t-4.5 33l32 134q-21 16 -21 44
q0 24 16.5 40.5t39.5 16.5q24 0 40.5 -16.5t16.5 -40.5z" />
    <glyph glyph-name="Euro" unicode="&#x20ac;" horiz-adv-x="745" 
d="M83 395q-21 0 -31 12.5t-10 27.5t10 27.5t31 12.5h17q6 32 14.5 61.5t20.5 55.5q41 93 116 136q52 31 113 29q58 -2 106 -30q52 -30 80.5 -81t27.5 -111q0 -17 -11.5 -28.5t-28.5 -11.5h-1q-17 0 -28 12t-11 29q0 38 -18 70t-50 52q-33 19 -70 19t-70 -19
q-25 -14 -46 -39t-36 -59q-17 -40 -27 -85h114q21 0 31 -12.5t10 -27.5t-10 -27.5t-31 -12.5h-124q-1 -13 -1 -25.5v-25.5v-29h125q21 0 31 -12.5t10 -27.5t-10 -27.5t-31 -12.5h-115q15 -78 53.5 -124.5t96.5 -56.5q42 -7 87 6t88 43q47 33 82 81t55 106q6 16 20.5 23
t30.5 2t23 -20t2 -31q-24 -69 -67 -127.5t-100 -98.5q-27 -20 -55.5 -33.5t-58.5 -21.5q-20 -6 -39 -8.5t-38 -2.5q-22 0 -43 3q-103 18 -163 110q-41 63 -56 150h-15q-21 0 -31 12.5t-10 27.5t10 27.5t31 12.5h7v29v25.5t1 25.5h-8v0z" />
    </font>
</defs>
</svg>
